G04*
G04 #@! TF.GenerationSoftware,Altium Limited,Altium Designer,18.0.12 (696)*
G04*
G04 Layer_Color=65535*
%FSLAX25Y25*%
%MOIN*%
G70*
G01*
G75*
%ADD10C,0.01000*%
%ADD11C,0.00787*%
%ADD12C,0.01181*%
%ADD13C,0.02362*%
%ADD14C,0.00598*%
%ADD15C,0.00600*%
%ADD16C,0.02000*%
%ADD17C,0.00800*%
%ADD18C,0.01500*%
G36*
X250580Y321809D02*
X250783Y321735D01*
X251209Y321605D01*
X251672Y321457D01*
X252116Y321309D01*
X252320Y321235D01*
X252505Y321180D01*
X252671Y321124D01*
X252819Y321068D01*
X252949Y321031D01*
X253041Y320994D01*
X253097Y320976D01*
X253115D01*
X253708Y320772D01*
X254282Y320569D01*
X254818Y320384D01*
X255300Y320217D01*
X255762Y320050D01*
X256188Y319902D01*
X256577Y319754D01*
X256910Y319625D01*
X257225Y319514D01*
X257484Y319421D01*
X257724Y319328D01*
X257909Y319254D01*
X258058Y319199D01*
X258150Y319162D01*
X258224Y319125D01*
X258243D01*
X258576Y318995D01*
X258872Y318884D01*
X259168Y318773D01*
X259427Y318662D01*
X259668Y318569D01*
X259872Y318495D01*
X260075Y318422D01*
X260242Y318366D01*
X260390Y318310D01*
X260519Y318273D01*
X260630Y318218D01*
X260723Y318199D01*
X260779Y318181D01*
X260834Y318162D01*
X260853Y318144D01*
X260871D01*
X261186Y318051D01*
X261463Y317977D01*
X261686Y317940D01*
X261871Y317922D01*
X262000Y317903D01*
X262093Y317922D01*
X262148D01*
X262167D01*
X262278Y317977D01*
X262370Y318088D01*
X262426Y318199D01*
X262481Y318329D01*
X262500Y318459D01*
X262519Y318569D01*
Y317422D01*
X249895D01*
X250135Y317440D01*
X250357Y317459D01*
X250580Y317477D01*
X250746Y317514D01*
X250857Y317533D01*
X250876Y317551D01*
X250894D01*
X250802Y317792D01*
X250728Y318051D01*
X250654Y318366D01*
X250598Y318699D01*
X250505Y319403D01*
X250450Y320124D01*
X250431Y320476D01*
X250413Y320791D01*
Y321087D01*
X250395Y321346D01*
Y321864D01*
X250580Y321809D01*
D02*
G37*
G36*
X248192Y328880D02*
X248284Y328565D01*
X248358Y328232D01*
X248432Y327880D01*
X248525Y327121D01*
X248599Y326381D01*
X248618Y326029D01*
X248636Y325696D01*
X248655Y325400D01*
Y325122D01*
X248673Y324919D01*
Y323493D01*
X248655Y323179D01*
Y322642D01*
X248636Y322401D01*
Y322031D01*
X248618Y321883D01*
Y321661D01*
X248599Y321568D01*
Y321476D01*
X248562Y321050D01*
X248544Y320680D01*
X248525Y320346D01*
Y320069D01*
X248506Y319847D01*
Y319254D01*
X248544Y318958D01*
X248562Y318718D01*
X248599Y318532D01*
X248636Y318366D01*
X248673Y318255D01*
X248692Y318181D01*
X248710Y318162D01*
X248803Y317996D01*
X248895Y317848D01*
X249025Y317737D01*
X249136Y317644D01*
X249247Y317588D01*
X249339Y317533D01*
X249413Y317514D01*
X249432Y317496D01*
X249654Y317440D01*
X249895Y317422D01*
X248099D01*
Y329139D01*
X248192Y328880D01*
D02*
G37*
G36*
X262667Y348593D02*
X262741D01*
Y268611D01*
X262500D01*
D01*
X262148D01*
X262185Y268630D01*
X262204D01*
X262296Y268704D01*
X262370Y268815D01*
X262426Y268926D01*
X262463Y269037D01*
X262481Y269148D01*
X262500Y269240D01*
Y269333D01*
X262481Y269629D01*
X262407Y269962D01*
X262315Y270296D01*
X262204Y270610D01*
X262093Y270906D01*
X262037Y271036D01*
X262000Y271128D01*
X261963Y271221D01*
X261926Y271295D01*
X261908Y271332D01*
Y271351D01*
X261797Y271332D01*
X261667D01*
X261519D01*
X261352D01*
X260964Y271388D01*
X260538Y271462D01*
X260075Y271554D01*
X259575Y271684D01*
X258557Y271961D01*
X258058Y272110D01*
X257595Y272239D01*
X257151Y272387D01*
X256780Y272498D01*
X256614Y272554D01*
X256466Y272609D01*
X256318Y272646D01*
X256207Y272683D01*
X256114Y272720D01*
X256059Y272739D01*
X256021Y272757D01*
X256003D01*
Y280476D01*
X260908Y278680D01*
X261149Y278607D01*
X261352Y278551D01*
X261519Y278495D01*
X261649Y278477D01*
X261760Y278440D01*
X261834D01*
X261871Y278421D01*
X261889D01*
X261982D01*
X262074Y278440D01*
X262222Y278514D01*
X262296Y278569D01*
X262333Y278607D01*
X262389Y278699D01*
X262426Y278792D01*
X262481Y278995D01*
Y279088D01*
X262500Y279162D01*
Y279236D01*
X262481Y279532D01*
X262407Y279865D01*
X262315Y280198D01*
X262204Y280513D01*
X262093Y280809D01*
X262037Y280920D01*
X262000Y281031D01*
X261963Y281124D01*
X261926Y281179D01*
X261908Y281216D01*
Y281235D01*
X261797Y281216D01*
X261667D01*
X261501D01*
X261334D01*
X260945Y281272D01*
X260519Y281346D01*
X260038Y281438D01*
X259538Y281568D01*
X258520Y281846D01*
X258021Y281994D01*
X257539Y282123D01*
X257114Y282271D01*
X256725Y282382D01*
X256558Y282438D01*
X256410Y282494D01*
X256262Y282531D01*
X256151Y282568D01*
X256077Y282605D01*
X256003Y282623D01*
X255966Y282642D01*
X255947D01*
X255540Y282771D01*
X255096Y282938D01*
X254652Y283086D01*
X254207Y283253D01*
X254022Y283327D01*
X253837Y283382D01*
X253671Y283456D01*
X253523Y283493D01*
X253412Y283549D01*
X253319Y283586D01*
X253263Y283604D01*
X253245D01*
X249784Y284900D01*
X249562Y284955D01*
X249376Y284992D01*
X249210D01*
X249062Y284974D01*
X248951Y284937D01*
X248840Y284881D01*
X248692Y284733D01*
X248618Y284567D01*
X248562Y284419D01*
X248544Y284289D01*
Y268611D01*
X248099D01*
Y317422D01*
X262519D01*
Y326492D01*
D01*
Y318662D01*
X262500Y318977D01*
X262426Y319310D01*
X262333Y319643D01*
X262204Y319976D01*
X262093Y320254D01*
X262056Y320365D01*
X262000Y320476D01*
X261963Y320569D01*
X261926Y320624D01*
X261908Y320661D01*
Y320680D01*
X261797Y320661D01*
X261649D01*
X261334Y320680D01*
X260945Y320717D01*
X260519Y320791D01*
X260075Y320883D01*
X259594Y321013D01*
X258613Y321272D01*
X258132Y321402D01*
X257687Y321531D01*
X257262Y321661D01*
X256910Y321772D01*
X256595Y321864D01*
X256466Y321920D01*
X256373Y321938D01*
X256281Y321975D01*
X256225Y321994D01*
X256188Y322012D01*
X256170D01*
X255744Y322161D01*
X255300Y322309D01*
X254837Y322475D01*
X254356Y322660D01*
X253393Y322993D01*
X252912Y323179D01*
X252468Y323345D01*
X252042Y323493D01*
X251653Y323641D01*
X251302Y323771D01*
X250987Y323882D01*
X250746Y323974D01*
X250561Y324048D01*
X250487Y324067D01*
X250431Y324085D01*
X250413Y324104D01*
X250395D01*
X250413Y324456D01*
X250431Y324770D01*
X250450Y325085D01*
Y325363D01*
X250468Y325603D01*
X250487Y325844D01*
Y326381D01*
X250501Y326492D01*
X250505Y326529D01*
Y327158D01*
X250487Y327399D01*
X250468Y327584D01*
X250450Y327750D01*
Y327880D01*
X250431Y327954D01*
X250413Y328010D01*
Y328028D01*
X250302Y328287D01*
X250172Y328528D01*
X250117Y328602D01*
X250061Y328676D01*
X250043Y328713D01*
X250024Y328731D01*
X249913Y328861D01*
X249802Y328954D01*
X249691Y329046D01*
X249580Y329102D01*
X249487Y329157D01*
X249413Y329194D01*
X249358Y329213D01*
X249339D01*
D01*
X249136Y329250D01*
X248932Y329268D01*
X248710D01*
X248525Y329231D01*
X248506Y329229D01*
X248358Y329213D01*
X248210Y329176D01*
X248136Y329157D01*
X248099Y329139D01*
Y329268D01*
X248506D01*
Y336654D01*
D01*
Y329268D01*
X248099D01*
Y348593D01*
X262500D01*
X262667D01*
D01*
D02*
G37*
G36*
X248562Y283974D02*
X248636Y283660D01*
X248729Y283327D01*
X248840Y283012D01*
X248969Y282716D01*
X249006Y282605D01*
X249062Y282494D01*
X249099Y282401D01*
X249136Y282327D01*
X249154Y282290D01*
Y282271D01*
X249395Y282290D01*
X249710D01*
X250043Y282253D01*
X250431Y282179D01*
X250839Y282105D01*
X251283Y281994D01*
X252134Y281772D01*
X252560Y281642D01*
X252949Y281512D01*
X253300Y281401D01*
X253634Y281309D01*
X253893Y281216D01*
X254097Y281142D01*
X254170Y281124D01*
X254226Y281105D01*
X254244Y281087D01*
X254263D01*
Y273368D01*
X253893Y273498D01*
X253560Y273627D01*
X253245Y273738D01*
X252949Y273849D01*
X252690Y273942D01*
X252449Y274035D01*
X252245Y274109D01*
X252060Y274183D01*
X251894Y274238D01*
X251746Y274294D01*
X251635Y274331D01*
X251542Y274368D01*
X251468Y274405D01*
X251413Y274423D01*
X251394Y274442D01*
X251376D01*
X251061Y274571D01*
X250802Y274664D01*
X250561Y274756D01*
X250357Y274830D01*
X250209Y274886D01*
X250098Y274923D01*
X250024Y274960D01*
X250006D01*
X249691Y275052D01*
X249432Y275108D01*
X249228Y275127D01*
X249080D01*
X248951Y275108D01*
X248877Y275090D01*
X248840Y275071D01*
X248821Y275052D01*
X248729Y274960D01*
X248655Y274849D01*
X248618Y274738D01*
X248581Y274645D01*
X248562Y274534D01*
X248544Y274460D01*
Y284252D01*
X248562Y283974D01*
D02*
G37*
G36*
Y274127D02*
X248636Y273831D01*
X248729Y273498D01*
X248840Y273183D01*
X248969Y272887D01*
X249006Y272757D01*
X249062Y272646D01*
X249099Y272554D01*
X249136Y272480D01*
X249154Y272443D01*
Y272424D01*
X249395Y272443D01*
X249710Y272424D01*
X250080Y272387D01*
X250468Y272313D01*
X250894Y272239D01*
X251339Y272128D01*
X252245Y271887D01*
X252690Y271758D01*
X253097Y271647D01*
X253486Y271536D01*
X253819Y271425D01*
X254097Y271332D01*
X254207Y271295D01*
X254300Y271258D01*
X254374Y271239D01*
X254430Y271221D01*
X254467Y271202D01*
X254485D01*
X255300Y270925D01*
X255670Y270795D01*
X256040Y270666D01*
X256392Y270536D01*
X256706Y270425D01*
X257002Y270314D01*
X257280Y270203D01*
X257539Y270110D01*
X257761Y270036D01*
X257946Y269962D01*
X258113Y269888D01*
X258243Y269851D01*
X258335Y269814D01*
X258391Y269777D01*
X258409D01*
X258705Y269666D01*
X258983Y269555D01*
X259242Y269444D01*
X259483Y269352D01*
X259705Y269259D01*
X259909Y269185D01*
X260075Y269129D01*
X260242Y269074D01*
X260371Y269018D01*
X260501Y268963D01*
X260594Y268926D01*
X260667Y268907D01*
X260779Y268870D01*
X260816Y268852D01*
X261019Y268796D01*
X261186Y268741D01*
X261501Y268667D01*
X261741Y268611D01*
X248544D01*
Y274386D01*
X248562Y274127D01*
D02*
G37*
%LPC*%
G36*
X251172Y348593D02*
D01*
X250931Y348574D01*
X250691Y348556D01*
X250468Y348519D01*
X250283Y348463D01*
X250098Y348408D01*
X249950Y348334D01*
X249821Y348278D01*
X249710Y348204D01*
X249636Y348148D01*
X249580Y348112D01*
X249543Y348093D01*
X249524Y348075D01*
X249339Y347889D01*
X249173Y347667D01*
X249043Y347427D01*
X248914Y347186D01*
X248803Y346927D01*
X248729Y346649D01*
X248599Y346112D01*
X248562Y345872D01*
X248525Y345631D01*
X248506Y345409D01*
X248488Y345224D01*
X248469Y345076D01*
Y348593D01*
D01*
D01*
Y336654D01*
D01*
Y344854D01*
X248488Y344373D01*
X248506Y344113D01*
X248525Y343891D01*
X248544Y343706D01*
X248562Y343540D01*
X248581Y343447D01*
Y343317D01*
X248599Y343188D01*
Y343021D01*
X248618Y342818D01*
Y342373D01*
X248636Y341911D01*
X248655Y341448D01*
Y341041D01*
X248673Y340893D01*
Y340670D01*
X248969D01*
X249302Y340652D01*
X249673Y340597D01*
X250080Y340522D01*
X250505Y340430D01*
X250950Y340319D01*
X251820Y340097D01*
X252245Y339967D01*
X252634Y339856D01*
X252986Y339745D01*
X253300Y339652D01*
X253560Y339578D01*
X253763Y339504D01*
X253837Y339486D01*
X253893Y339467D01*
X253911Y339449D01*
X253930D01*
X254781Y339153D01*
X255596Y338875D01*
X255984Y338727D01*
X256302Y338616D01*
X256355Y338597D01*
X256706Y338468D01*
X257040Y338338D01*
X257336Y338227D01*
X257613Y338135D01*
X257854Y338042D01*
X258058Y337968D01*
X258224Y337913D01*
X258354Y337857D01*
X258428Y337839D01*
X258446Y337820D01*
X258835Y337672D01*
X259205Y337542D01*
X259501Y337413D01*
X259779Y337320D01*
X260020Y337228D01*
X260223Y337154D01*
X260408Y337080D01*
X260538Y337024D01*
X260667Y336987D01*
X260760Y336950D01*
X260834Y336931D01*
X260890Y336913D01*
X260945Y336876D01*
X260964D01*
D01*
X261167Y336802D01*
X261352Y336765D01*
X261519Y336709D01*
X261649Y336691D01*
X261760Y336672D01*
X261834Y336654D01*
X261889D01*
X261908D01*
X262037D01*
X262130Y336691D01*
X262222Y336709D01*
X262278Y336746D01*
X262309Y336765D01*
X262370Y336802D01*
X262389Y336839D01*
X262426Y336931D01*
X262444Y337024D01*
X262481Y337228D01*
X262500Y337302D01*
Y337450D01*
X262481Y337727D01*
X262407Y338024D01*
X262315Y338357D01*
X262210Y338653D01*
D01*
X262204Y338671D01*
X262111Y338949D01*
X262056Y339060D01*
X262019Y339171D01*
X261982Y339264D01*
X261945Y339319D01*
X261926Y339356D01*
Y339375D01*
X261556D01*
X261204Y339393D01*
X260871Y339430D01*
X260594Y339467D01*
X260334Y339504D01*
X260149Y339541D01*
X260075Y339560D01*
X260020Y339578D01*
X260001D01*
X259983D01*
X259594Y339689D01*
X259168Y339801D01*
X258742Y339930D01*
X258335Y340041D01*
X257984Y340152D01*
X257817Y340208D01*
X257687Y340245D01*
X257576Y340282D01*
X257502Y340319D01*
X257447Y340337D01*
X257428D01*
X257410Y340615D01*
X257391Y340819D01*
Y341022D01*
X257428Y341244D01*
X257502Y341485D01*
X257632Y341707D01*
X257817Y341948D01*
X258021Y342170D01*
X258243Y342392D01*
X258724Y342818D01*
X258983Y343003D01*
X259224Y343188D01*
X259446Y343336D01*
X259649Y343465D01*
X259835Y343577D01*
X259964Y343651D01*
X260038Y343706D01*
X260075Y343725D01*
X260408Y343854D01*
X260704Y343984D01*
X260964Y344095D01*
X261186Y344206D01*
X261408Y344299D01*
X261575Y344391D01*
X261741Y344484D01*
X261871Y344558D01*
X261982Y344613D01*
X262074Y344669D01*
X262204Y344761D01*
X262278Y344817D01*
X262296Y344835D01*
X262426Y344983D01*
X262519Y345150D01*
X262574Y345298D01*
X262611Y345428D01*
X262648Y345539D01*
X262667Y345631D01*
Y345705D01*
X262648Y345872D01*
X262593Y346038D01*
X262519Y346223D01*
X262407Y346390D01*
X262278Y346575D01*
X262130Y346742D01*
X261815Y347056D01*
X261519Y347316D01*
X261371Y347427D01*
X261241Y347538D01*
X261130Y347612D01*
X261056Y347667D01*
X261001Y347704D01*
X260982Y347723D01*
X260890Y347501D01*
X260760Y347279D01*
X260575Y347056D01*
X260371Y346834D01*
X260131Y346612D01*
X259872Y346409D01*
X259335Y346001D01*
X259057Y345816D01*
X258798Y345650D01*
X258576Y345483D01*
X258354Y345354D01*
X258187Y345261D01*
X258039Y345187D01*
X257965Y345131D01*
X257928Y345113D01*
X257724Y344983D01*
X257539Y344872D01*
X257373Y344761D01*
X257225Y344650D01*
X257114Y344539D01*
X257002Y344428D01*
X256836Y344261D01*
X256743Y344095D01*
X256688Y343984D01*
X256651Y343910D01*
Y343891D01*
X256429Y344502D01*
X256170Y345057D01*
X255873Y345557D01*
X255559Y346020D01*
X255207Y346427D01*
X254855Y346797D01*
X254504Y347112D01*
X254134Y347408D01*
X253800Y347649D01*
X253467Y347852D01*
X253171Y348019D01*
X252912Y348148D01*
X252690Y348241D01*
X252542Y348315D01*
X252431Y348352D01*
X252394Y348371D01*
X252060Y348463D01*
X251746Y348537D01*
X251449Y348574D01*
X251172Y348593D01*
D02*
G37*
G36*
X249136Y338653D02*
X249025D01*
X248932Y338616D01*
X248840Y338597D01*
X248784Y338560D01*
X248766Y338542D01*
X248747Y338523D01*
X248673Y338412D01*
X248599Y338246D01*
X248562Y338079D01*
X248544Y337894D01*
X248525Y337727D01*
X248506Y337579D01*
D01*
D01*
Y337450D01*
X248618Y335043D01*
Y334784D01*
X248636Y334507D01*
Y334192D01*
X248655Y333859D01*
Y333155D01*
X248673Y332452D01*
Y330805D01*
X249025Y330749D01*
X249432Y330675D01*
X249895Y330564D01*
X250395Y330434D01*
X250931Y330286D01*
X251468Y330138D01*
X252023Y329972D01*
X252560Y329805D01*
X253078Y329639D01*
X253578Y329490D01*
X254022Y329342D01*
X254411Y329213D01*
X254578Y329157D01*
X254726Y329102D01*
X254855Y329065D01*
X254985Y329028D01*
X255059Y328991D01*
X255133Y328972D01*
X255170Y328954D01*
X255188D01*
X255892Y328713D01*
X256595Y328454D01*
X257262Y328213D01*
X257595Y328102D01*
X257891Y327991D01*
X258169Y327880D01*
X258428Y327787D01*
X258650Y327713D01*
X258854Y327639D01*
X259002Y327565D01*
X259131Y327528D01*
X259205Y327510D01*
X259224Y327491D01*
X259612Y327343D01*
X259946Y327214D01*
X260242Y327103D01*
X260501Y327010D01*
X260723Y326918D01*
X260908Y326862D01*
X261056Y326806D01*
X261186Y326751D01*
X261278Y326714D01*
X261352Y326695D01*
X261408Y326677D01*
X261445Y326658D01*
X261482Y326640D01*
X261667Y326584D01*
X261815Y326547D01*
X261945Y326529D01*
X262056Y326510D01*
X262148Y326492D01*
X262204D01*
X262241D01*
X262259D01*
X262352Y326529D01*
X262407Y326603D01*
X262463Y326695D01*
X262481Y326806D01*
X262500Y326899D01*
X262519Y326992D01*
Y327084D01*
X262481Y328176D01*
Y328417D01*
X262463Y328676D01*
Y329268D01*
Y329694D01*
X262519Y331878D01*
D01*
X262500Y332285D01*
X262481Y332619D01*
X262444Y332915D01*
X262389Y333137D01*
X262352Y333303D01*
X262315Y333415D01*
X262296Y333489D01*
X262278Y333507D01*
X262167Y333674D01*
X262056Y333803D01*
X261908Y333914D01*
X261778Y334007D01*
X261649Y334081D01*
X261556Y334137D01*
X261482Y334173D01*
X261463D01*
X261260Y334210D01*
X261038Y334229D01*
X260797D01*
X260575Y334210D01*
X260390Y334173D01*
X260242Y334155D01*
X260131Y334137D01*
X260094Y334118D01*
X260186Y333877D01*
X260260Y333618D01*
X260390Y333044D01*
X260482Y332452D01*
X260538Y331878D01*
X260575Y331601D01*
Y331360D01*
X260594Y331138D01*
X260612Y330953D01*
Y329731D01*
X260594Y329509D01*
Y329268D01*
Y329046D01*
X260026Y329268D01*
D01*
X259742Y329379D01*
X258909Y329676D01*
X258520Y329824D01*
X258150Y329953D01*
X257799Y330083D01*
X257484Y330194D01*
X257169Y330305D01*
X256910Y330397D01*
X256669Y330471D01*
X256466Y330545D01*
X256318Y330601D01*
X256188Y330638D01*
X256114Y330675D01*
X256096D01*
X256077Y331064D01*
Y331804D01*
X256114Y334007D01*
X256096Y334377D01*
X256077Y334673D01*
X256021Y334932D01*
X255966Y335118D01*
X255929Y335266D01*
X255873Y335377D01*
X255855Y335432D01*
X255836Y335451D01*
X255725Y335599D01*
X255596Y335710D01*
X255466Y335802D01*
X255355Y335876D01*
X255244Y335932D01*
X255170Y335969D01*
X255115Y336006D01*
X255096D01*
X254929Y336043D01*
X254763Y336062D01*
X254411Y336080D01*
X254263Y336062D01*
X254134D01*
X254059Y336043D01*
X254022D01*
X254078Y335839D01*
X254115Y335562D01*
X254152Y335266D01*
X254189Y334914D01*
X254207Y334544D01*
X254226Y334137D01*
X254244Y333341D01*
X254263Y332952D01*
Y331341D01*
X250487Y332693D01*
Y332989D01*
X250468Y333266D01*
Y333896D01*
X250450Y334044D01*
Y335006D01*
X250468Y335340D01*
X250487Y335673D01*
X250524Y335950D01*
X250561Y336228D01*
X250598Y336469D01*
X250632Y336654D01*
X250635Y336672D01*
D01*
X250672Y336876D01*
X250709Y337042D01*
X250746Y337191D01*
X250783Y337302D01*
X250820Y337413D01*
X250857Y337487D01*
X250876Y337542D01*
X250894Y337561D01*
Y337579D01*
X250580Y337857D01*
X250302Y338098D01*
X250043Y338264D01*
X249839Y338394D01*
X249673Y338486D01*
X249543Y338560D01*
X249469Y338597D01*
X249450D01*
D01*
X249284Y338634D01*
X249136Y338653D01*
D02*
G37*
G36*
X249191Y315404D02*
X249043D01*
X248951Y315386D01*
X248895Y315367D01*
X248877D01*
X248766Y315275D01*
X248692Y315164D01*
X248636Y315053D01*
X248599Y314923D01*
X248581Y314812D01*
X248562Y314738D01*
Y315404D01*
D01*
Y299671D01*
Y314645D01*
X248581Y314386D01*
X248655Y314090D01*
X248729Y313794D01*
X248840Y313498D01*
X248932Y313239D01*
X249025Y313017D01*
X249062Y312943D01*
X249099Y312887D01*
X249117Y312850D01*
Y312831D01*
X249487Y312868D01*
X249876D01*
X250265D01*
X250598Y312831D01*
X250913Y312794D01*
X251042Y312776D01*
X251153Y312757D01*
X251227Y312739D01*
X251302D01*
X251339Y312720D01*
X251357D01*
X251616Y312665D01*
X251894Y312591D01*
X252190Y312517D01*
X252523Y312424D01*
X253189Y312221D01*
X253856Y312017D01*
X254170Y311925D01*
X254467Y311832D01*
X254726Y311739D01*
X254948Y311665D01*
X255152Y311610D01*
X255281Y311554D01*
X255374Y311536D01*
X255411Y311517D01*
X255707Y311425D01*
X256003Y311314D01*
X256632Y311091D01*
X257262Y310869D01*
X257873Y310666D01*
X258150Y310555D01*
X258391Y310462D01*
X258631Y310388D01*
X258817Y310314D01*
X258983Y310259D01*
X259094Y310222D01*
X259187Y310203D01*
X259205Y310185D01*
X252893Y307038D01*
X250376Y305779D01*
X250172Y305668D01*
X249987Y305575D01*
X249821Y305483D01*
X249673Y305409D01*
X249432Y305261D01*
X249247Y305168D01*
X249117Y305076D01*
X249043Y305020D01*
X249006Y305002D01*
X248988Y304983D01*
X248858Y304835D01*
X248766Y304724D01*
X248729Y304650D01*
X248710Y304613D01*
X248673Y304483D01*
X248655Y304354D01*
Y304224D01*
X248673Y304095D01*
X248710Y303947D01*
X248766Y303780D01*
X248840Y303613D01*
X249025Y303299D01*
X249228Y302984D01*
X249450Y302707D01*
X249543Y302577D01*
X249636Y302466D01*
X249710Y302392D01*
X249765Y302318D01*
X249802Y302281D01*
X249821Y302262D01*
X249969Y302429D01*
X250135Y302540D01*
X250320Y302614D01*
X250505Y302670D01*
X250672Y302707D01*
X250802Y302725D01*
X250894D01*
X250931D01*
X251079Y302707D01*
X251246Y302688D01*
X251635Y302614D01*
X252042Y302521D01*
X252449Y302410D01*
X252819Y302299D01*
X252967Y302244D01*
X253115Y302207D01*
X253226Y302170D01*
X253319Y302133D01*
X253375Y302114D01*
X253393D01*
X254059Y301892D01*
X254670Y301670D01*
X255244Y301466D01*
X255781Y301281D01*
X256281Y301096D01*
X256743Y300929D01*
X257151Y300763D01*
X257521Y300633D01*
X257854Y300504D01*
X258132Y300393D01*
X258372Y300282D01*
X258576Y300208D01*
X258724Y300152D01*
X258835Y300097D01*
X258909Y300078D01*
X258928Y300060D01*
X259279Y299911D01*
X259594Y299745D01*
X259909Y299597D01*
X260186Y299449D01*
X260464Y299301D01*
X260704Y299153D01*
X260927Y299005D01*
X261130Y298875D01*
X261297Y298745D01*
X261463Y298634D01*
X261593Y298542D01*
X261686Y298468D01*
X261778Y298394D01*
X261834Y298338D01*
X261871Y298320D01*
X261889Y298301D01*
X262093Y298579D01*
X262259Y298838D01*
X262370Y299078D01*
X262444Y299319D01*
X262481Y299504D01*
X262500Y299652D01*
X262504Y299671D01*
X262519Y299745D01*
Y299782D01*
X262500Y300023D01*
X262463Y300226D01*
X262407Y300393D01*
X262333Y300541D01*
X262259Y300652D01*
X262204Y300744D01*
X262167Y300781D01*
X262148Y300800D01*
X261982Y300929D01*
X261778Y301059D01*
X261334Y301281D01*
X261130Y301374D01*
X260964Y301429D01*
X260853Y301466D01*
X260834Y301485D01*
X260816D01*
X260760Y301503D01*
X260667Y301540D01*
X260519Y301577D01*
X260334Y301633D01*
X260131Y301707D01*
X259890Y301763D01*
X259390Y301929D01*
X258891Y302077D01*
X258668Y302151D01*
X258465Y302207D01*
X258280Y302262D01*
X258150Y302299D01*
X258076Y302336D01*
X258039D01*
X257021Y302651D01*
X256003Y302984D01*
X255522Y303151D01*
X255041Y303299D01*
X254578Y303447D01*
X254152Y303595D01*
X253745Y303725D01*
X253393Y303854D01*
X253060Y303947D01*
X252782Y304039D01*
X252560Y304113D01*
X252394Y304169D01*
X252301Y304206D01*
X252264Y304224D01*
X252579Y304354D01*
X252930Y304521D01*
X253319Y304706D01*
X253708Y304891D01*
X254541Y305298D01*
X255374Y305705D01*
X255762Y305909D01*
X256114Y306075D01*
X256447Y306242D01*
X256725Y306390D01*
X256965Y306520D01*
X257151Y306612D01*
X257262Y306668D01*
X257280Y306686D01*
X257299D01*
X257928Y307019D01*
X258520Y307334D01*
X259076Y307630D01*
X259594Y307926D01*
X260057Y308204D01*
X260501Y308445D01*
X260890Y308685D01*
X261260Y308889D01*
X261575Y309092D01*
X261834Y309259D01*
X262074Y309407D01*
X262259Y309537D01*
X262426Y309629D01*
X262519Y309703D01*
X262593Y309740D01*
X262611Y309759D01*
D01*
X262000Y311203D01*
X261297Y311369D01*
X260575Y311554D01*
X259872Y311758D01*
X259520Y311869D01*
X259187Y311962D01*
X258891Y312072D01*
X258613Y312147D01*
X258354Y312239D01*
X258150Y312313D01*
X257965Y312369D01*
X257836Y312406D01*
X257761Y312443D01*
X257724D01*
X256873Y312739D01*
X256059Y313017D01*
X255688Y313165D01*
X255318Y313294D01*
X254966Y313424D01*
X254652Y313535D01*
X254356Y313646D01*
X254097Y313757D01*
X253856Y313831D01*
X253671Y313905D01*
X253504Y313979D01*
X253393Y314016D01*
X253319Y314053D01*
X253300D01*
X252912Y314201D01*
X252560Y314331D01*
X252245Y314460D01*
X251968Y314571D01*
X251709Y314664D01*
X251468Y314756D01*
X251264Y314830D01*
X251098Y314886D01*
X250950Y314942D01*
X250820Y314997D01*
X250709Y315034D01*
X250635Y315053D01*
X250561Y315090D01*
X250524D01*
X250487Y315108D01*
X250246Y315182D01*
X250043Y315256D01*
X249858Y315312D01*
X249673Y315349D01*
X249524Y315367D01*
X249395Y315386D01*
X249191Y315404D01*
D02*
G37*
G36*
X249506Y299671D02*
X249487D01*
X249469D01*
X249302D01*
X249154Y299652D01*
X249025Y299615D01*
X248914Y299578D01*
X248747Y299430D01*
X248618Y299282D01*
X248562Y299115D01*
X248525Y298968D01*
X248506Y298856D01*
Y298819D01*
X248544Y298542D01*
X248562Y298468D01*
D01*
X248604Y298301D01*
D01*
X248618Y298246D01*
X248729Y297949D01*
X248858Y297653D01*
X248988Y297376D01*
X249099Y297172D01*
X249136Y297079D01*
X249173Y297024D01*
X249210Y296987D01*
Y296968D01*
X249487Y297042D01*
X249821Y297079D01*
X250191D01*
X250598Y297042D01*
X251042Y296987D01*
X251486Y296913D01*
X252394Y296728D01*
X252838Y296617D01*
X253245Y296506D01*
X253615Y296395D01*
X253948Y296284D01*
X254226Y296210D01*
X254337Y296172D01*
X254430Y296135D01*
X254504Y296117D01*
X254559Y296098D01*
X254596Y296080D01*
X254615D01*
X255207Y295876D01*
X255762Y295654D01*
X256281Y295432D01*
X256762Y295210D01*
X257188Y294988D01*
X257576Y294784D01*
X257928Y294581D01*
X258243Y294395D01*
X258502Y294210D01*
X258742Y294044D01*
X258928Y293896D01*
X259094Y293766D01*
X259224Y293674D01*
X259298Y293600D01*
X259353Y293544D01*
X259372Y293526D01*
X259631Y293248D01*
X259853Y292970D01*
X260038Y292674D01*
X260205Y292378D01*
X260353Y292082D01*
X260464Y291786D01*
X260556Y291508D01*
X260630Y291230D01*
X260686Y290971D01*
X260742Y290749D01*
X260779Y290545D01*
X260797Y290360D01*
Y290212D01*
X260816Y290101D01*
Y290009D01*
X260797Y289675D01*
X260760Y289379D01*
X260704Y289120D01*
X260630Y288879D01*
X260556Y288676D01*
X260445Y288491D01*
X260353Y288343D01*
X260242Y288213D01*
X260131Y288102D01*
X260038Y288028D01*
X259853Y287898D01*
X259779Y287861D01*
X259723Y287843D01*
X259686Y287824D01*
X259668D01*
X259427Y287787D01*
X259168Y287750D01*
X258891Y287769D01*
X258576Y287787D01*
X257946Y287861D01*
X257317Y287991D01*
X257021Y288065D01*
X256762Y288139D01*
X256503Y288195D01*
X256281Y288269D01*
X256114Y288324D01*
X255966Y288361D01*
X255892Y288380D01*
X255855Y288398D01*
X255337Y288583D01*
X254781Y288787D01*
X254244Y288972D01*
X253763Y289157D01*
X253523Y289250D01*
X253319Y289324D01*
X253134Y289398D01*
X252986Y289472D01*
X252856Y289509D01*
X252745Y289546D01*
X252690Y289583D01*
X252671D01*
X252338Y289713D01*
X252042Y289842D01*
X251764Y289935D01*
X251505Y290046D01*
X251302Y290120D01*
X251098Y290194D01*
X250931Y290268D01*
X250765Y290323D01*
X250654Y290379D01*
X250542Y290416D01*
X250450Y290434D01*
X250376Y290471D01*
X250283Y290508D01*
X250265D01*
X249895Y290638D01*
X249580Y290712D01*
X249339Y290768D01*
X249136Y290786D01*
X249006D01*
X248914D01*
X248858Y290768D01*
X248840D01*
X248729Y290693D01*
X248655Y290582D01*
X248581Y290453D01*
X248544Y290323D01*
X248525Y290194D01*
X248506Y290083D01*
Y289972D01*
X248525Y289675D01*
X248599Y289361D01*
X248692Y289046D01*
X248803Y288731D01*
X248914Y288454D01*
X249006Y288250D01*
X249043Y288158D01*
X249080Y288102D01*
X249099Y288065D01*
Y288047D01*
X249321Y288065D01*
X249580D01*
X249858Y288047D01*
X250154Y288010D01*
X250765Y287917D01*
X251357Y287769D01*
X251653Y287695D01*
X251912Y287621D01*
X252153Y287565D01*
X252357Y287491D01*
X252542Y287436D01*
X252671Y287399D01*
X252745Y287380D01*
X252782Y287362D01*
X253412Y287140D01*
X253708Y287029D01*
X253967Y286917D01*
X254207Y286825D01*
X254393Y286769D01*
X254467Y286732D01*
X254522Y286714D01*
X254541Y286695D01*
X254559D01*
X254911Y286566D01*
X255226Y286436D01*
X255522Y286325D01*
X255781Y286233D01*
X256003Y286158D01*
X256151Y286103D01*
X256262Y286066D01*
X256281Y286048D01*
X256299D01*
X256910Y285844D01*
X257484Y285696D01*
X258002Y285566D01*
X258502Y285492D01*
X258946Y285418D01*
X259353Y285381D01*
X259705Y285363D01*
X260316D01*
X260556Y285400D01*
X260760Y285418D01*
X260927Y285455D01*
X261056Y285474D01*
X261149Y285511D01*
X261204Y285529D01*
X261223D01*
X261482Y285677D01*
X261723Y285862D01*
X261926Y286103D01*
X262093Y286362D01*
X262241Y286640D01*
X262370Y286936D01*
X262463Y287251D01*
X262556Y287565D01*
X262611Y287861D01*
X262667Y288158D01*
X262685Y288417D01*
X262722Y288657D01*
Y288843D01*
X262741Y288991D01*
Y289120D01*
X262722Y289750D01*
X262648Y290342D01*
X262519Y290916D01*
X262370Y291434D01*
X262204Y291934D01*
X262000Y292396D01*
X261797Y292822D01*
X261575Y293229D01*
X261371Y293563D01*
X261167Y293877D01*
X260964Y294136D01*
X260779Y294358D01*
X260649Y294544D01*
X260519Y294655D01*
X260445Y294747D01*
X260427Y294766D01*
X259964Y295173D01*
X259446Y295580D01*
X258872Y295969D01*
X258280Y296339D01*
X257669Y296691D01*
X257058Y297005D01*
X256429Y297320D01*
X255836Y297598D01*
X255263Y297857D01*
X254726Y298079D01*
X254226Y298283D01*
X254173Y298301D01*
D01*
X253907Y298394D01*
X253800Y298431D01*
X253615Y298505D01*
X253449Y298579D01*
X253319Y298616D01*
X253189Y298671D01*
X253097Y298708D01*
X253023Y298727D01*
X252986Y298745D01*
X252967D01*
X252505Y298893D01*
X252097Y299042D01*
X251709Y299153D01*
X251357Y299264D01*
X251024Y299338D01*
X250746Y299430D01*
X250487Y299486D01*
X250265Y299541D01*
X250080Y299578D01*
X249913Y299615D01*
X249765Y299634D01*
X249654Y299652D01*
X249580D01*
X249506Y299671D01*
D02*
G37*
%LPD*%
G36*
X252023Y346186D02*
X252264Y346168D01*
X252468Y346131D01*
X252542Y346112D01*
X252597Y346094D01*
X252634Y346075D01*
X252653D01*
X252912Y345964D01*
X253171Y345853D01*
X253634Y345576D01*
X254041Y345280D01*
X254374Y344983D01*
X254652Y344706D01*
X254744Y344576D01*
X254837Y344484D01*
X254911Y344391D01*
X254966Y344317D01*
X254985Y344280D01*
X255003Y344261D01*
X255152Y344021D01*
X255281Y343762D01*
X255503Y343225D01*
X255651Y342707D01*
X255762Y342225D01*
X255799Y342003D01*
X255818Y341800D01*
X255855Y341633D01*
Y341466D01*
X255873Y341337D01*
Y340856D01*
X255429Y341004D01*
X254966Y341170D01*
X254041Y341503D01*
X253115Y341837D01*
X252690Y341985D01*
X252264Y342151D01*
X251875Y342281D01*
X251524Y342429D01*
X251209Y342540D01*
X250931Y342633D01*
X250709Y342725D01*
X250542Y342781D01*
X250450Y342818D01*
X250413Y342836D01*
X250339Y343280D01*
X250320Y343502D01*
X250302Y343688D01*
X250283Y343854D01*
Y344076D01*
X250302Y344521D01*
X250376Y344909D01*
X250487Y345224D01*
X250598Y345483D01*
X250709Y345668D01*
X250820Y345798D01*
X250894Y345890D01*
X250913Y345909D01*
X251042Y346001D01*
X251172Y346075D01*
X251449Y346168D01*
X251746Y346205D01*
X252023Y346186D01*
D02*
G37*
D10*
X269047Y237000D02*
G03*
X269047Y237000I-21654J0D01*
G01*
X156352Y116456D02*
G03*
X156300Y110600I3492J-2959D01*
G01*
X167448Y110544D02*
G03*
X167500Y116400I-3492J2959D01*
G01*
X155578Y127294D02*
G03*
X155470Y118490I4494J-4458D01*
G01*
X168640Y118540D02*
G03*
X168736Y127357I-4494J4458D01*
G01*
X156952Y145956D02*
G03*
X156900Y140100I3492J-2959D01*
G01*
X168048Y140044D02*
G03*
X168100Y145900I-3492J2959D01*
G01*
X155578Y138294D02*
G03*
X155470Y129490I4494J-4458D01*
G01*
X168640Y129540D02*
G03*
X168736Y138357I-4494J4458D01*
G01*
X344366Y89618D02*
G03*
X349412Y86645I4309J1545D01*
G01*
X355034Y96271D02*
G03*
X349989Y99244I-4309J-1545D01*
G01*
X364866Y78118D02*
G03*
X369912Y75145I4309J1545D01*
G01*
X375534Y84771D02*
G03*
X370489Y87744I-4309J-1545D01*
G01*
X380416Y69142D02*
G03*
X385461Y66169I4309J1545D01*
G01*
X391084Y75796D02*
G03*
X386038Y78769I-4309J-1545D01*
G01*
X123536Y88814D02*
G03*
X118438Y85931I-817J-4504D01*
G01*
X123964Y76249D02*
G03*
X129061Y79131I817J4504D01*
G01*
X102986Y76838D02*
G03*
X97888Y73955I-817J-4504D01*
G01*
X103414Y64273D02*
G03*
X108511Y67156I817J4504D01*
G01*
X88986Y69338D02*
G03*
X83889Y66455I-817J-4504D01*
G01*
X89414Y56773D02*
G03*
X94511Y59656I817J4504D01*
G01*
X241548Y274044D02*
G03*
X241600Y279900I-3492J2959D01*
G01*
X230452Y279956D02*
G03*
X230400Y274100I3492J-2959D01*
G01*
X241548Y299044D02*
G03*
X241600Y304900I-3492J2959D01*
G01*
X230452Y304956D02*
G03*
X230400Y299100I3492J-2959D01*
G01*
X241548Y314544D02*
G03*
X241600Y320400I-3492J2959D01*
G01*
X230452Y320456D02*
G03*
X230400Y314600I3492J-2959D01*
G01*
X179452Y126456D02*
G03*
X179400Y120600I3492J-2959D01*
G01*
X190548Y120544D02*
G03*
X190600Y126400I-3492J2959D01*
G01*
X205048Y90544D02*
G03*
X205100Y96400I-3492J2959D01*
G01*
X193952Y96456D02*
G03*
X193900Y90600I3492J-2959D01*
G01*
X193952Y103956D02*
G03*
X193900Y98100I3492J-2959D01*
G01*
X205048Y98044D02*
G03*
X205100Y103900I-3492J2959D01*
G01*
X205048Y105544D02*
G03*
X205100Y111400I-3492J2959D01*
G01*
X193952Y111456D02*
G03*
X193900Y105600I3492J-2959D01*
G01*
X205048Y113044D02*
G03*
X205100Y118900I-3492J2959D01*
G01*
X193952Y118956D02*
G03*
X193900Y113100I3492J-2959D01*
G01*
X205048Y120544D02*
G03*
X205100Y126400I-3492J2959D01*
G01*
X193952Y126456D02*
G03*
X193900Y120600I3492J-2959D01*
G01*
X274500Y181500D02*
G03*
X272000Y179500I-250J-2250D01*
G01*
X277000D02*
G03*
X274500Y181500I-2250J-250D01*
G01*
X272000Y173000D02*
G03*
X274500Y171000I2250J250D01*
G01*
Y171000D02*
G03*
X277000Y173000I250J2250D01*
G01*
X282000Y181500D02*
G03*
X279500Y179500I-250J-2250D01*
G01*
X284500D02*
G03*
X282000Y181500I-2250J-250D01*
G01*
X279500Y173000D02*
G03*
X282000Y171000I2250J250D01*
G01*
Y171000D02*
G03*
X284500Y173000I250J2250D01*
G01*
X328500Y82830D02*
G03*
X325335Y82348I-1342J-1824D01*
G01*
X329665Y79848D02*
G03*
X328500Y82830I-2074J908D01*
G01*
X322085Y76719D02*
G03*
X323250Y73737I2074J-908D01*
G01*
Y73737D02*
G03*
X326415Y74219I1342J1824D01*
G01*
X137500Y121330D02*
G03*
X136335Y118348I908J-2074D01*
G01*
X140665Y120848D02*
G03*
X137500Y121330I-1824J-1342D01*
G01*
X139585Y112719D02*
G03*
X142750Y112237I1823J1342D01*
G01*
Y112237D02*
G03*
X143915Y115219I-908J2074D01*
G01*
X239500Y92000D02*
G03*
X239500Y92000I-8000J0D01*
G01*
X259500Y92000D02*
G03*
X259500Y92000I-8000J0D01*
G01*
X205350Y163000D02*
G03*
X187650Y163000I-8850J0D01*
G01*
Y138200D02*
G03*
X205350Y138200I8850J0D01*
G01*
X410118Y77634D02*
G03*
X407145Y72588I1545J-4309D01*
G01*
X416771Y66966D02*
G03*
X419744Y72012I-1545J4309D01*
G01*
X81814Y40464D02*
G03*
X78931Y45562I-4504J817D01*
G01*
X69249Y40036D02*
G03*
X72131Y34938I4504J-817D01*
G01*
X222544Y337452D02*
G03*
X228400Y337400I2959J3492D01*
G01*
X228456Y348548D02*
G03*
X222600Y348600I-2959J-3492D01*
G01*
X452949Y39500D02*
G03*
X452949Y39500I-19449J0D01*
G01*
X58803Y39538D02*
G03*
X58803Y39538I-19449J0D01*
G01*
X255653Y380493D02*
G03*
X255653Y380493I-19449J0D01*
G01*
X262505D02*
G03*
X262505Y380493I-26300J0D01*
G01*
X460617Y39538D02*
G03*
X460617Y39538I-27562J0D01*
G01*
X64582D02*
G03*
X64582Y39538I-25228J0D01*
G01*
X268000Y153000D02*
Y159000D01*
X280900Y153000D02*
Y159100D01*
X268000Y153000D02*
X272700D01*
X268000Y159000D02*
X272700D01*
X276200Y159100D02*
X280900D01*
X276200Y153000D02*
X280900D01*
X163700Y116500D02*
X167400D01*
X163700Y110500D02*
X167400D01*
X156400D02*
X160200D01*
X156500Y116500D02*
X160200D01*
X163770Y127490D02*
X168590D01*
X163770Y118490D02*
X168500D01*
X155770Y127490D02*
X160470D01*
X155560Y118490D02*
X160470D01*
X164300Y146000D02*
X168000D01*
X164300Y140000D02*
X168000D01*
X157000D02*
X160800D01*
X157100Y146000D02*
X160800D01*
X163770Y138490D02*
X168590D01*
X163770Y129490D02*
X168500D01*
X155770Y138490D02*
X160470D01*
X155560Y129490D02*
X160470D01*
X269755Y122700D02*
X297755D01*
X269755Y137700D02*
X297755D01*
X269755Y122700D02*
Y137700D01*
X297755Y122700D02*
Y137700D01*
X358352Y96074D02*
X363548Y93074D01*
X351902Y84902D02*
X357185Y81852D01*
X356002Y92003D02*
X358352Y96074D01*
X361198Y89003D02*
X363548Y93074D01*
X357185Y81852D02*
X359535Y85922D01*
X351902Y84902D02*
X354252Y88972D01*
X348002Y96003D02*
X349852Y99208D01*
X353198Y93003D02*
X355048Y96208D01*
X349548Y86681D02*
X351448Y89972D01*
X344402Y89768D02*
X346252Y92972D01*
X368502Y84503D02*
X370352Y87708D01*
X373698Y81503D02*
X375548Y84708D01*
X370048Y75181D02*
X371948Y78472D01*
X364902Y78268D02*
X366752Y81472D01*
X384052Y75528D02*
X385902Y78732D01*
X389248Y72528D02*
X391098Y75732D01*
X385598Y66206D02*
X387498Y69497D01*
X380452Y69292D02*
X382302Y72497D01*
X341352Y105574D02*
X346548Y102574D01*
X334902Y94402D02*
X340185Y91352D01*
X339002Y101503D02*
X341352Y105574D01*
X344198Y98503D02*
X346548Y102574D01*
X340185Y91352D02*
X342535Y95422D01*
X334902Y94402D02*
X337252Y98472D01*
X372402Y72902D02*
X377598Y69902D01*
X378765Y84124D02*
X384048Y81074D01*
X377598Y69902D02*
X379948Y73972D01*
X372402Y72902D02*
X374752Y76972D01*
X376415Y80053D02*
X378765Y84124D01*
X381698Y77003D02*
X384048Y81074D01*
X321952Y117426D02*
X327148Y114426D01*
X328315Y128648D02*
X333598Y125598D01*
X327148Y114426D02*
X329498Y118497D01*
X321952Y117426D02*
X324302Y121497D01*
X325965Y124578D02*
X328315Y128648D01*
X331248Y121528D02*
X333598Y125598D01*
X115852Y70926D02*
X121048Y73926D01*
X109315Y82048D02*
X114598Y85098D01*
X118698Y77997D02*
X121048Y73926D01*
X113502Y74997D02*
X115852Y70926D01*
X109315Y82048D02*
X111665Y77978D01*
X114598Y85098D02*
X116948Y81028D01*
X127248Y82472D02*
X129098Y79268D01*
X122052Y79472D02*
X123902Y76268D01*
X118402Y85794D02*
X120302Y82503D01*
X123648Y88708D02*
X125498Y85503D01*
X106698Y70497D02*
X108548Y67292D01*
X101502Y67497D02*
X103352Y64292D01*
X97852Y73819D02*
X99752Y70528D01*
X103098Y76732D02*
X104948Y73528D01*
X92698Y62997D02*
X94548Y59792D01*
X87502Y59997D02*
X89352Y56792D01*
X83852Y66319D02*
X85752Y63028D01*
X89098Y69232D02*
X90948Y66028D01*
X133352Y80926D02*
X138548Y83926D01*
X126815Y92048D02*
X132098Y95098D01*
X136198Y87997D02*
X138548Y83926D01*
X131002Y84997D02*
X133352Y80926D01*
X126815Y92048D02*
X129165Y87978D01*
X132098Y95098D02*
X134448Y91028D01*
X90402Y70598D02*
X95598Y73598D01*
X96852Y59426D02*
X102135Y62476D01*
X90402Y70598D02*
X92752Y66528D01*
X95598Y73598D02*
X97948Y69528D01*
X99785Y66547D02*
X102135Y62476D01*
X94502Y63497D02*
X96852Y59426D01*
X135902Y96598D02*
X141098Y99598D01*
X142352Y85426D02*
X147635Y88476D01*
X135902Y96598D02*
X138252Y92528D01*
X141098Y99598D02*
X143448Y95528D01*
X145285Y92547D02*
X147635Y88476D01*
X140002Y89497D02*
X142352Y85426D01*
X229367Y263500D02*
Y269500D01*
X242267Y263500D02*
Y269600D01*
X229367Y263500D02*
X234067D01*
X229367Y269500D02*
X234067D01*
X237567Y269600D02*
X242267D01*
X237567Y263500D02*
X242267D01*
X230500Y274000D02*
X234200D01*
X230500Y280000D02*
X234200D01*
X237700D02*
X241500D01*
X237700Y274000D02*
X241400D01*
X242267Y307000D02*
Y313000D01*
X229367Y306900D02*
Y313000D01*
X237567D02*
X242267D01*
X237567Y307000D02*
X242267D01*
X229367Y306900D02*
X234067D01*
X229367Y313000D02*
X234067D01*
X223900Y245000D02*
Y251000D01*
X211000Y244900D02*
Y251000D01*
X219200D02*
X223900D01*
X219200Y245000D02*
X223900D01*
X211000Y244900D02*
X215700D01*
X211000Y251000D02*
X215700D01*
X229367Y284500D02*
Y290500D01*
X242267Y284500D02*
Y290600D01*
X229367Y284500D02*
X234067D01*
X229367Y290500D02*
X234067D01*
X237567Y290600D02*
X242267D01*
X237567Y284500D02*
X242267D01*
X230500Y299000D02*
X234200D01*
X230500Y305000D02*
X234200D01*
X237700D02*
X241500D01*
X237700Y299000D02*
X241400D01*
X230500Y314500D02*
X234200D01*
X230500Y320500D02*
X234200D01*
X237700D02*
X241500D01*
X237700Y314500D02*
X241400D01*
X186800Y126500D02*
X190500D01*
X186800Y120500D02*
X190500D01*
X179500D02*
X183300D01*
X179600Y126500D02*
X183300D01*
X183500Y90500D02*
X189500D01*
X183400Y103400D02*
X189500D01*
Y90500D02*
Y95200D01*
X183500Y90500D02*
Y95200D01*
X183400Y98700D02*
Y103400D01*
X189500Y98700D02*
Y103400D01*
X170000Y77500D02*
X172000D01*
X160000D02*
X161800D01*
X170100Y97500D02*
X172000D01*
X160000D02*
X161800D01*
X172000Y77500D02*
Y97500D01*
X160000Y77500D02*
Y97500D01*
X194000Y90500D02*
X197700D01*
X194000Y96500D02*
X197700D01*
X201200D02*
X205000D01*
X201200Y90500D02*
X204900D01*
X201300Y104000D02*
X205000D01*
X201300Y98000D02*
X205000D01*
X194000D02*
X197800D01*
X194100Y104000D02*
X197800D01*
X194000Y105500D02*
X197700D01*
X194000Y111500D02*
X197700D01*
X201200D02*
X205000D01*
X201200Y105500D02*
X204900D01*
X194000Y113000D02*
X197700D01*
X194000Y119000D02*
X197700D01*
X201200D02*
X205000D01*
X201200Y113000D02*
X204900D01*
X194000Y120500D02*
X197700D01*
X194000Y126500D02*
X197700D01*
X201200D02*
X205000D01*
X201200Y120500D02*
X204900D01*
X265000Y187000D02*
X271000D01*
X264900Y199900D02*
X271000D01*
Y187000D02*
Y191700D01*
X265000Y187000D02*
Y191700D01*
X264900Y195200D02*
Y199900D01*
X271000Y195200D02*
Y199900D01*
X273000Y187000D02*
X279000D01*
X272900Y199900D02*
X279000D01*
Y187000D02*
Y191700D01*
X273000Y187000D02*
Y191700D01*
X272900Y195200D02*
Y199900D01*
X279000Y195200D02*
Y199900D01*
X193500Y179500D02*
X202000D01*
Y205000D01*
X193500D02*
X202000D01*
X193500Y179500D02*
Y205000D01*
X272000Y173000D02*
Y179500D01*
X277000Y173000D02*
Y179500D01*
X279500Y173000D02*
Y179500D01*
X284500Y173000D02*
Y179500D01*
X322085Y76719D02*
X325335Y82348D01*
X326415Y74219D02*
X329665Y79848D01*
X136335Y118348D02*
X139585Y112719D01*
X140665Y120848D02*
X143915Y115219D01*
X274516Y73843D02*
X308016Y73843D01*
X274516Y103842D02*
X274516Y73843D01*
X274516Y103842D02*
X309516D01*
X309516Y73843D01*
X308016Y73843D02*
X309516Y73843D01*
X221500Y79795D02*
X261500D01*
X261500Y104205D02*
X261500Y74283D01*
X221500Y104205D02*
X221500Y74283D01*
X221500Y104205D02*
X261500D01*
X221500Y74283D02*
X261500D01*
X223500Y92000D02*
X225000Y92000D01*
X238000Y92000D02*
X239500D01*
X243500D02*
X245000D01*
X258000Y92000D02*
X259500Y92000D01*
X187650Y138200D02*
Y163000D01*
X205350Y138200D02*
Y163000D01*
X416503Y73998D02*
X419708Y72148D01*
X413503Y68802D02*
X416708Y66952D01*
X407181Y72452D02*
X410472Y70552D01*
X410268Y77598D02*
X413472Y75748D01*
X72268Y34902D02*
X75472Y36752D01*
X69268Y40098D02*
X72472Y41948D01*
X75503Y43698D02*
X78794Y45598D01*
X78503Y38502D02*
X81708Y40352D01*
X222500Y344800D02*
Y348500D01*
X228500Y344800D02*
Y348500D01*
Y337500D02*
Y341300D01*
X222500Y337600D02*
Y341300D01*
D11*
X176965Y102543D02*
G03*
X175390Y100969I0J-1575D01*
G01*
X181610Y100969D02*
G03*
X180035Y102543I-1575J-0D01*
G01*
X180035Y90457D02*
G03*
X181610Y92032I0J1575D01*
G01*
X175390D02*
G03*
X176965Y90457I1575J0D01*
G01*
X190543Y178035D02*
G03*
X188969Y179610I-1575J0D01*
G01*
X188969Y173390D02*
G03*
X190543Y174965I-0J1575D01*
G01*
X178457Y174965D02*
G03*
X180032Y173390I1575J0D01*
G01*
Y179610D02*
G03*
X178457Y178035I0J-1575D01*
G01*
X207535Y182957D02*
G03*
X209110Y184531I0J1575D01*
G01*
X202890Y184531D02*
G03*
X204465Y182957I1575J0D01*
G01*
X204465Y195043D02*
G03*
X202890Y193468I0J-1575D01*
G01*
X209110D02*
G03*
X207535Y195043I-1575J-0D01*
G01*
X183035Y157988D02*
G03*
X184610Y159563I0J1575D01*
G01*
X178390Y159563D02*
G03*
X179965Y157988I1575J0D01*
G01*
X179965Y170075D02*
G03*
X178390Y168500I0J-1575D01*
G01*
X184610D02*
G03*
X183035Y170075I-1575J-0D01*
G01*
X179965Y142543D02*
G03*
X178390Y140969I0J-1575D01*
G01*
X184610Y140969D02*
G03*
X183035Y142543I-1575J-0D01*
G01*
X183035Y130457D02*
G03*
X184610Y132032I0J1575D01*
G01*
X178390D02*
G03*
X179965Y130457I1575J0D01*
G01*
X253693Y225189D02*
X261567D01*
X257630Y221646D02*
Y228732D01*
X175390Y92032D02*
Y94925D01*
X176965Y102543D02*
X180035D01*
X176965Y90457D02*
X180035D01*
X175390Y98075D02*
Y100969D01*
X181610Y98075D02*
Y100969D01*
X181610Y92032D02*
Y94925D01*
X180032Y179610D02*
X182925D01*
X190543Y174965D02*
Y178035D01*
X178457Y174965D02*
Y178035D01*
X186075Y179610D02*
X188969D01*
X186075Y173390D02*
X188969D01*
X180032Y173390D02*
X182925D01*
X209110Y190575D02*
Y193468D01*
X204465Y182957D02*
X207535D01*
X204465Y195043D02*
X207535D01*
X209110Y184531D02*
Y187425D01*
X202890Y184531D02*
Y187425D01*
X202890Y190575D02*
Y193468D01*
X313812Y135795D02*
X321472Y142223D01*
X288100Y166437D02*
X313812Y135795D01*
X295760Y172865D02*
X321472Y142223D01*
X288100Y166437D02*
X295760Y172865D01*
X177500Y74500D02*
Y84500D01*
X217500D01*
X177500Y74500D02*
X217500D01*
Y84500D01*
X364651Y50670D02*
X369651Y59330D01*
X330010Y70670D02*
X364651Y50670D01*
X335010Y79330D02*
X369651Y59330D01*
X330010Y70670D02*
X335010Y79330D01*
X96010Y97830D02*
X101010Y89170D01*
X96010Y97830D02*
X130651Y117830D01*
X101010Y89170D02*
X135651Y109170D01*
X130651Y117830D02*
X135651Y109170D01*
X184610Y165606D02*
Y168500D01*
X179965Y157988D02*
X183035D01*
X179965Y170075D02*
X183035D01*
X184610Y159563D02*
Y162457D01*
X178390Y159563D02*
Y162457D01*
X178390Y165606D02*
Y168500D01*
Y132032D02*
Y134925D01*
X179965Y142543D02*
X183035D01*
X179965Y130457D02*
X183035D01*
X178390Y138075D02*
Y140969D01*
X184610Y138075D02*
Y140969D01*
X184610Y132032D02*
Y134925D01*
X184610Y152075D02*
Y156543D01*
Y144457D02*
Y148925D01*
X178390Y152075D02*
Y156543D01*
Y144457D02*
X184610D01*
X178390Y156543D02*
X184610D01*
X178390Y144457D02*
Y148925D01*
X221268Y149768D02*
Y183232D01*
X254732Y149768D02*
Y183232D01*
X221268D02*
X254732D01*
X221268Y149768D02*
X254732D01*
X206500Y202500D02*
Y212500D01*
X276500D01*
Y202500D02*
Y212500D01*
X206500Y202500D02*
X276500D01*
X261000Y111500D02*
Y131500D01*
X221000Y111500D02*
Y131500D01*
X261000D01*
X221000Y111500D02*
X261000D01*
D12*
X215362Y183823D02*
G03*
X215362Y183823I-591J0D01*
G01*
D13*
X226091Y179492D02*
G03*
X226091Y179492I-1181J0D01*
G01*
D14*
X266039Y75185D02*
Y76185D01*
X273039Y75185D02*
Y76185D01*
X326905Y128708D02*
X327404Y129574D01*
X320842Y132208D02*
X321342Y133073D01*
X149910Y89832D02*
X150410Y88966D01*
X155973Y93332D02*
X156473Y92466D01*
X208185Y243461D02*
X209185D01*
X208185Y236461D02*
X209185D01*
D15*
X266039Y76185D02*
X273039D01*
Y80185D01*
X266039Y75185D02*
X273039D01*
Y86185D02*
Y90386D01*
X266039D02*
X273039D01*
X266039Y76185D02*
Y80185D01*
Y86185D02*
Y90185D01*
X320842Y132208D02*
X326905Y128708D01*
X318842Y128743D02*
X320842Y132208D01*
X321342Y133073D02*
X327404Y129574D01*
X313742Y119909D02*
X315842Y123547D01*
X313742Y119909D02*
X319804Y116409D01*
X324904Y125243D02*
X326905Y128708D01*
X319904Y116583D02*
X321904Y120047D01*
X149910Y89832D02*
X155973Y93332D01*
X153973Y96796D02*
X155973Y93332D01*
X150410Y88966D02*
X156473Y92466D01*
X148872Y105630D02*
X150973Y101992D01*
X142810Y102130D02*
X148872Y105630D01*
X147910Y93296D02*
X149910Y89832D01*
X142911Y101956D02*
X144911Y98492D01*
X209185Y236461D02*
Y243461D01*
Y236461D02*
X213185D01*
X208185D02*
Y243461D01*
X219185Y236461D02*
X223386D01*
Y243461D01*
X209185D02*
X213185D01*
X219185D02*
X223185D01*
D16*
X256000Y74000D02*
Y80500D01*
X252500Y77000D02*
X259500D01*
X225500D02*
X231000D01*
D17*
X262000Y126583D02*
X262417Y126999D01*
X263250D01*
X263666Y126583D01*
Y126166D01*
X263250Y125750D01*
X263666Y125333D01*
Y124917D01*
X263250Y124500D01*
X262417D01*
X262000Y124917D01*
Y125333D01*
X262417Y125750D01*
X262000Y126166D01*
Y126583D01*
X262417Y125750D02*
X263250D01*
X262000Y116999D02*
X263666D01*
Y116583D01*
X262000Y114917D01*
Y114500D01*
X218000D02*
X218833D01*
X218417D01*
Y116999D01*
X218000Y116583D01*
X217666Y124500D02*
X216000D01*
X217666Y126166D01*
Y126583D01*
X217250Y126999D01*
X216417D01*
X216000Y126583D01*
X291666Y90083D02*
X291250Y90499D01*
X290417D01*
X290000Y90083D01*
Y89666D01*
X290417Y89250D01*
X291250D01*
X291666Y88833D01*
Y88416D01*
X291250Y88000D01*
X290417D01*
X290000Y88416D01*
X292499Y90499D02*
Y88000D01*
X293332Y88833D01*
X294165Y88000D01*
Y90499D01*
X189001Y188500D02*
X189417D01*
X190250Y189333D01*
X189417Y190166D01*
X189001D01*
X190250Y189333D02*
X191500D01*
Y192249D02*
X189001D01*
X190250Y190999D01*
Y192665D01*
X191501Y147200D02*
X191917D01*
X192750Y148033D01*
X191917Y148866D01*
X191501D01*
X192750Y148033D02*
X194000D01*
X191917Y149699D02*
X191501Y150116D01*
Y150949D01*
X191917Y151365D01*
X192334D01*
X192750Y150949D01*
Y150532D01*
Y150949D01*
X193167Y151365D01*
X193584D01*
X194000Y150949D01*
Y150116D01*
X193584Y149699D01*
X235848Y76211D02*
Y78710D01*
X237098D01*
X237514Y78293D01*
Y77460D01*
X237098Y77044D01*
X235848D01*
X238764Y76211D02*
X239597D01*
X240013Y76627D01*
Y77460D01*
X239597Y77877D01*
X238764D01*
X238347Y77460D01*
Y76627D01*
X238764Y76211D01*
X240846Y77877D02*
Y76627D01*
X241263Y76211D01*
X241680Y76627D01*
X242096Y76211D01*
X242513Y76627D01*
Y77877D01*
X244595Y76211D02*
X243762D01*
X243346Y76627D01*
Y77460D01*
X243762Y77877D01*
X244595D01*
X245012Y77460D01*
Y77044D01*
X243346D01*
X245845Y77877D02*
Y76211D01*
Y77044D01*
X246261Y77460D01*
X246678Y77877D01*
X247094D01*
X318836Y78750D02*
X320639Y77708D01*
X321208Y77861D01*
X321625Y78582D01*
X321472Y79151D01*
X319669Y80193D01*
X320085Y80914D02*
X320918Y82357D01*
X320502Y81635D01*
X322666Y80386D01*
X321696Y82870D02*
X321543Y83439D01*
X321960Y84161D01*
X322529Y84313D01*
X322889Y84105D01*
X323042Y83536D01*
X322833Y83175D01*
X323042Y83536D01*
X323611Y83688D01*
X323972Y83480D01*
X324124Y82911D01*
X323708Y82189D01*
X323138Y82037D01*
X144164Y122750D02*
X142361Y121708D01*
X142208Y121139D01*
X142625Y120418D01*
X143194Y120265D01*
X144997Y121307D01*
X145414Y120585D02*
X146247Y119142D01*
X145831Y119864D01*
X143666Y118614D01*
X145332Y115728D02*
X144499Y117171D01*
X146775Y116561D01*
X147136Y116770D01*
X147288Y117339D01*
X146872Y118060D01*
X146303Y118213D01*
X347250Y77164D02*
X346208Y75361D01*
X346361Y74792D01*
X347082Y74375D01*
X347651Y74528D01*
X348692Y76331D01*
X350649Y74721D02*
X350496Y75290D01*
X349775Y75706D01*
X349206Y75554D01*
X348997Y75193D01*
X349150Y74624D01*
X349871Y74208D01*
X350024Y73639D01*
X349816Y73278D01*
X349247Y73126D01*
X348525Y73542D01*
X348373Y74111D01*
X350329Y72501D02*
X351162Y73944D01*
X352300Y74249D01*
X352605Y73111D01*
X351772Y71668D01*
X352396Y72750D01*
X350954Y73583D01*
X352493Y71251D02*
X353743Y73416D01*
X354825Y72791D01*
X354977Y72222D01*
X354561Y71500D01*
X353992Y71348D01*
X352910Y71973D01*
X353631Y71556D02*
X353936Y70418D01*
X355907Y72166D02*
X357350Y71333D01*
X356628Y71750D01*
X355379Y69585D01*
X357863Y70556D02*
X358432Y70708D01*
X359154Y70292D01*
X359306Y69723D01*
X359098Y69362D01*
X358529Y69209D01*
X358168Y69418D01*
X358529Y69209D01*
X358681Y68640D01*
X358473Y68280D01*
X357904Y68127D01*
X357183Y68544D01*
X357030Y69113D01*
X125250Y98336D02*
X124208Y100139D01*
X123639Y100292D01*
X122918Y99875D01*
X122765Y99306D01*
X123807Y97503D01*
X121434Y96614D02*
X122003Y96461D01*
X122724Y96878D01*
X122877Y97447D01*
X122669Y97808D01*
X122100Y97960D01*
X121378Y97543D01*
X120809Y97696D01*
X120601Y98057D01*
X120753Y98626D01*
X121475Y99042D01*
X122044Y98890D01*
X119671Y98001D02*
X120504Y96558D01*
X120199Y95420D01*
X119061Y95725D01*
X118228Y97168D01*
X118853Y96086D01*
X120296Y96919D01*
X117507Y96751D02*
X118756Y94587D01*
X117674Y93962D01*
X117105Y94115D01*
X116689Y94836D01*
X116841Y95405D01*
X117923Y96030D01*
X117202Y95613D02*
X116064Y95918D01*
X116592Y93337D02*
X115149Y92504D01*
X115871Y92921D01*
X114621Y95085D01*
X111735Y93419D02*
X113178Y94252D01*
X112568Y91976D01*
X112777Y91615D01*
X113346Y91463D01*
X114067Y91879D01*
X114219Y92448D01*
X302085Y143394D02*
X303681Y144732D01*
X303732Y145319D01*
X303197Y145957D01*
X302610Y146009D01*
X301014Y144670D01*
X299727Y146852D02*
X299676Y146265D01*
X300211Y145627D01*
X300798Y145576D01*
X301117Y145844D01*
X301169Y146430D01*
X300633Y147069D01*
X300684Y147655D01*
X301004Y147923D01*
X301590Y147872D01*
X302126Y147234D01*
X302075Y146647D01*
X300787Y148829D02*
X299511Y147758D01*
X298337Y147861D01*
X298440Y149034D01*
X299716Y150105D01*
X298759Y149302D01*
X299830Y148026D01*
X299181Y150743D02*
X297266Y149137D01*
X296463Y150094D01*
X296514Y150681D01*
X297152Y151217D01*
X297739Y151165D01*
X298542Y150208D01*
X298007Y150846D02*
X298110Y152020D01*
X295660Y151051D02*
X294589Y152328D01*
X295124Y151690D01*
X297039Y153296D01*
X295968Y154572D02*
X295432Y155211D01*
X295700Y154892D01*
X293786Y153285D01*
X294372Y153234D01*
X214000Y190499D02*
Y188417D01*
X214417Y188000D01*
X215250D01*
X215666Y188417D01*
Y190499D01*
X216499Y190083D02*
X216916Y190499D01*
X217749D01*
X218165Y190083D01*
Y189666D01*
X217749Y189250D01*
X217332D01*
X217749D01*
X218165Y188833D01*
Y188417D01*
X217749Y188000D01*
X216916D01*
X216499Y188417D01*
X267500Y143999D02*
Y141917D01*
X267916Y141500D01*
X268750D01*
X269166Y141917D01*
Y143999D01*
X271665Y141500D02*
X269999D01*
X271665Y143166D01*
Y143583D01*
X271249Y143999D01*
X270416D01*
X269999Y143583D01*
X160500Y100000D02*
Y102499D01*
X161750D01*
X162166Y102083D01*
Y101250D01*
X161750Y100833D01*
X160500D01*
X161333D02*
X162166Y100000D01*
X164665Y102499D02*
X162999D01*
Y100000D01*
X164665D01*
X162999Y101250D02*
X163832D01*
X167165Y102083D02*
X166748Y102499D01*
X165915D01*
X165498Y102083D01*
Y101666D01*
X165915Y101250D01*
X166748D01*
X167165Y100833D01*
Y100417D01*
X166748Y100000D01*
X165915D01*
X165498Y100417D01*
X167998Y102499D02*
X169664D01*
X168831D01*
Y100000D01*
X170497D02*
X171330D01*
X170913D01*
Y102499D01*
X170497Y102083D01*
X280500Y196500D02*
X282999D01*
Y195250D01*
X282583Y194834D01*
X281750D01*
X281333Y195250D01*
Y196500D01*
Y195667D02*
X280500Y194834D01*
Y194001D02*
Y193168D01*
Y193584D01*
X282999D01*
X282583Y194001D01*
X280917Y191918D02*
X280500Y191502D01*
Y190669D01*
X280917Y190252D01*
X282583D01*
X282999Y190669D01*
Y191502D01*
X282583Y191918D01*
X282166D01*
X281750Y191502D01*
Y190252D01*
X262500Y190500D02*
X260001D01*
Y191750D01*
X260417Y192166D01*
X261250D01*
X261667Y191750D01*
Y190500D01*
Y191333D02*
X262500Y192166D01*
Y192999D02*
Y193832D01*
Y193416D01*
X260001D01*
X260417Y192999D01*
Y195082D02*
X260001Y195498D01*
Y196331D01*
X260417Y196748D01*
X260834D01*
X261250Y196331D01*
X261667Y196748D01*
X262084D01*
X262500Y196331D01*
Y195498D01*
X262084Y195082D01*
X261667D01*
X261250Y195498D01*
X260834Y195082D01*
X260417D01*
X261250Y195498D02*
Y196331D01*
X184000Y104500D02*
Y106999D01*
X185250D01*
X185666Y106583D01*
Y105750D01*
X185250Y105333D01*
X184000D01*
X184833D02*
X185666Y104500D01*
X186499D02*
X187332D01*
X186916D01*
Y106999D01*
X186499Y106583D01*
X188582Y106999D02*
X190248D01*
Y106583D01*
X188582Y104917D01*
Y104500D01*
X176500Y146500D02*
X174001D01*
Y147750D01*
X174417Y148166D01*
X175250D01*
X175667Y147750D01*
Y146500D01*
Y147333D02*
X176500Y148166D01*
Y148999D02*
Y149832D01*
Y149416D01*
X174001D01*
X174417Y148999D01*
X174001Y152748D02*
Y151082D01*
X175250D01*
X174834Y151915D01*
Y152331D01*
X175250Y152748D01*
X176084D01*
X176500Y152331D01*
Y151498D01*
X176084Y151082D01*
X325500Y111500D02*
X324250Y109336D01*
X323168Y109960D01*
X323016Y110529D01*
X323432Y111251D01*
X324001Y111403D01*
X325083Y110778D01*
X324362Y111195D02*
X324057Y112333D01*
X323336Y112750D02*
X322614Y113166D01*
X322975Y112958D01*
X321725Y110793D01*
X322294Y110946D01*
X320450Y114416D02*
X319200Y112251D01*
X320907Y112709D01*
X319464Y113542D01*
X134500Y98000D02*
X133250Y100164D01*
X134333Y100789D01*
X134902Y100637D01*
X135318Y99915D01*
X135166Y99346D01*
X134083Y98721D01*
X134805Y99138D02*
X135943Y98833D01*
X136664Y99250D02*
X137386Y99666D01*
X137025Y99458D01*
X135775Y101622D01*
X135623Y101053D01*
X137427Y102095D02*
X137579Y102664D01*
X138301Y103080D01*
X138870Y102928D01*
X139078Y102567D01*
X138925Y101998D01*
X138565Y101790D01*
X138925Y101998D01*
X139494Y101845D01*
X139703Y101485D01*
X139550Y100916D01*
X138829Y100499D01*
X138260Y100652D01*
X209000Y245000D02*
X206501D01*
Y246250D01*
X206917Y246666D01*
X207750D01*
X208167Y246250D01*
Y245000D01*
Y245833D02*
X209000Y246666D01*
Y247499D02*
Y248332D01*
Y247916D01*
X206501D01*
X206917Y247499D01*
X209000Y251248D02*
Y249582D01*
X207334Y251248D01*
X206917D01*
X206501Y250831D01*
Y249998D01*
X206917Y249582D01*
X339000Y90500D02*
X337750Y88336D01*
X336668Y88960D01*
X336516Y89529D01*
X336932Y90251D01*
X337501Y90403D01*
X338583Y89779D01*
X337862Y90195D02*
X337557Y91333D01*
X336836Y91750D02*
X336114Y92166D01*
X336475Y91958D01*
X335225Y89793D01*
X335794Y89946D01*
X335032Y92791D02*
X334311Y93207D01*
X334671Y92999D01*
X333422Y90835D01*
X333991Y90987D01*
X376450Y68976D02*
X375200Y66811D01*
X374118Y67436D01*
X373966Y68005D01*
X374382Y68726D01*
X374951Y68879D01*
X376033Y68254D01*
X375312Y68671D02*
X375007Y69809D01*
X374286Y70225D02*
X373564Y70642D01*
X373925Y70433D01*
X372675Y68269D01*
X373244Y68422D01*
X371441Y69463D02*
X370872Y69310D01*
X370150Y69727D01*
X369998Y70296D01*
X370831Y71739D01*
X371400Y71891D01*
X372121Y71475D01*
X372274Y70906D01*
X371441Y69463D01*
X282500Y157500D02*
X284999D01*
Y156250D01*
X284583Y155834D01*
X283750D01*
X283333Y156250D01*
Y157500D01*
Y156667D02*
X282500Y155834D01*
X282916Y155001D02*
X282500Y154584D01*
Y153751D01*
X282916Y153335D01*
X284583D01*
X284999Y153751D01*
Y154584D01*
X284583Y155001D01*
X284166D01*
X283750Y154584D01*
Y153335D01*
X126450Y94024D02*
X125200Y96189D01*
X126283Y96814D01*
X126852Y96661D01*
X127268Y95940D01*
X127116Y95371D01*
X126033Y94746D01*
X126755Y95162D02*
X127893Y94858D01*
X127573Y97078D02*
X127726Y97647D01*
X128447Y98063D01*
X129016Y97911D01*
X129224Y97550D01*
X129072Y96981D01*
X129641Y96829D01*
X129849Y96468D01*
X129697Y95899D01*
X128975Y95482D01*
X128406Y95635D01*
X128198Y95995D01*
X128350Y96565D01*
X127781Y96717D01*
X127573Y97078D01*
X128350Y96565D02*
X129072Y96981D01*
X90450Y73024D02*
X89200Y75189D01*
X90283Y75814D01*
X90852Y75661D01*
X91268Y74940D01*
X91116Y74371D01*
X90034Y73746D01*
X90755Y74162D02*
X91893Y73857D01*
X91365Y76438D02*
X92808Y77271D01*
X93016Y76911D01*
X92406Y74635D01*
X92614Y74274D01*
X243867Y268500D02*
X246366D01*
Y267250D01*
X245950Y266834D01*
X245117D01*
X244700Y267250D01*
Y268500D01*
Y267667D02*
X243867Y266834D01*
X246366Y264335D02*
X245950Y265168D01*
X245117Y266001D01*
X244284D01*
X243867Y265584D01*
Y264751D01*
X244284Y264335D01*
X244700D01*
X245117Y264751D01*
Y266001D01*
X243867Y312000D02*
X246366D01*
Y310750D01*
X245950Y310334D01*
X245117D01*
X244700Y310750D01*
Y312000D01*
Y311167D02*
X243867Y310334D01*
X246366Y307835D02*
Y309501D01*
X245117D01*
X245533Y308668D01*
Y308251D01*
X245117Y307835D01*
X244284D01*
X243867Y308251D01*
Y309084D01*
X244284Y309501D01*
X355450Y81476D02*
X354200Y79311D01*
X353118Y79936D01*
X352966Y80505D01*
X353382Y81226D01*
X353951Y81379D01*
X355033Y80754D01*
X354312Y81171D02*
X354007Y82309D01*
X352203Y83350D02*
X350954Y81186D01*
X352661Y81643D01*
X351218Y82476D01*
X108450Y83024D02*
X107200Y85189D01*
X108283Y85814D01*
X108852Y85661D01*
X109268Y84940D01*
X109116Y84371D01*
X108034Y83746D01*
X108755Y84162D02*
X109893Y83858D01*
X109573Y86078D02*
X109725Y86647D01*
X110447Y87063D01*
X111016Y86911D01*
X111224Y86550D01*
X111072Y85981D01*
X110711Y85773D01*
X111072Y85981D01*
X111641Y85829D01*
X111849Y85468D01*
X111697Y84899D01*
X110975Y84482D01*
X110406Y84635D01*
X244267Y289500D02*
X246766D01*
Y288250D01*
X246350Y287834D01*
X245517D01*
X245100Y288250D01*
Y289500D01*
Y288667D02*
X244267Y287834D01*
Y285335D02*
Y287001D01*
X245933Y285335D01*
X246350D01*
X246766Y285751D01*
Y286584D01*
X246350Y287001D01*
X208250Y216499D02*
X207417D01*
X207000Y216083D01*
Y214417D01*
X207417Y214000D01*
X208250D01*
X208666Y214417D01*
Y216083D01*
X208250Y216499D01*
X209499D02*
Y214000D01*
X211165D01*
X213665Y216499D02*
X211998D01*
Y214000D01*
X213665D01*
X211998Y215250D02*
X212831D01*
X214498Y216499D02*
Y214000D01*
X215747D01*
X216164Y214417D01*
Y216083D01*
X215747Y216499D01*
X214498D01*
X216997Y214000D02*
X218663Y215666D01*
X219496Y216499D02*
X221162D01*
X220329D01*
Y214000D01*
X223661Y216499D02*
X221995D01*
Y215250D01*
X222828D01*
X221995D01*
Y214000D01*
X224494Y216499D02*
X226161D01*
X225327D01*
Y214000D01*
X316250Y113836D02*
X317500Y116000D01*
X316057Y116833D01*
X314253Y117874D02*
X313004Y115710D01*
X314711Y116167D01*
X313268Y117000D01*
X141750Y106164D02*
X143000Y104000D01*
X144443Y104833D01*
X144123Y107053D02*
X144275Y107622D01*
X144997Y108039D01*
X145566Y107886D01*
X145774Y107526D01*
X145622Y106957D01*
X145261Y106748D01*
X145622Y106957D01*
X146191Y106804D01*
X146399Y106443D01*
X146247Y105874D01*
X145525Y105458D01*
X144956Y105610D01*
X204501Y237500D02*
X207000D01*
Y239166D01*
Y241665D02*
Y239999D01*
X205334Y241665D01*
X204917D01*
X204501Y241249D01*
Y240416D01*
X204917Y239999D01*
X268500Y94499D02*
Y92000D01*
X270166D01*
X270999D02*
X271832D01*
X271416D01*
Y94499D01*
X270999Y94083D01*
X178000Y88499D02*
Y86000D01*
X179250D01*
X179666Y86417D01*
Y88083D01*
X179250Y88499D01*
X178000D01*
X181749D02*
X180916D01*
X180499Y88083D01*
Y86417D01*
X180916Y86000D01*
X181749D01*
X182165Y86417D01*
Y88083D01*
X181749Y88499D01*
X182998D02*
Y86000D01*
X183831Y86833D01*
X184664Y86000D01*
Y88499D01*
X185498Y86000D02*
Y88499D01*
X187164Y86000D01*
Y88499D01*
X187997D02*
Y86000D01*
X189663D01*
X191746Y88499D02*
X190912D01*
X190496Y88083D01*
Y86417D01*
X190912Y86000D01*
X191746D01*
X192162Y86417D01*
Y88083D01*
X191746Y88499D01*
X192995Y86000D02*
Y87666D01*
X193828Y88499D01*
X194661Y87666D01*
Y86000D01*
Y87250D01*
X192995D01*
X195494Y88499D02*
Y86000D01*
X196744D01*
X197160Y86417D01*
Y88083D01*
X196744Y88499D01*
X195494D01*
X197994Y86000D02*
X198827D01*
X198410D01*
Y88499D01*
X197994Y88083D01*
X204666Y198583D02*
X204250Y198999D01*
X203416D01*
X203000Y198583D01*
Y196916D01*
X203416Y196500D01*
X204250D01*
X204666Y196916D01*
X205499Y198583D02*
X205916Y198999D01*
X206749D01*
X207165Y198583D01*
Y198166D01*
X206749Y197750D01*
X206332D01*
X206749D01*
X207165Y197333D01*
Y196916D01*
X206749Y196500D01*
X205916D01*
X205499Y196916D01*
X207998Y198583D02*
X208415Y198999D01*
X209248D01*
X209665Y198583D01*
Y198166D01*
X209248Y197750D01*
X208831D01*
X209248D01*
X209665Y197333D01*
Y196916D01*
X209248Y196500D01*
X208415D01*
X207998Y196916D01*
X182666Y183083D02*
X182250Y183499D01*
X181416D01*
X181000Y183083D01*
Y181416D01*
X181416Y181000D01*
X182250D01*
X182666Y181416D01*
X183499Y183083D02*
X183916Y183499D01*
X184749D01*
X185165Y183083D01*
Y182666D01*
X184749Y182250D01*
X184332D01*
X184749D01*
X185165Y181833D01*
Y181416D01*
X184749Y181000D01*
X183916D01*
X183499Y181416D01*
X187664Y181000D02*
X185998D01*
X187664Y182666D01*
Y183083D01*
X187248Y183499D01*
X186415D01*
X185998Y183083D01*
X177166Y106583D02*
X176750Y106999D01*
X175917D01*
X175500Y106583D01*
Y104917D01*
X175917Y104500D01*
X176750D01*
X177166Y104917D01*
X177999Y106583D02*
X178416Y106999D01*
X179249D01*
X179665Y106583D01*
Y106166D01*
X179249Y105750D01*
X178832D01*
X179249D01*
X179665Y105333D01*
Y104917D01*
X179249Y104500D01*
X178416D01*
X177999Y104917D01*
X180498Y104500D02*
X181331D01*
X180915D01*
Y106999D01*
X180498Y106583D01*
X174917Y135166D02*
X174501Y134750D01*
Y133916D01*
X174917Y133500D01*
X176584D01*
X177000Y133916D01*
Y134750D01*
X176584Y135166D01*
X174917Y135999D02*
X174501Y136416D01*
Y137249D01*
X174917Y137665D01*
X175334D01*
X175750Y137249D01*
Y136832D01*
Y137249D01*
X176167Y137665D01*
X176584D01*
X177000Y137249D01*
Y136416D01*
X176584Y135999D01*
X174917Y138498D02*
X174501Y138915D01*
Y139748D01*
X174917Y140164D01*
X176584D01*
X177000Y139748D01*
Y138915D01*
X176584Y138498D01*
X174917D01*
X175017Y123166D02*
X174601Y122750D01*
Y121916D01*
X175017Y121500D01*
X176683D01*
X177100Y121916D01*
Y122750D01*
X176683Y123166D01*
X177100Y125665D02*
Y123999D01*
X175434Y125665D01*
X175017D01*
X174601Y125249D01*
Y124416D01*
X175017Y123999D01*
X176683Y126498D02*
X177100Y126915D01*
Y127748D01*
X176683Y128165D01*
X175017D01*
X174601Y127748D01*
Y126915D01*
X175017Y126498D01*
X175434D01*
X175850Y126915D01*
Y128165D01*
X174417Y161666D02*
X174001Y161250D01*
Y160416D01*
X174417Y160000D01*
X176084D01*
X176500Y160416D01*
Y161250D01*
X176084Y161666D01*
X176500Y164165D02*
Y162499D01*
X174834Y164165D01*
X174417D01*
X174001Y163749D01*
Y162916D01*
X174417Y162499D01*
Y164998D02*
X174001Y165415D01*
Y166248D01*
X174417Y166665D01*
X174834D01*
X175250Y166248D01*
X175667Y166665D01*
X176084D01*
X176500Y166248D01*
Y165415D01*
X176084Y164998D01*
X175667D01*
X175250Y165415D01*
X174834Y164998D01*
X174417D01*
X175250Y165415D02*
Y166248D01*
X210083Y125834D02*
X210499Y126250D01*
Y127084D01*
X210083Y127500D01*
X208417D01*
X208000Y127084D01*
Y126250D01*
X208417Y125834D01*
X208000Y123335D02*
Y125001D01*
X209666Y123335D01*
X210083D01*
X210499Y123751D01*
Y124584D01*
X210083Y125001D01*
X210499Y122502D02*
Y120835D01*
X210083D01*
X208417Y122502D01*
X208000D01*
X210083Y117334D02*
X210499Y117750D01*
Y118584D01*
X210083Y119000D01*
X208417D01*
X208000Y118584D01*
Y117750D01*
X208417Y117334D01*
X208000Y114835D02*
Y116501D01*
X209666Y114835D01*
X210083D01*
X210499Y115251D01*
Y116084D01*
X210083Y116501D01*
X210499Y112336D02*
X210083Y113169D01*
X209250Y114002D01*
X208417D01*
X208000Y113585D01*
Y112752D01*
X208417Y112336D01*
X208833D01*
X209250Y112752D01*
Y114002D01*
X209983Y109334D02*
X210399Y109750D01*
Y110583D01*
X209983Y111000D01*
X208316D01*
X207900Y110583D01*
Y109750D01*
X208316Y109334D01*
X207900Y106835D02*
Y108501D01*
X209566Y106835D01*
X209983D01*
X210399Y107251D01*
Y108084D01*
X209983Y108501D01*
X210399Y104335D02*
Y106002D01*
X209150D01*
X209566Y105169D01*
Y104752D01*
X209150Y104335D01*
X208316D01*
X207900Y104752D01*
Y105585D01*
X208316Y106002D01*
X346064Y83979D02*
X346216Y83410D01*
X346938Y82993D01*
X347507Y83146D01*
X348340Y84589D01*
X348187Y85158D01*
X347466Y85574D01*
X346897Y85422D01*
X344941Y87032D02*
X346384Y86199D01*
X344108Y85589D01*
X343899Y85228D01*
X344052Y84659D01*
X344773Y84243D01*
X345342Y84395D01*
X342776Y88282D02*
X344219Y87449D01*
X341943Y86839D01*
X341735Y86478D01*
X341888Y85909D01*
X342609Y85492D01*
X343178Y85645D01*
X366016Y72529D02*
X366168Y71960D01*
X366890Y71544D01*
X367459Y71696D01*
X368292Y73139D01*
X368139Y73708D01*
X367418Y74125D01*
X366849Y73972D01*
X364893Y75583D02*
X366336Y74750D01*
X364060Y74140D01*
X363851Y73779D01*
X364004Y73210D01*
X364725Y72794D01*
X365294Y72946D01*
X364171Y75999D02*
X363450Y76416D01*
X363811Y76207D01*
X362561Y74043D01*
X363130Y74196D01*
X209683Y101334D02*
X210099Y101750D01*
Y102584D01*
X209683Y103000D01*
X208016D01*
X207600Y102584D01*
Y101750D01*
X208016Y101334D01*
X207600Y98835D02*
Y100501D01*
X209266Y98835D01*
X209683D01*
X210099Y99251D01*
Y100084D01*
X209683Y100501D01*
Y98002D02*
X210099Y97585D01*
Y96752D01*
X209683Y96336D01*
X208016D01*
X207600Y96752D01*
Y97585D01*
X208016Y98002D01*
X209683D01*
X382516Y63029D02*
X382668Y62460D01*
X383390Y62044D01*
X383959Y62196D01*
X384792Y63639D01*
X384639Y64208D01*
X383918Y64625D01*
X383349Y64472D01*
X382836Y65250D02*
X382114Y65666D01*
X382475Y65458D01*
X381225Y63293D01*
X381794Y63446D01*
X380824Y65930D02*
X380671Y66499D01*
X379950Y66916D01*
X379381Y66763D01*
X378548Y65320D01*
X378700Y64751D01*
X379422Y64335D01*
X379991Y64487D01*
X380199Y64848D01*
X380047Y65417D01*
X378964Y66042D01*
X116902Y90637D02*
X116333Y90789D01*
X115611Y90373D01*
X115459Y89804D01*
X116292Y88361D01*
X116861Y88208D01*
X117582Y88625D01*
X117735Y89194D01*
X118664Y89250D02*
X119386Y89666D01*
X119025Y89458D01*
X117775Y91622D01*
X117623Y91053D01*
X119427Y92095D02*
X119579Y92664D01*
X120301Y93080D01*
X120870Y92928D01*
X121078Y92567D01*
X120925Y91998D01*
X121494Y91845D01*
X121703Y91485D01*
X121550Y90916D01*
X120829Y90499D01*
X120260Y90652D01*
X120052Y91012D01*
X120204Y91581D01*
X119635Y91734D01*
X119427Y92095D01*
X120204Y91581D02*
X120925Y91998D01*
X95888Y78553D02*
X95319Y78706D01*
X94597Y78289D01*
X94445Y77720D01*
X95278Y76277D01*
X95847Y76125D01*
X96568Y76542D01*
X96721Y77110D01*
X97650Y77166D02*
X98372Y77583D01*
X98011Y77375D01*
X96761Y79539D01*
X96609Y78970D01*
X98204Y80372D02*
X99647Y81205D01*
X99856Y80844D01*
X99246Y78568D01*
X99454Y78208D01*
X82320Y71303D02*
X81752Y71456D01*
X81030Y71039D01*
X80878Y70470D01*
X81711Y69027D01*
X82280Y68875D01*
X83001Y69292D01*
X83154Y69861D01*
X84083Y69916D02*
X84805Y70333D01*
X84444Y70125D01*
X83194Y72289D01*
X83042Y71720D01*
X86080Y73955D02*
X85567Y73178D01*
X85262Y72040D01*
X85679Y71318D01*
X86248Y71166D01*
X86969Y71582D01*
X87122Y72151D01*
X86913Y72512D01*
X86344Y72665D01*
X85262Y72040D01*
X245983Y278334D02*
X246399Y278750D01*
Y279584D01*
X245983Y280000D01*
X244317D01*
X243900Y279584D01*
Y278750D01*
X244317Y278334D01*
X243900Y277501D02*
Y276668D01*
Y277084D01*
X246399D01*
X245983Y277501D01*
X246399Y273752D02*
Y275418D01*
X245150D01*
X245566Y274585D01*
Y274169D01*
X245150Y273752D01*
X244317D01*
X243900Y274169D01*
Y275002D01*
X244317Y275418D01*
X246583Y302834D02*
X246999Y303250D01*
Y304083D01*
X246583Y304500D01*
X244917D01*
X244500Y304083D01*
Y303250D01*
X244917Y302834D01*
X244500Y302001D02*
Y301168D01*
Y301584D01*
X246999D01*
X246583Y302001D01*
X244500Y298669D02*
X246999D01*
X245750Y299918D01*
Y298252D01*
X246483Y318834D02*
X246899Y319250D01*
Y320083D01*
X246483Y320500D01*
X244816D01*
X244400Y320083D01*
Y319250D01*
X244816Y318834D01*
X244400Y318001D02*
Y317168D01*
Y317584D01*
X246899D01*
X246483Y318001D01*
Y315918D02*
X246899Y315502D01*
Y314669D01*
X246483Y314252D01*
X246066D01*
X245650Y314669D01*
Y315085D01*
Y314669D01*
X245233Y314252D01*
X244816D01*
X244400Y314669D01*
Y315502D01*
X244816Y315918D01*
X414984Y79971D02*
X414832Y80540D01*
X414110Y80956D01*
X413541Y80804D01*
X412708Y79361D01*
X412861Y78792D01*
X413582Y78375D01*
X414151Y78528D01*
X414664Y77750D02*
X415386Y77334D01*
X415025Y77542D01*
X416275Y79707D01*
X415706Y79554D01*
X417911Y75876D02*
X416468Y76709D01*
X418744Y77319D01*
X418952Y77680D01*
X418800Y78249D01*
X418078Y78665D01*
X417509Y78513D01*
X80598Y34863D02*
X81167Y34711D01*
X81889Y35127D01*
X82041Y35696D01*
X81208Y37139D01*
X80639Y37292D01*
X79918Y36875D01*
X79765Y36306D01*
X78836Y36250D02*
X78114Y35834D01*
X78475Y36042D01*
X79725Y33878D01*
X79877Y34447D01*
X77032Y35209D02*
X76311Y34793D01*
X76671Y35001D01*
X77921Y32836D01*
X78073Y33405D01*
X218417Y340666D02*
X218001Y340250D01*
Y339417D01*
X218417Y339000D01*
X220083D01*
X220500Y339417D01*
Y340250D01*
X220083Y340666D01*
X220500Y341499D02*
Y342332D01*
Y341916D01*
X218001D01*
X218417Y341499D01*
Y343582D02*
X218001Y343998D01*
Y344831D01*
X218417Y345248D01*
X220083D01*
X220500Y344831D01*
Y343998D01*
X220083Y343582D01*
X218417D01*
X151417Y112666D02*
X151001Y112250D01*
Y111416D01*
X151417Y111000D01*
X153084D01*
X153500Y111416D01*
Y112250D01*
X153084Y112666D01*
X151001Y115165D02*
Y113499D01*
X152250D01*
X151834Y114332D01*
Y114749D01*
X152250Y115165D01*
X153084D01*
X153500Y114749D01*
Y113916D01*
X153084Y113499D01*
X149917Y122166D02*
X149501Y121750D01*
Y120916D01*
X149917Y120500D01*
X151584D01*
X152000Y120916D01*
Y121750D01*
X151584Y122166D01*
X152000Y124249D02*
X149501D01*
X150750Y122999D01*
Y124665D01*
X152417Y142166D02*
X152001Y141750D01*
Y140917D01*
X152417Y140500D01*
X154084D01*
X154500Y140917D01*
Y141750D01*
X154084Y142166D01*
X152417Y142999D02*
X152001Y143416D01*
Y144249D01*
X152417Y144665D01*
X152834D01*
X153250Y144249D01*
Y143832D01*
Y144249D01*
X153667Y144665D01*
X154084D01*
X154500Y144249D01*
Y143416D01*
X154084Y142999D01*
X149917Y133666D02*
X149501Y133250D01*
Y132416D01*
X149917Y132000D01*
X151584D01*
X152000Y132416D01*
Y133250D01*
X151584Y133666D01*
X152000Y136165D02*
Y134499D01*
X150334Y136165D01*
X149917D01*
X149501Y135749D01*
Y134916D01*
X149917Y134499D01*
X210083Y92334D02*
X210499Y92750D01*
Y93584D01*
X210083Y94000D01*
X208417D01*
X208000Y93584D01*
Y92750D01*
X208417Y92334D01*
X208000Y91501D02*
Y90668D01*
Y91084D01*
X210499D01*
X210083Y91501D01*
X242000Y240999D02*
Y238500D01*
X243250D01*
X243666Y238916D01*
Y239333D01*
X243250Y239750D01*
X242000D01*
X243250D01*
X243666Y240166D01*
Y240583D01*
X243250Y240999D01*
X242000D01*
X280500Y185499D02*
Y183000D01*
X281750D01*
X282166Y183416D01*
Y183833D01*
X281750Y184250D01*
X280500D01*
X281750D01*
X282166Y184666D01*
Y185083D01*
X281750Y185499D01*
X280500D01*
X282999D02*
X284665D01*
X283832D01*
Y183000D01*
X287164D02*
X285498D01*
X287164Y184666D01*
Y185083D01*
X286748Y185499D01*
X285915D01*
X285498Y185083D01*
X271500Y185499D02*
Y183000D01*
X272750D01*
X273166Y183416D01*
Y183833D01*
X272750Y184250D01*
X271500D01*
X272750D01*
X273166Y184666D01*
Y185083D01*
X272750Y185499D01*
X271500D01*
X273999D02*
X275665D01*
X274832D01*
Y183000D01*
X276498D02*
X277331D01*
X276915D01*
Y185499D01*
X276498Y185083D01*
X222666Y133000D02*
X221000D01*
X222666Y134666D01*
Y135083D01*
X222250Y135499D01*
X221416D01*
X221000Y135083D01*
X224749Y133000D02*
Y135499D01*
X223499Y134250D01*
X225165D01*
X225998Y135499D02*
Y133000D01*
X227664D01*
X228498Y135083D02*
X228914Y135499D01*
X229747D01*
X230164Y135083D01*
Y133416D01*
X229747Y133000D01*
X228914D01*
X228498Y133416D01*
Y135083D01*
X230997Y133000D02*
X231830D01*
X231413D01*
Y135499D01*
X230997Y135083D01*
D18*
X466355Y23011D02*
X458667Y25691D01*
X466165Y22682D02*
X460316Y24739D01*
X464832Y20373D02*
X458667Y25691D01*
X464832Y20373D02*
X457143Y23052D01*
X464642Y20043D02*
X458793Y22100D01*
X463308Y17734D02*
X457143Y23052D01*
X466927Y24001D02*
X465594Y21692D01*
X463880Y18723D02*
X462737Y16744D01*
X460789Y16418D02*
X460269Y16278D01*
X460130Y16798D01*
X460650Y16938D01*
X460980Y16747D01*
X461449Y16037D01*
X461588Y15516D01*
X461347Y14336D01*
X460585Y13017D01*
X459684Y12218D01*
X458834Y12269D01*
X457844Y12840D01*
X457375Y13551D01*
X457617Y14731D01*
X458188Y15721D01*
X460585Y13017D02*
X459874Y12548D01*
X459024Y12599D01*
X458035Y13170D01*
X457566Y13881D01*
X457617Y14731D01*
X456906Y14262D01*
X455865Y13983D01*
X455015Y14034D01*
X454026Y14605D01*
X453556Y15316D01*
X453417Y15836D01*
X453658Y17016D01*
X454420Y18336D01*
X455321Y19135D01*
X455842Y19274D01*
X456692Y19223D01*
X457022Y19033D01*
X457161Y18512D01*
X456641Y18373D01*
X456501Y18893D01*
X456386Y14122D02*
X455206Y14364D01*
X454216Y14935D01*
X453747Y15646D01*
X453608Y16166D01*
X453658Y17016D01*
X11502Y15490D02*
X17667Y20809D01*
X11311Y15820D02*
X16018Y19857D01*
X9979Y18129D02*
X17667Y20809D01*
X9979Y18129D02*
X16143Y23448D01*
X9788Y18459D02*
X14494Y22496D01*
X8455Y20768D02*
X16143Y23448D01*
X12073Y14501D02*
X10740Y16810D01*
X9026Y19778D02*
X7884Y21757D01*
X8575Y23608D02*
X8714Y24128D01*
X9234Y23989D01*
X9095Y23468D01*
X8765Y23278D01*
X7915Y23227D01*
X7395Y23366D01*
X6493Y24165D01*
X5732Y25485D01*
X5490Y26665D01*
X5630Y27185D01*
X6099Y27896D01*
X6759Y28277D01*
X7609Y28328D01*
X8840Y27719D01*
X10452Y26450D01*
X11162Y25981D01*
X12203Y25702D01*
X13383Y25944D01*
X14372Y26515D01*
X5732Y25485D02*
X5681Y26335D01*
X5820Y26855D01*
X6289Y27566D01*
X6949Y27947D01*
X7799Y27998D01*
X9030Y27389D01*
X10452Y26450D01*
X13713Y26134D02*
X13193Y26274D01*
X12812Y26933D01*
X12519Y28964D01*
X11948Y29953D01*
X11237Y30422D01*
X10717Y30562D01*
X10057Y30181D01*
X12812Y26933D02*
X12849Y29154D01*
X12087Y30473D01*
X11567Y30613D01*
X10717Y30562D01*
X232143Y416998D02*
X233666Y409000D01*
X232523Y416998D02*
X233666Y410904D01*
X235190Y416998D02*
X233666Y409000D01*
X235190Y416998D02*
X236713Y409000D01*
X235570Y416998D02*
X236713Y410904D01*
X238236Y416998D02*
X236713Y409000D01*
X231000Y416998D02*
X233666D01*
X237094D02*
X239379D01*
X240255Y415475D02*
X241017Y415856D01*
X242160Y416998D01*
Y409000D01*
X241779Y416617D02*
Y409000D01*
X240255D02*
X243683D01*
M02*
