G04*
G04 #@! TF.GenerationSoftware,Altium Limited,Altium Designer,18.0.12 (696)*
G04*
G04 Layer_Color=16711935*
%FSLAX25Y25*%
%MOIN*%
G70*
G01*
G75*
%ADD50R,0.04300X0.04600*%
%ADD62R,0.06706X0.06706*%
%ADD63C,0.06706*%
%ADD64C,0.03950*%
%ADD65P,0.09483X4X355.0*%
%ADD66P,0.09483X4X375.0*%
%ADD67P,0.09483X4X255.0*%
%ADD68R,0.08674X0.08674*%
%ADD69C,0.08674*%
%ADD70C,0.12611*%
%ADD71C,0.06800*%
%ADD72R,0.06706X0.06706*%
%ADD73C,0.07000*%
%ADD74C,0.02300*%
%ADD93R,0.04737X0.04737*%
%ADD94R,0.05800X0.05800*%
%ADD95R,0.08700X0.06700*%
%ADD96R,0.08700X0.15800*%
D50*
X278500Y109100D02*
D03*
Y116000D02*
D03*
X307000Y109100D02*
D03*
Y116000D02*
D03*
D62*
X247394Y226764D02*
D03*
X182500Y79500D02*
D03*
X271500Y207500D02*
D03*
X226000Y116500D02*
D03*
D63*
X247394Y246744D02*
D03*
X301572Y158160D02*
D03*
X308000Y150500D02*
D03*
X314428Y142840D02*
D03*
X212500Y79500D02*
D03*
X202500D02*
D03*
X192500D02*
D03*
X345500Y67500D02*
D03*
X354160Y62500D02*
D03*
X362821Y57500D02*
D03*
X120160Y106000D02*
D03*
X111500Y101000D02*
D03*
X102840Y96000D02*
D03*
X251500Y207500D02*
D03*
X261500D02*
D03*
X241500D02*
D03*
X231500D02*
D03*
X221500D02*
D03*
X211500D02*
D03*
X226000Y126500D02*
D03*
X236000Y116500D02*
D03*
X236000Y126500D02*
D03*
X246000Y116500D02*
D03*
Y126500D02*
D03*
X256000Y116500D02*
D03*
Y126500D02*
D03*
X220500Y317500D02*
D03*
Y307500D02*
D03*
Y297500D02*
D03*
Y287500D02*
D03*
Y277500D02*
D03*
Y267500D02*
D03*
Y257500D02*
D03*
X390320Y85500D02*
D03*
X381660Y90500D02*
D03*
X373000Y95500D02*
D03*
X364340Y100500D02*
D03*
X355679Y105500D02*
D03*
X347019Y110500D02*
D03*
X338359Y115500D02*
D03*
X95840Y51000D02*
D03*
X104500Y56000D02*
D03*
X113160Y61000D02*
D03*
X121820Y66000D02*
D03*
X130481Y71000D02*
D03*
X139141Y76000D02*
D03*
X147801Y81000D02*
D03*
D64*
X195000Y177000D02*
D03*
X200500D02*
D03*
D65*
X295144Y165821D02*
D03*
D66*
X336840Y72500D02*
D03*
X398981Y80500D02*
D03*
D67*
X128821Y111000D02*
D03*
X87179Y46000D02*
D03*
D68*
X281000Y98343D02*
D03*
D69*
X281000Y88500D02*
D03*
X281000Y78658D02*
D03*
X302654Y98343D02*
D03*
Y88500D02*
D03*
Y78658D02*
D03*
D70*
X251500Y92000D02*
D03*
X231500Y92000D02*
D03*
D71*
X196500Y160200D02*
D03*
Y141000D02*
D03*
D72*
X220500Y327500D02*
D03*
D73*
X428500Y30840D02*
D03*
X438500Y48160D02*
D03*
X34354Y48198D02*
D03*
X44354Y30878D02*
D03*
X246204Y380493D02*
D03*
X226204D02*
D03*
D74*
X231000Y132500D02*
D03*
X263500Y197500D02*
D03*
X239500Y302000D02*
D03*
X239400Y277000D02*
D03*
X176000Y155500D02*
D03*
X207500Y161000D02*
D03*
X225000Y200000D02*
D03*
X224500Y150500D02*
D03*
X250036Y150464D02*
D03*
X245000Y157000D02*
D03*
X241500Y158500D02*
D03*
X125000Y87500D02*
D03*
X127500Y98500D02*
D03*
X155000Y88500D02*
D03*
X182000Y110500D02*
D03*
X207500Y93500D02*
D03*
X347500Y89500D02*
D03*
X315500Y128000D02*
D03*
X294500Y125000D02*
D03*
X264000Y85000D02*
D03*
X257000Y138000D02*
D03*
X269000Y146000D02*
D03*
X222000Y178000D02*
D03*
Y160500D02*
D03*
X333000Y98500D02*
D03*
X323500Y83500D02*
D03*
X320500Y78500D02*
D03*
X309500Y125500D02*
D03*
X301500Y142000D02*
D03*
X265236Y181264D02*
D03*
X281500Y173500D02*
D03*
X270500D02*
D03*
X289000Y150500D02*
D03*
X211000Y181500D02*
D03*
X208000Y157500D02*
D03*
X253000Y173000D02*
D03*
X281500Y183000D02*
D03*
X273500D02*
D03*
X145000Y124000D02*
D03*
X131500Y91000D02*
D03*
X210800Y143700D02*
D03*
X213500Y144000D02*
D03*
X196500Y116000D02*
D03*
X208500Y100000D02*
D03*
Y116000D02*
D03*
X155500Y105500D02*
D03*
X170000Y87500D02*
D03*
X218000D02*
D03*
X269500Y79000D02*
D03*
X172000Y113000D02*
D03*
X166270Y133990D02*
D03*
X284000Y117500D02*
D03*
X294000Y117000D02*
D03*
X279000Y163500D02*
D03*
X208000Y164000D02*
D03*
X173000Y166000D02*
D03*
X227000Y155000D02*
D03*
X224500Y158500D02*
D03*
Y163500D02*
D03*
X278000Y171500D02*
D03*
X244500Y137000D02*
D03*
X235000Y137500D02*
D03*
X233500Y135000D02*
D03*
X210000Y147500D02*
D03*
X209500Y151500D02*
D03*
X262500Y191000D02*
D03*
X231000Y197000D02*
D03*
X210500Y186000D02*
D03*
D93*
X284343Y159740D02*
D03*
X274500Y163480D02*
D03*
X274500Y156000D02*
D03*
D94*
X269500Y83000D02*
D03*
X269520Y91230D02*
D03*
X287500Y117000D02*
D03*
X287510Y108730D02*
D03*
X298000Y117000D02*
D03*
X298010Y108730D02*
D03*
D95*
X164146Y116067D02*
D03*
Y107012D02*
D03*
Y125122D02*
D03*
D96*
X189500Y116000D02*
D03*
M02*
