M48
;Layer_Color=9474304
;FILE_FORMAT=2:5
INCH,LZ
;TYPE=PLATED
T1F00S00C0.01000
T2F00S00C0.01000
T3F00S00C0.01968
T4F00S00C0.02800
T5F00S00C0.03150
T6F00S00C0.03543
T7F00S00C0.03937
T8F00S00C0.05906
%
T01
X0231Y01325
T02
X03205Y00785
X03235Y00835
X0333Y00985
X03475Y00895
X03155Y0128
X03095Y01255
X03015Y0142
X0289Y01505
X0279Y01635
X0278Y01715
X02815Y01735
Y0183
X02735
X0265236Y0181264
X02625Y0191
X02635Y01975
X02705Y01735
X0253Y0173
X0245Y0157
X02415Y01585
X0250036Y0150464
X02445Y0137
X0235Y01375
X02335Y0135
X02245Y01505
X0227Y0155
X02245Y01585
X0222Y01605
X02245Y01635
X0222Y0178
X0211Y01815
X02105Y0186
X0208Y0164
X02075Y0161
X0208Y01575
X02095Y01515
X021Y01475
X02108Y01437
X02135Y0144
X02085Y0116
X01965
X0182Y01105
X0172Y0113
X01555Y01055
X0155Y00885
X017Y00875
X02075Y00935
X02085Y01
X0218Y00875
X0264Y0085
X02695Y0079
X0284Y01175
X0294Y0117
X02945Y0125
X0269Y0146
X0257Y0138
X0231Y0197
X0225Y02
X0173Y0166
X0176Y01555
X016627Y013399
X0145Y0124
X01275Y00985
X01315Y0091
X0125Y00875
X02394Y0277
X02395Y0302
T03
X0195Y0177
X02005
T04
X01965Y0141
Y01602
T05
X0247394Y0226764
Y0246744
T06
X0044354Y0030878
X0034354Y0048198
X0087179Y0046
X009584Y0051
X01045Y0056
X011316Y0061
X035416Y00625
X0362821Y00575
X04385Y004816
X04285Y003084
X0398981Y00805
X039032Y00855
X038166Y00905
X0373Y00955
X036434Y01005
X0355679Y01055
X0347019Y01105
X0338359Y01155
X033684Y00725
X03455Y00675
X0314428Y014284
X0308Y01505
X0301572Y015816
X0295144Y0165821
X02715Y02075
X02615
X02515
X02415
X02315
X02215
X02115
X0226Y01265
X0236
X0236Y01165
X0226
X0246
Y01265
X0256
Y01165
X02125Y00795
X02025
X01925
X01825
X0147801Y0081
X0139141Y0076
X0130481Y0071
X012182Y0066
X012016Y0106
X0128821Y0111
X01115Y0101
X010284Y0096
X02205Y02575
Y02675
Y02775
Y02875
Y02975
Y03075
Y03175
Y03275
X0226204Y0380493
X0246204
T07
X0302654Y0078658
Y00885
Y0098343
X0281Y0098343
X0281Y00885
X0281Y0078658
T08
X02315Y0092
X02515Y0092
M30
