G04*
G04 #@! TF.GenerationSoftware,Altium Limited,Altium Designer,18.0.12 (696)*
G04*
G04 Layer_Physical_Order=2*
G04 Layer_Color=16711680*
%FSLAX25Y25*%
%MOIN*%
G70*
G01*
G75*
%ADD10C,0.01000*%
%ADD16C,0.02000*%
%ADD18C,0.01500*%
%ADD29R,0.03500X0.03800*%
%ADD75C,0.03000*%
%ADD76R,0.05906X0.05906*%
%ADD77C,0.05906*%
%ADD78C,0.03150*%
%ADD79P,0.08352X4X355.0*%
%ADD80P,0.08352X4X375.0*%
%ADD81P,0.08352X4X255.0*%
%ADD82R,0.07874X0.07874*%
%ADD83C,0.07874*%
%ADD84C,0.11811*%
%ADD85C,0.06000*%
%ADD86R,0.05906X0.05906*%
%ADD87C,0.06200*%
%ADD88C,0.01500*%
%ADD89R,0.03937X0.03937*%
%ADD90R,0.05000X0.05000*%
%ADD91R,0.07900X0.05900*%
%ADD92R,0.07900X0.15000*%
G36*
X220470Y264547D02*
X220177Y264540D01*
X219893Y264513D01*
X219620Y264466D01*
X219356Y264399D01*
X219103Y264312D01*
X218860Y264205D01*
X218628Y264077D01*
X218405Y263930D01*
X218192Y263763D01*
X217990Y263576D01*
X216576Y264990D01*
X216763Y265192D01*
X216930Y265405D01*
X217077Y265628D01*
X217205Y265860D01*
X217312Y266103D01*
X217399Y266356D01*
X217466Y266620D01*
X217513Y266893D01*
X217540Y267177D01*
X217547Y267471D01*
X220470Y264547D01*
D02*
G37*
G36*
X250473Y414941D02*
X262570Y406858D01*
X270653Y394762D01*
X273491Y380493D01*
X271764Y371813D01*
X272014Y371752D01*
X269124Y357223D01*
X268435Y356191D01*
X268716Y356066D01*
X268413Y355334D01*
X268536Y355038D01*
X263209Y332852D01*
X260437Y297622D01*
X263209Y262392D01*
X271459Y228030D01*
X274594Y220462D01*
X273267Y219745D01*
X261110Y237597D01*
X260951Y237701D01*
X260878Y237878D01*
X260345Y238098D01*
X259863Y238414D01*
X259676Y238375D01*
X259500Y238448D01*
X242307D01*
X224646Y256109D01*
X224573Y256243D01*
X224495Y256420D01*
X224431Y256605D01*
X224381Y256801D01*
X224349Y256987D01*
X224562Y257500D01*
X223372Y260372D01*
X220500Y261562D01*
X218688Y260811D01*
X217838Y262083D01*
X219109Y263354D01*
X219243Y263427D01*
X219420Y263505D01*
X219605Y263569D01*
X219800Y263619D01*
X219987Y263651D01*
X220500Y263438D01*
X223372Y264628D01*
X224562Y267500D01*
X223372Y270372D01*
X220500Y271562D01*
X217628Y270372D01*
X216438Y267500D01*
X216651Y266987D01*
X216619Y266800D01*
X216569Y266605D01*
X216505Y266420D01*
X216427Y266243D01*
X216354Y266109D01*
X210796Y260552D01*
X209488Y261285D01*
X209810Y262628D01*
X212583Y297858D01*
X209810Y333088D01*
X204538Y355049D01*
X204796Y355672D01*
X204465Y356472D01*
X204996Y356734D01*
X203189Y359439D01*
X201230Y369285D01*
X201016Y370360D01*
X201016D01*
X201016Y370360D01*
X200664Y371714D01*
X198918Y380493D01*
X201756Y394762D01*
X209839Y406858D01*
X221936Y414941D01*
X236204Y417779D01*
X250473Y414941D01*
D02*
G37*
G36*
X223460Y257177D02*
X223487Y256893D01*
X223534Y256620D01*
X223601Y256357D01*
X223688Y256103D01*
X223795Y255860D01*
X223922Y255627D01*
X224070Y255405D01*
X224237Y255192D01*
X224424Y254990D01*
X223010Y253576D01*
X222808Y253763D01*
X222595Y253930D01*
X222373Y254078D01*
X222140Y254205D01*
X221897Y254312D01*
X221643Y254399D01*
X221380Y254466D01*
X221107Y254513D01*
X220823Y254540D01*
X220530Y254547D01*
X223453Y257470D01*
X223460Y257177D01*
D02*
G37*
G36*
X250338Y228121D02*
X250383Y227994D01*
X250459Y227881D01*
X250564Y227784D01*
X250700Y227701D01*
X250867Y227634D01*
X251063Y227581D01*
X251290Y227544D01*
X251547Y227521D01*
X251835Y227514D01*
Y226014D01*
X251547Y226006D01*
X251290Y225984D01*
X251063Y225946D01*
X250867Y225894D01*
X250700Y225826D01*
X250564Y225744D01*
X250459Y225646D01*
X250383Y225534D01*
X250338Y225406D01*
X250322Y225264D01*
Y228264D01*
X250338Y228121D01*
D02*
G37*
G36*
X217189Y259312D02*
X216438Y257500D01*
X217628Y254628D01*
X220500Y253438D01*
X221013Y253651D01*
X221199Y253619D01*
X221395Y253569D01*
X221580Y253505D01*
X221757Y253427D01*
X221891Y253354D01*
X240122Y235122D01*
X241500Y234552D01*
X258470D01*
X273314Y212753D01*
X272521Y211253D01*
X268178D01*
Y214000D01*
X267686Y215186D01*
X254923Y227950D01*
X253736Y228442D01*
X251198D01*
X251147Y228455D01*
Y230517D01*
X243641D01*
Y223011D01*
X251147D01*
Y225072D01*
X251198Y225086D01*
X253041D01*
X264822Y213305D01*
Y211809D01*
X263322Y210807D01*
X261500Y211562D01*
X258628Y210372D01*
X257438Y207500D01*
X258628Y204628D01*
X261500Y203438D01*
X263322Y204193D01*
X264822Y203191D01*
Y202500D01*
X265314Y201314D01*
X280670Y185958D01*
X280685Y185823D01*
X280099Y184407D01*
X274153D01*
X273500Y184678D01*
X272847Y184407D01*
X267500D01*
X267500Y184407D01*
X266505Y183995D01*
X266505Y183995D01*
X265388Y182878D01*
X265236Y182941D01*
X264050Y182450D01*
X263559Y181264D01*
X263622Y181112D01*
X260917Y178407D01*
X257000D01*
X256005Y177995D01*
X256005Y177995D01*
X252467Y174457D01*
X251814Y174186D01*
X251405Y173199D01*
X251322Y173000D01*
X251814Y171814D01*
X252013Y171731D01*
X252800Y171405D01*
X253000Y171322D01*
X254186Y171814D01*
X254269Y172013D01*
X254457Y172467D01*
X257583Y175593D01*
X261500D01*
X262495Y176005D01*
X266231Y179741D01*
X266231Y179741D01*
X266360Y180051D01*
X266423Y180078D01*
X266449Y180140D01*
X266759Y180269D01*
X268083Y181593D01*
X272847D01*
X273500Y181322D01*
X274153Y181593D01*
X280847D01*
X281500Y181322D01*
X281822Y181456D01*
X283322Y180490D01*
Y176263D01*
X282000Y175379D01*
Y173500D01*
X281000D01*
Y175187D01*
X280161Y174839D01*
X279819Y174014D01*
X279569Y173489D01*
X278220Y173087D01*
X278000Y173178D01*
X276814Y172686D01*
X276543Y172033D01*
X275917Y171407D01*
X273046D01*
X272149Y172907D01*
X272187Y173000D01*
X268813D01*
X268851Y172907D01*
X267954Y171407D01*
X258000D01*
X258000Y171407D01*
X257005Y170995D01*
X257005Y170995D01*
X244948Y158938D01*
X243578Y159506D01*
X243448Y159659D01*
Y166000D01*
X242878Y167378D01*
X204448Y205807D01*
Y221540D01*
X211168Y228259D01*
X211738Y229637D01*
Y255983D01*
X215917Y260162D01*
X217189Y259312D01*
D02*
G37*
G36*
X210492Y185250D02*
X210483Y185247D01*
X210467Y185238D01*
X210446Y185222D01*
X210387Y185171D01*
X210201Y184993D01*
X210140Y184933D01*
X209433Y185640D01*
X209750Y185993D01*
X210492Y185250D01*
D02*
G37*
G36*
X280964Y182475D02*
X280955Y182480D01*
X280938Y182484D01*
X280911Y182488D01*
X280834Y182494D01*
X280576Y182500D01*
X280491Y182500D01*
Y183500D01*
X280964Y183525D01*
Y182475D01*
D02*
G37*
G36*
X274045Y183520D02*
X274062Y183516D01*
X274089Y183512D01*
X274166Y183506D01*
X274424Y183500D01*
X274509Y183500D01*
Y182500D01*
X274036Y182475D01*
Y183525D01*
X274045Y183520D01*
D02*
G37*
G36*
X272964Y182475D02*
X272955Y182480D01*
X272938Y182484D01*
X272912Y182488D01*
X272834Y182494D01*
X272576Y182500D01*
X272491Y182500D01*
Y183500D01*
X272964Y183525D01*
Y182475D01*
D02*
G37*
G36*
X266632Y181425D02*
X265906Y180926D01*
X265616Y181911D01*
X265629Y181908D01*
X265648Y181912D01*
X265672Y181923D01*
X265702Y181940D01*
X265736Y181965D01*
X265821Y182036D01*
X265927Y182135D01*
X265987Y182194D01*
X266632Y181425D01*
D02*
G37*
G36*
X211520Y180955D02*
X211516Y180938D01*
X211512Y180912D01*
X211506Y180834D01*
X211500Y180577D01*
X211500Y180491D01*
X210500D01*
X210475Y180964D01*
X211525D01*
X211520Y180955D01*
D02*
G37*
G36*
X265574Y180594D02*
X265075Y179868D01*
X264306Y180513D01*
X264365Y180573D01*
X264560Y180798D01*
X264577Y180828D01*
X264588Y180852D01*
X264592Y180871D01*
X264589Y180884D01*
X265574Y180594D01*
D02*
G37*
G36*
X202737Y177530D02*
X202642Y177432D01*
X202463Y177221D01*
X202378Y177109D01*
X202216Y176872D01*
X202067Y176615D01*
X201930Y176340D01*
X201221Y178400D01*
X201349Y178343D01*
X201474Y178303D01*
X201598Y178281D01*
X201721Y178278D01*
X201841Y178291D01*
X201960Y178323D01*
X202077Y178372D01*
X202193Y178439D01*
X202306Y178523D01*
X202418Y178626D01*
X202737Y177530D01*
D02*
G37*
G36*
X254067Y173360D02*
X253750Y173008D01*
X253008Y173750D01*
X253017Y173753D01*
X253033Y173763D01*
X253054Y173778D01*
X253113Y173829D01*
X253299Y174007D01*
X253360Y174067D01*
X254067Y173360D01*
D02*
G37*
G36*
X280964Y172975D02*
X280955Y172980D01*
X280938Y172984D01*
X280911Y172988D01*
X280834Y172994D01*
X280576Y173000D01*
X280491Y173000D01*
Y174000D01*
X280964Y174025D01*
Y172975D01*
D02*
G37*
G36*
X277993Y170750D02*
X277983Y170747D01*
X277967Y170738D01*
X277946Y170722D01*
X277887Y170671D01*
X277701Y170493D01*
X277640Y170433D01*
X276933Y171140D01*
X277250Y171493D01*
X277993Y170750D01*
D02*
G37*
G36*
X278464Y162975D02*
X278455Y162980D01*
X278438Y162984D01*
X278412Y162988D01*
X278334Y162994D01*
X278077Y163000D01*
X277991Y163000D01*
Y164000D01*
X278464Y164025D01*
Y162975D01*
D02*
G37*
G36*
X276466Y164405D02*
X276497Y164320D01*
X276547Y164245D01*
X276617Y164180D01*
X276707Y164125D01*
X276817Y164080D01*
X276946Y164045D01*
X277097Y164020D01*
X277267Y164005D01*
X277456Y164000D01*
Y163000D01*
X277267Y162995D01*
X277097Y162980D01*
X276946Y162955D01*
X276817Y162920D01*
X276707Y162875D01*
X276617Y162820D01*
X276547Y162755D01*
X276497Y162680D01*
X276466Y162595D01*
X276456Y162500D01*
Y164500D01*
X276466Y164405D01*
D02*
G37*
G36*
X222525Y161036D02*
X221475D01*
X221480Y161045D01*
X221484Y161062D01*
X221488Y161089D01*
X221494Y161166D01*
X221500Y161424D01*
X221500Y161509D01*
X222500D01*
X222525Y161036D01*
D02*
G37*
G36*
X296496Y163219D02*
X296369Y163148D01*
X296258Y163036D01*
X296162Y162883D01*
X296080Y162689D01*
X296013Y162455D01*
X295961Y162180D01*
X295924Y161865D01*
X295902Y161508D01*
X295894Y161111D01*
X294394Y160640D01*
X294387Y161105D01*
X294328Y161886D01*
X294276Y162202D01*
X294209Y162467D01*
X294128Y162682D01*
X294031Y162847D01*
X293920Y162962D01*
X293794Y163026D01*
X293653Y163041D01*
X296637Y163250D01*
X296496Y163219D01*
D02*
G37*
G36*
X200552Y221911D02*
Y205000D01*
X201122Y203622D01*
X239552Y165193D01*
Y158500D01*
X240122Y157122D01*
X240543Y156948D01*
X240244Y155448D01*
X235307D01*
X225878Y164878D01*
X224500Y165448D01*
X223122Y164878D01*
X222654Y163747D01*
X222000Y162394D01*
X220661Y161839D01*
X220313Y161000D01*
X222000D01*
Y160000D01*
X220313D01*
X220661Y159161D01*
X220707Y159141D01*
X221289Y158900D01*
X221730Y157220D01*
X212923Y148413D01*
X211186Y148686D01*
X210932Y148792D01*
X210686Y150314D01*
X211178Y151500D01*
X210769Y152487D01*
X210686Y152686D01*
X209500Y153178D01*
X209300Y153095D01*
X208847Y152907D01*
X178046D01*
X177442Y154407D01*
X177687Y155000D01*
X177009D01*
X176536Y154975D01*
Y155000D01*
X174313D01*
X174558Y154407D01*
X173954Y152907D01*
X160802D01*
X160215Y153718D01*
X160013Y154293D01*
X169573Y165486D01*
X169937Y166080D01*
X171453Y165684D01*
X171814Y164814D01*
X173000Y164322D01*
X192846D01*
X193473Y162822D01*
X192387Y160200D01*
X193592Y157292D01*
X196500Y156087D01*
X199408Y157292D01*
X200613Y160200D01*
X199527Y162822D01*
X200154Y164322D01*
X205305D01*
X205810Y163818D01*
X206161Y162339D01*
X205917Y161751D01*
X205813Y161500D01*
X207500D01*
Y160500D01*
X207242D01*
X207492Y160250D01*
X207483Y160247D01*
X207467Y160238D01*
X207446Y160222D01*
X207387Y160171D01*
X207201Y159993D01*
X207140Y159933D01*
X206573Y160500D01*
X205813D01*
X206161Y159661D01*
X206814Y158686D01*
X206322Y157500D01*
X206814Y156314D01*
X208000Y155822D01*
X209186Y156314D01*
X209457Y156967D01*
X211995Y159505D01*
X212407Y160500D01*
Y180847D01*
X212595Y181300D01*
X212678Y181500D01*
X212186Y182686D01*
X211987Y182769D01*
X211558Y182947D01*
X211079Y184404D01*
X211082Y184564D01*
X211686Y184814D01*
X212178Y186000D01*
X211686Y187186D01*
X210500Y187678D01*
X209314Y187186D01*
X209231Y186987D01*
X209043Y186533D01*
X201662Y179152D01*
X201657Y179154D01*
X201576Y179190D01*
X201407Y179195D01*
X200500Y179570D01*
X198682Y178818D01*
X198562Y178526D01*
X196938D01*
X196818Y178818D01*
X195000Y179570D01*
X193182Y178818D01*
X192429Y177000D01*
X193182Y175182D01*
X195000Y174430D01*
X196818Y175182D01*
X196938Y175474D01*
X198562D01*
X198682Y175182D01*
X200500Y174430D01*
X202318Y175182D01*
X202599Y175862D01*
X202705Y175954D01*
X202829Y176204D01*
X202950Y176410D01*
X203054Y176564D01*
X207937Y181447D01*
X209553Y180942D01*
X209593Y180847D01*
Y166901D01*
X208093Y166280D01*
X207186Y167186D01*
X206000Y167678D01*
X173000D01*
X172564Y167497D01*
X171540Y168697D01*
X188037Y195617D01*
X199052Y222209D01*
X200552Y221911D01*
D02*
G37*
G36*
X209067Y157860D02*
X208750Y157508D01*
X208008Y158250D01*
X208017Y158253D01*
X208033Y158263D01*
X208054Y158278D01*
X208113Y158329D01*
X208299Y158507D01*
X208360Y158567D01*
X209067Y157860D01*
D02*
G37*
G36*
X224825Y157824D02*
X224318Y157111D01*
X223558Y157765D01*
X223618Y157826D01*
X223787Y158017D01*
X223812Y158052D01*
X223830Y158081D01*
X223841Y158106D01*
X223845Y158126D01*
X223842Y158140D01*
X224825Y157824D01*
D02*
G37*
G36*
X246067Y157360D02*
X245750Y157008D01*
X245007Y157750D01*
X245017Y157753D01*
X245033Y157763D01*
X245054Y157778D01*
X245113Y157829D01*
X245299Y158007D01*
X245360Y158067D01*
X246067Y157360D01*
D02*
G37*
G36*
X286212Y157754D02*
X286135Y157664D01*
X286066Y157514D01*
X286007Y157304D01*
X285957Y157034D01*
X285916Y156704D01*
X285861Y155864D01*
X285842Y154784D01*
X282842D01*
X282838Y155354D01*
X282728Y157034D01*
X282678Y157304D01*
X282619Y157514D01*
X282550Y157664D01*
X282473Y157754D01*
X282386Y157784D01*
X286299D01*
X286212Y157754D01*
D02*
G37*
G36*
X272555Y154500D02*
X272540Y154642D01*
X272495Y154770D01*
X272419Y154883D01*
X272314Y154980D01*
X272178Y155062D01*
X272011Y155130D01*
X271815Y155183D01*
X271588Y155220D01*
X271331Y155243D01*
X271043Y155250D01*
Y156750D01*
X271331Y156757D01*
X271588Y156780D01*
X271815Y156817D01*
X272011Y156870D01*
X272178Y156938D01*
X272314Y157020D01*
X272419Y157117D01*
X272495Y157230D01*
X272540Y157358D01*
X272555Y157500D01*
Y154500D01*
D02*
G37*
G36*
X226464Y154475D02*
X226455Y154480D01*
X226438Y154484D01*
X226412Y154488D01*
X226334Y154494D01*
X226077Y154500D01*
X225991Y154500D01*
Y155500D01*
X226464Y155525D01*
Y154475D01*
D02*
G37*
G36*
X303447Y165250D02*
X326398Y138378D01*
X327010Y137856D01*
X326490Y136448D01*
X273307D01*
X267068Y142687D01*
X267918Y143959D01*
X269000Y143510D01*
X279500D01*
X281260Y144240D01*
X286103Y149082D01*
X287540Y149120D01*
X287725Y149080D01*
X288992Y148555D01*
X289000Y148552D01*
X290378Y149122D01*
X290381Y149130D01*
X290948Y150500D01*
Y161738D01*
X292448Y162702D01*
X292981Y162496D01*
X293050Y162458D01*
X293085Y162388D01*
X293142Y162369D01*
X293426Y162031D01*
X293427Y162025D01*
X293466Y161786D01*
Y148356D01*
X293958Y147169D01*
X300314Y140814D01*
X301500Y140322D01*
X302686Y140814D01*
X303178Y142000D01*
X302686Y143186D01*
X296822Y149051D01*
Y155758D01*
X298322Y155989D01*
X298461Y155550D01*
X301218Y154114D01*
X304183Y155049D01*
X305619Y157806D01*
X304684Y160771D01*
X301926Y162207D01*
X298961Y161272D01*
X298322Y160044D01*
X296822Y160411D01*
Y162073D01*
X296856Y162255D01*
X296895Y162391D01*
X297170Y162622D01*
X297290Y162682D01*
X297309Y162739D01*
X297340Y162765D01*
X297365Y162782D01*
X297366Y162786D01*
X300431Y165358D01*
X295607Y171108D01*
X292308Y168340D01*
X290948Y168974D01*
Y174000D01*
X290849Y174240D01*
Y183045D01*
X292293Y183452D01*
X303447Y165250D01*
D02*
G37*
G36*
X233122Y152122D02*
X234500Y151552D01*
X247415D01*
X248142Y150464D01*
X248697Y149124D01*
X248743Y149105D01*
X249536Y148777D01*
Y150464D01*
X250536D01*
Y148777D01*
X251329Y149105D01*
X251376Y149124D01*
X251851Y150272D01*
X253316Y150928D01*
X256796Y147448D01*
X256175Y145948D01*
X219560D01*
X218938Y147448D01*
X221277Y149787D01*
X223047Y149435D01*
X223141Y149207D01*
X223161Y149161D01*
X224000Y148813D01*
Y150500D01*
X224500D01*
Y151000D01*
X225036D01*
Y151025D01*
X225045Y151020D01*
X225062Y151016D01*
X225089Y151012D01*
X225166Y151006D01*
X225424Y151000D01*
X225509Y151000D01*
X226187D01*
X225957Y151555D01*
X226501Y153137D01*
X226992Y153326D01*
X227000Y153322D01*
X228186Y153814D01*
X228515Y154608D01*
X230064Y155181D01*
X233122Y152122D01*
D02*
G37*
G36*
X208964Y150975D02*
X208955Y150980D01*
X208938Y150984D01*
X208911Y150988D01*
X208834Y150994D01*
X208576Y151000D01*
X208491Y151000D01*
Y152000D01*
X208964Y152025D01*
Y150975D01*
D02*
G37*
G36*
X249476Y149965D02*
X249465Y149972D01*
X249447Y149978D01*
X249420Y149983D01*
X249384Y149987D01*
X249289Y149994D01*
X248997Y150000D01*
X249062Y151000D01*
X249527Y151014D01*
X249476Y149965D01*
D02*
G37*
G36*
X209464Y146975D02*
X209455Y146980D01*
X209438Y146984D01*
X209412Y146988D01*
X209334Y146994D01*
X209076Y147000D01*
X208991Y147000D01*
Y148000D01*
X209464Y148025D01*
Y146975D01*
D02*
G37*
G36*
X211699Y144492D02*
X211639Y144432D01*
X211445Y144210D01*
X211427Y144182D01*
X211416Y144159D01*
X211411Y144142D01*
X211414Y144130D01*
X210429Y144352D01*
X210902Y145109D01*
X211699Y144492D01*
D02*
G37*
G36*
X214567Y144360D02*
X214250Y144008D01*
X213508Y144750D01*
X213517Y144753D01*
X213533Y144763D01*
X213554Y144778D01*
X213613Y144829D01*
X213799Y145007D01*
X213860Y145067D01*
X214567Y144360D01*
D02*
G37*
G36*
X225551Y140525D02*
X225601Y140520D01*
X225789Y140511D01*
X227059Y140500D01*
Y139500D01*
X225530Y139469D01*
Y140531D01*
X225551Y140525D01*
D02*
G37*
G36*
X244493Y137750D02*
X243750Y137007D01*
X243747Y137017D01*
X243738Y137033D01*
X243722Y137054D01*
X243671Y137113D01*
X243493Y137299D01*
X243433Y137360D01*
X244140Y138067D01*
X244493Y137750D01*
D02*
G37*
G36*
X235545Y138020D02*
X235562Y138016D01*
X235589Y138012D01*
X235666Y138006D01*
X235924Y138000D01*
X236009Y138000D01*
Y137000D01*
X235536Y136975D01*
Y138025D01*
X235545Y138020D01*
D02*
G37*
G36*
X255711Y141579D02*
X255240Y139760D01*
X254510Y138000D01*
X255240Y136240D01*
X265511Y125969D01*
Y107531D01*
X262240Y104260D01*
X261510Y102500D01*
Y85000D01*
X262240Y83240D01*
X264000Y82511D01*
X264700Y82801D01*
X266200Y81798D01*
Y79700D01*
X267010D01*
Y79000D01*
X267740Y77240D01*
X269500Y76511D01*
X271260Y77240D01*
X271989Y79000D01*
Y79700D01*
X272800D01*
Y86300D01*
X272800D01*
X272969Y87730D01*
X273020D01*
Y90730D01*
X269520D01*
Y91230D01*
X269020D01*
Y94730D01*
X266490D01*
Y101469D01*
X269760Y104740D01*
X270490Y106500D01*
Y126134D01*
X271989Y126755D01*
X278659Y120086D01*
X278085Y118700D01*
X275950D01*
Y113300D01*
X278637D01*
X279971Y112131D01*
X280086Y111814D01*
X280085Y111800D01*
X275950D01*
Y106400D01*
X281050D01*
Y107408D01*
X281102Y107422D01*
X284151D01*
X284204Y107408D01*
X284210Y107406D01*
Y105430D01*
X290810D01*
Y107038D01*
X290862Y107052D01*
X294651D01*
X294704Y107038D01*
X294710Y107036D01*
Y105430D01*
X301310D01*
Y107038D01*
X301362Y107052D01*
X304391D01*
X304445Y107038D01*
X304450Y107036D01*
Y106400D01*
X305262Y106364D01*
X305280Y106371D01*
X305353Y106369D01*
X305410Y106400D01*
X309550D01*
Y111800D01*
X305411D01*
X305411Y111815D01*
X306859Y113300D01*
X309550D01*
Y118700D01*
X307821D01*
X307760Y118760D01*
X306000Y119490D01*
X301839D01*
X301757Y119504D01*
X301513Y119570D01*
X301358Y119632D01*
X301327Y119651D01*
X301300Y119695D01*
Y120300D01*
X300488Y120354D01*
X300451Y120339D01*
X300351Y120343D01*
X300281Y120300D01*
X294700D01*
Y119490D01*
X294000D01*
X292240Y118760D01*
X290800Y119204D01*
Y120300D01*
X285948D01*
Y122193D01*
X293307Y129552D01*
X312625D01*
X313328Y128500D01*
X317672D01*
X318375Y129552D01*
X321552D01*
X334213Y116891D01*
X334286Y116757D01*
X334364Y116580D01*
X334428Y116395D01*
X334478Y116200D01*
X334513Y115992D01*
X334534Y115772D01*
X334541Y115509D01*
X334567Y115449D01*
X334435Y114449D01*
X336328Y111982D01*
X339410Y111576D01*
X341877Y113469D01*
X342258Y116365D01*
X343543Y117202D01*
X345071Y115674D01*
Y114415D01*
X345028Y114268D01*
X344958Y114089D01*
X344872Y113913D01*
X344769Y113739D01*
X344648Y113567D01*
X344507Y113396D01*
X344326Y113206D01*
X344302Y113145D01*
X343501Y112531D01*
X343096Y109449D01*
X344988Y106982D01*
X348071Y106577D01*
X350537Y108469D01*
X350943Y111551D01*
X349753Y113101D01*
X349713Y113206D01*
X349532Y113397D01*
X349467Y113475D01*
X349328Y113655D01*
X349269Y113739D01*
X349166Y113913D01*
X349080Y114089D01*
X349010Y114268D01*
X348968Y114415D01*
Y116481D01*
X348552Y117484D01*
X349800Y118391D01*
X353270Y115427D01*
X383401Y96963D01*
X416050Y83439D01*
X427514Y80687D01*
X427581Y79744D01*
X434272Y78863D01*
X445520Y74204D01*
X446801Y73673D01*
X448313Y73325D01*
X459420Y65903D01*
X467503Y53807D01*
X470341Y39538D01*
X467503Y25269D01*
X459420Y13172D01*
X447324Y5090D01*
X433055Y2251D01*
X418786Y5090D01*
X407617Y12552D01*
X407479Y13347D01*
X407479Y13347D01*
X407479D01*
X400048Y19048D01*
X395683Y24738D01*
X394969Y24544D01*
X371848Y44291D01*
X341040Y63171D01*
X323202Y70560D01*
X323119Y70778D01*
X323119Y70778D01*
X323119Y70778D01*
X321263Y72019D01*
X308000Y74657D01*
X307725Y74602D01*
X306646Y75917D01*
X307781Y78658D01*
X306279Y82283D01*
X304962Y82829D01*
Y84329D01*
X306279Y84874D01*
X307781Y88500D01*
X306279Y92126D01*
X304962Y92671D01*
Y94171D01*
X306279Y94717D01*
X307781Y98343D01*
X306279Y101968D01*
X302654Y103470D01*
X299028Y101968D01*
X297526Y98343D01*
X299028Y94717D01*
X300345Y94171D01*
Y92671D01*
X299028Y92126D01*
X297526Y88500D01*
X299028Y84874D01*
X300345Y84329D01*
Y82829D01*
X299028Y82283D01*
X297526Y78658D01*
X298855Y75448D01*
X298152Y73948D01*
X285502D01*
X284798Y75448D01*
X286127Y78658D01*
X284626Y82283D01*
X283308Y82829D01*
Y84329D01*
X284626Y84874D01*
X286127Y88500D01*
X284626Y92125D01*
X284604Y92134D01*
X284897Y93606D01*
X285737D01*
Y103079D01*
X276263D01*
Y93606D01*
X277103D01*
X277396Y92134D01*
X277374Y92125D01*
X275873Y88500D01*
X277374Y84874D01*
X278692Y84329D01*
Y82829D01*
X277374Y82283D01*
X275873Y78658D01*
X277202Y75448D01*
X276498Y73948D01*
X203346Y73948D01*
X203047Y75448D01*
X205525Y76475D01*
X206571Y79000D01*
X198429D01*
X199475Y76475D01*
X201953Y75448D01*
X201654Y73948D01*
X162405D01*
X161039Y74273D01*
X160250Y74429D01*
X159546Y74289D01*
X152628Y72913D01*
X151475Y74095D01*
X151467Y74212D01*
X166687Y89432D01*
X167959Y88582D01*
X167510Y87500D01*
X168240Y85740D01*
X170000Y85010D01*
X201555D01*
X201853Y83511D01*
X199475Y82525D01*
X198429Y80000D01*
X206571D01*
X205525Y82525D01*
X203147Y83511D01*
X203445Y85010D01*
X218000D01*
X219760Y85740D01*
X220490Y87500D01*
X219760Y89260D01*
X218000Y89990D01*
X170000D01*
X168918Y89541D01*
X168068Y90813D01*
X171307Y94052D01*
X198500D01*
X199878Y94622D01*
X205166Y99911D01*
X206793Y99417D01*
X207119Y98630D01*
X207122Y98622D01*
X208500Y98052D01*
X208508Y98055D01*
X209878Y98622D01*
X218378Y107122D01*
X218948Y108500D01*
Y120693D01*
X222090Y123834D01*
X223128Y123628D01*
X226000Y122438D01*
X227983Y123259D01*
X229173Y123451D01*
X230107Y122903D01*
X232403Y120607D01*
X232527Y120395D01*
X232863Y118733D01*
X231938Y116500D01*
X233128Y113628D01*
X236000Y112438D01*
X238872Y113628D01*
X240062Y116500D01*
X239655Y117483D01*
X240606Y119107D01*
X241318Y119192D01*
X241857Y118654D01*
X241913Y118540D01*
X241979Y118366D01*
X242039Y118152D01*
X242091Y117902D01*
X242131Y117623D01*
X242169Y117058D01*
X241938Y116500D01*
X243128Y113628D01*
X246000Y112438D01*
X248872Y113628D01*
X250062Y116500D01*
X249655Y117483D01*
X250606Y119107D01*
X251319Y119192D01*
X251856Y118654D01*
X251913Y118540D01*
X251979Y118366D01*
X252039Y118152D01*
X252091Y117902D01*
X252131Y117623D01*
X252169Y117058D01*
X251938Y116500D01*
X253128Y113628D01*
X256000Y112438D01*
X258872Y113628D01*
X260062Y116500D01*
X258872Y119372D01*
X256000Y120562D01*
X255442Y120331D01*
X254877Y120369D01*
X254598Y120409D01*
X254347Y120461D01*
X254134Y120521D01*
X253960Y120587D01*
X253847Y120643D01*
X251995Y122495D01*
X251000Y122907D01*
X250111D01*
X249195Y124407D01*
X250062Y126500D01*
X248872Y129372D01*
X247473Y129952D01*
X247344Y130074D01*
X247344D01*
X247344Y130074D01*
X246426Y130427D01*
X245386Y130868D01*
X244928Y131096D01*
X244848Y131142D01*
X238897Y137093D01*
X239518Y138593D01*
X240917D01*
X243043Y136467D01*
X243231Y136013D01*
X243314Y135814D01*
X244500Y135322D01*
X245686Y135814D01*
X246178Y137000D01*
X245686Y138186D01*
X245033Y138457D01*
X242938Y140552D01*
X243560Y142052D01*
X255358D01*
X255711Y141579D01*
D02*
G37*
G36*
X234045Y135520D02*
X234062Y135516D01*
X234088Y135512D01*
X234166Y135506D01*
X234423Y135500D01*
X234509Y135500D01*
Y134500D01*
X234036Y134475D01*
Y135525D01*
X234045Y135520D01*
D02*
G37*
G36*
X165661Y130488D02*
X165706Y129976D01*
X165781Y129524D01*
X165886Y129132D01*
X166021Y128801D01*
X166186Y128530D01*
X166381Y128319D01*
X166606Y128168D01*
X166861Y128078D01*
X167146Y128048D01*
X161146D01*
X161431Y128078D01*
X161686Y128168D01*
X161911Y128319D01*
X162106Y128530D01*
X162271Y128801D01*
X162406Y129132D01*
X162511Y129524D01*
X162586Y129976D01*
X162631Y130488D01*
X162646Y131060D01*
X165646D01*
X165661Y130488D01*
D02*
G37*
G36*
X244182Y130541D02*
X244329Y130442D01*
X244518Y130332D01*
X245024Y130081D01*
X246102Y129624D01*
X247033Y129266D01*
X243255Y127588D01*
X243379Y127930D01*
X243471Y128254D01*
X243533Y128560D01*
X243563Y128848D01*
X243563Y129118D01*
X243531Y129370D01*
X243468Y129604D01*
X243374Y129821D01*
X243250Y130019D01*
X243094Y130199D01*
X244078Y130629D01*
X244182Y130541D01*
D02*
G37*
G36*
X223312Y125278D02*
X223281Y125320D01*
X223227Y125358D01*
X223151Y125391D01*
X223054Y125420D01*
X222934Y125445D01*
X222791Y125464D01*
X222440Y125491D01*
X222000Y125500D01*
Y127500D01*
X222231Y127502D01*
X222934Y127555D01*
X223054Y127580D01*
X223151Y127609D01*
X223227Y127642D01*
X223281Y127680D01*
X223312Y127722D01*
Y125278D01*
D02*
G37*
G36*
X160220Y122536D02*
X160194Y122743D01*
X160116Y122927D01*
X159986Y123090D01*
X159804Y123231D01*
X159570Y123351D01*
X159284Y123448D01*
X158947Y123524D01*
X158557Y123579D01*
X158115Y123611D01*
X157622Y123622D01*
Y126622D01*
X158115Y126633D01*
X158947Y126720D01*
X159284Y126796D01*
X159570Y126893D01*
X159804Y127013D01*
X159986Y127154D01*
X160116Y127317D01*
X160194Y127501D01*
X160220Y127708D01*
Y122536D01*
D02*
G37*
G36*
X253204Y120025D02*
X253395Y119901D01*
X253615Y119792D01*
X253864Y119698D01*
X254142Y119620D01*
X254449Y119556D01*
X254785Y119507D01*
X255546Y119456D01*
X255971Y119453D01*
X253047Y116530D01*
X253044Y116954D01*
X252993Y117715D01*
X252944Y118051D01*
X252881Y118358D01*
X252802Y118637D01*
X252708Y118886D01*
X252599Y119105D01*
X252475Y119296D01*
X252336Y119457D01*
X253043Y120164D01*
X253204Y120025D01*
D02*
G37*
G36*
X243204D02*
X243395Y119901D01*
X243615Y119792D01*
X243864Y119698D01*
X244142Y119620D01*
X244449Y119556D01*
X244785Y119507D01*
X245546Y119456D01*
X245971Y119453D01*
X243047Y116530D01*
X243044Y116954D01*
X242993Y117715D01*
X242944Y118051D01*
X242881Y118358D01*
X242802Y118637D01*
X242708Y118886D01*
X242599Y119105D01*
X242475Y119296D01*
X242336Y119457D01*
X243043Y120164D01*
X243204Y120025D01*
D02*
G37*
G36*
X285012Y116488D02*
X285002Y116490D01*
X284971Y116492D01*
X284516Y116499D01*
X284000Y116500D01*
Y118500D01*
X285012Y118512D01*
Y116488D01*
D02*
G37*
G36*
X336051Y119237D02*
X336264Y119070D01*
X336487Y118922D01*
X336719Y118795D01*
X336962Y118688D01*
X337215Y118601D01*
X337479Y118534D01*
X337752Y118487D01*
X338036Y118460D01*
X338329Y118453D01*
X335406Y115530D01*
X335399Y115823D01*
X335372Y116107D01*
X335325Y116380D01*
X335258Y116644D01*
X335171Y116897D01*
X335064Y117140D01*
X334936Y117373D01*
X334789Y117595D01*
X334622Y117808D01*
X334435Y118010D01*
X335849Y119424D01*
X336051Y119237D01*
D02*
G37*
G36*
X295512Y115488D02*
X295497Y115490D01*
X295451Y115492D01*
X294000Y115500D01*
Y118500D01*
X295512Y118512D01*
Y115488D01*
D02*
G37*
G36*
X188923Y115183D02*
X188858Y115212D01*
X188760Y115231D01*
X188628Y115240D01*
X188462Y115239D01*
X188029Y115207D01*
X187127Y115084D01*
X186760Y115023D01*
X186591Y116009D01*
X186958Y116074D01*
X188424Y116426D01*
X188546Y116479D01*
X188633Y116529D01*
X188684Y116578D01*
X188923Y115183D01*
D02*
G37*
G36*
X185562Y114310D02*
X185552Y114405D01*
X185523Y114486D01*
X185473Y114554D01*
X185404Y114608D01*
X185316Y114649D01*
X185207Y114676D01*
X185079Y114689D01*
X184931Y114689D01*
X184764Y114676D01*
X184576Y114649D01*
Y115663D01*
X184764Y115700D01*
X184931Y115744D01*
X185079Y115795D01*
X185207Y115852D01*
X185316Y115917D01*
X185404Y115988D01*
X185473Y116066D01*
X185523Y116150D01*
X185552Y116241D01*
X185562Y116340D01*
Y114310D01*
D02*
G37*
G36*
X300518Y119300D02*
X300608Y119132D01*
X300758Y118984D01*
X300968Y118856D01*
X301238Y118747D01*
X301568Y118658D01*
X301958Y118589D01*
X302408Y118540D01*
X303488Y118500D01*
Y118449D01*
X304182Y118402D01*
X304512Y118347D01*
X304782Y118280D01*
X304992Y118200D01*
X305142Y118108D01*
X305232Y118004D01*
X305262Y117888D01*
Y114112D01*
X305232Y114376D01*
X305142Y114612D01*
X304992Y114820D01*
X304782Y115000D01*
X304512Y115153D01*
X304182Y115278D01*
X303792Y115375D01*
X303342Y115445D01*
X302851Y115485D01*
X301958Y115411D01*
X301568Y115342D01*
X301238Y115253D01*
X300968Y115144D01*
X300758Y115016D01*
X300608Y114868D01*
X300518Y114700D01*
X300488Y114512D01*
Y119488D01*
X300518Y119300D01*
D02*
G37*
G36*
X280258Y117719D02*
X280318Y117568D01*
X280418Y117435D01*
X280558Y117320D01*
X280738Y117222D01*
X280958Y117142D01*
X281218Y117080D01*
X281518Y117035D01*
X281858Y117009D01*
X282238Y117000D01*
Y115000D01*
X281858Y114991D01*
X281518Y114964D01*
X281218Y114920D01*
X280958Y114858D01*
X280738Y114778D01*
X280558Y114680D01*
X280418Y114565D01*
X280318Y114432D01*
X280258Y114281D01*
X280238Y114112D01*
Y117888D01*
X280258Y117719D01*
D02*
G37*
G36*
X193446Y117810D02*
X193507Y117640D01*
X193607Y117490D01*
X193748Y117360D01*
X193929Y117250D01*
X194150Y117160D01*
X194412Y117090D01*
X194714Y117040D01*
X195056Y117010D01*
X195438Y117000D01*
Y115000D01*
X195056Y114990D01*
X194714Y114960D01*
X194412Y114910D01*
X194150Y114840D01*
X193929Y114750D01*
X193748Y114640D01*
X193607Y114510D01*
X193507Y114360D01*
X193446Y114190D01*
X193426Y114000D01*
Y118000D01*
X193446Y117810D01*
D02*
G37*
G36*
X174114Y112855D02*
X172612Y112566D01*
X172433Y113613D01*
X172454Y113610D01*
X172504Y113614D01*
X172692Y113637D01*
X173945Y113841D01*
X174114Y112855D01*
D02*
G37*
G36*
X348030Y114774D02*
X348062Y114506D01*
X348115Y114244D01*
X348190Y113989D01*
X348286Y113742D01*
X348403Y113501D01*
X348542Y113268D01*
X348702Y113041D01*
X348883Y112821D01*
X349086Y112609D01*
X344952D01*
X345155Y112821D01*
X345336Y113041D01*
X345497Y113268D01*
X345635Y113501D01*
X345753Y113742D01*
X345848Y113989D01*
X345923Y114244D01*
X345977Y114506D01*
X346009Y114774D01*
X346019Y115050D01*
X348019D01*
X348030Y114774D01*
D02*
G37*
G36*
X120676Y110469D02*
X120723Y110247D01*
X120801Y110015D01*
X120911Y109772D01*
X121052Y109520D01*
X121224Y109258D01*
X121428Y108985D01*
X121930Y108411D01*
X122227Y108109D01*
X118093D01*
X118391Y108411D01*
X118893Y108985D01*
X119096Y109258D01*
X119269Y109520D01*
X119410Y109772D01*
X119519Y110015D01*
X119598Y110247D01*
X119645Y110469D01*
X119660Y110682D01*
X120660D01*
X120676Y110469D01*
D02*
G37*
G36*
X285022Y107600D02*
X285007Y107743D01*
X284962Y107870D01*
X284887Y107983D01*
X284782Y108080D01*
X284647Y108162D01*
X284482Y108230D01*
X284287Y108282D01*
X284062Y108320D01*
X283807Y108343D01*
X283522Y108350D01*
Y109850D01*
X283807Y109857D01*
X284062Y109880D01*
X284287Y109917D01*
X284482Y109970D01*
X284647Y110038D01*
X284782Y110120D01*
X284887Y110217D01*
X284962Y110330D01*
X285007Y110458D01*
X285022Y110600D01*
Y107600D01*
D02*
G37*
G36*
X280241Y110458D02*
X280287Y110330D01*
X280362Y110217D01*
X280468Y110120D01*
X280604Y110038D01*
X280770Y109970D01*
X280967Y109917D01*
X281194Y109880D01*
X281451Y109857D01*
X281738Y109850D01*
Y108350D01*
X281451Y108343D01*
X281194Y108320D01*
X280967Y108282D01*
X280770Y108230D01*
X280604Y108162D01*
X280468Y108080D01*
X280362Y107983D01*
X280287Y107870D01*
X280241Y107743D01*
X280226Y107600D01*
Y110600D01*
X280241Y110458D01*
D02*
G37*
G36*
X305262Y107230D02*
X305247Y107372D01*
X305202Y107500D01*
X305127Y107613D01*
X305022Y107710D01*
X304887Y107792D01*
X304722Y107860D01*
X304527Y107913D01*
X304302Y107950D01*
X304047Y107973D01*
X303762Y107980D01*
Y109480D01*
X304047Y109487D01*
X304302Y109510D01*
X304527Y109547D01*
X304722Y109600D01*
X304887Y109668D01*
X305022Y109750D01*
X305127Y109847D01*
X305202Y109960D01*
X305247Y110088D01*
X305262Y110230D01*
Y107230D01*
D02*
G37*
G36*
X300501Y110088D02*
X300547Y109960D01*
X300622Y109847D01*
X300728Y109750D01*
X300864Y109668D01*
X301030Y109600D01*
X301227Y109547D01*
X301454Y109510D01*
X301711Y109487D01*
X301998Y109480D01*
Y107980D01*
X301711Y107973D01*
X301454Y107950D01*
X301227Y107913D01*
X301030Y107860D01*
X300864Y107792D01*
X300728Y107710D01*
X300622Y107613D01*
X300547Y107500D01*
X300501Y107372D01*
X300486Y107230D01*
Y110230D01*
X300501Y110088D01*
D02*
G37*
G36*
X295522Y107230D02*
X295507Y107372D01*
X295462Y107500D01*
X295387Y107613D01*
X295282Y107710D01*
X295147Y107792D01*
X294982Y107860D01*
X294787Y107913D01*
X294562Y107950D01*
X294307Y107973D01*
X294022Y107980D01*
Y109480D01*
X294307Y109487D01*
X294562Y109510D01*
X294787Y109547D01*
X294982Y109600D01*
X295147Y109668D01*
X295282Y109750D01*
X295387Y109847D01*
X295462Y109960D01*
X295507Y110088D01*
X295522Y110230D01*
Y107230D01*
D02*
G37*
G36*
X290001Y110088D02*
X290047Y109960D01*
X290122Y109847D01*
X290228Y109750D01*
X290364Y109668D01*
X290530Y109600D01*
X290727Y109547D01*
X290954Y109510D01*
X291211Y109487D01*
X291498Y109480D01*
Y107980D01*
X291211Y107973D01*
X290954Y107950D01*
X290727Y107913D01*
X290530Y107860D01*
X290364Y107792D01*
X290228Y107710D01*
X290122Y107613D01*
X290047Y107500D01*
X290001Y107372D01*
X289986Y107230D01*
Y110230D01*
X290001Y110088D01*
D02*
G37*
G36*
X126277Y119267D02*
X119165Y112155D01*
X118753Y111160D01*
Y110453D01*
X118712Y110332D01*
X118636Y110163D01*
X118528Y109969D01*
X118387Y109755D01*
X118219Y109530D01*
X118218Y109529D01*
X118129Y109518D01*
X117648Y108890D01*
X117476Y108716D01*
X117434Y108612D01*
X116237Y107051D01*
X116642Y103969D01*
X119109Y102076D01*
X121059Y102333D01*
X121512Y100880D01*
X117884Y99022D01*
X115712Y99746D01*
X115657Y99792D01*
X115590Y99871D01*
X115524Y99975D01*
X115462Y100111D01*
X115407Y100285D01*
X115362Y100498D01*
X115332Y100751D01*
X115318Y101070D01*
X115259Y101195D01*
X115018Y103031D01*
X112551Y104923D01*
X109469Y104518D01*
X107577Y102051D01*
X107982Y98969D01*
X110449Y97076D01*
X111560Y97223D01*
X111660Y97185D01*
X111662Y97186D01*
X111665Y97185D01*
X112671Y97220D01*
X113862Y97215D01*
X114434Y97178D01*
X114567Y97161D01*
X117555Y96165D01*
X117562Y96166D01*
X117568Y96161D01*
X118098Y96204D01*
X118629Y96241D01*
X118634Y96247D01*
X118641Y96248D01*
X124236Y99113D01*
X124506Y98993D01*
X125732Y98194D01*
X126141Y97207D01*
X126161Y97161D01*
X127000Y96813D01*
Y98500D01*
X127500D01*
Y99000D01*
X129187D01*
X128858Y99795D01*
X128839Y99839D01*
X128831Y101467D01*
X130530Y102337D01*
X131820Y101312D01*
X131110Y98472D01*
X131115Y98437D01*
X131095Y98408D01*
X129595Y91408D01*
X129674Y90978D01*
X129605Y90546D01*
X129803Y90273D01*
X129864Y89942D01*
X130224Y89693D01*
X130481Y89339D01*
X143445Y81386D01*
X143548Y81273D01*
X143665Y81120D01*
X143770Y80955D01*
X143864Y80776D01*
X143947Y80582D01*
X144019Y80373D01*
X144086Y80119D01*
X144142Y80046D01*
X144283Y78969D01*
X146234Y77472D01*
X146215Y75906D01*
X144950Y75214D01*
X143514Y75950D01*
X143403Y76055D01*
X143275Y76199D01*
X143157Y76355D01*
X143050Y76526D01*
X142952Y76713D01*
X142864Y76916D01*
X142777Y77164D01*
X142772Y77170D01*
X142659Y78031D01*
X140192Y79923D01*
X137110Y79518D01*
X135217Y77051D01*
X135623Y73969D01*
X138090Y72076D01*
X140316Y72370D01*
X140322Y72369D01*
X140331Y72372D01*
X141172Y72482D01*
X141211Y72534D01*
X141396Y72530D01*
X141588Y72510D01*
X141738Y72482D01*
X143677Y71489D01*
X143766Y69959D01*
X143749Y69895D01*
X134162Y65924D01*
X104048Y47470D01*
X78084Y25295D01*
X77650Y24924D01*
X76401Y24259D01*
X76401Y24259D01*
X76401Y24259D01*
X72932Y19068D01*
X66111Y14510D01*
Y14510D01*
X65362Y12933D01*
X53623Y5090D01*
X39354Y2251D01*
X25085Y5090D01*
X12989Y13172D01*
X4906Y25269D01*
X2067Y39538D01*
X4906Y53807D01*
X12989Y65903D01*
X25085Y73986D01*
X26054Y74179D01*
X27493Y74325D01*
X27493D01*
X28668Y75110D01*
X32335Y77561D01*
X45328Y80145D01*
X45505Y80923D01*
X56970Y83675D01*
X89619Y97199D01*
X119750Y115664D01*
X125258Y120368D01*
X126277Y119267D01*
D02*
G37*
G36*
X114468Y100681D02*
X114507Y100358D01*
X114568Y100064D01*
X114653Y99799D01*
X114761Y99563D01*
X114891Y99355D01*
X115045Y99176D01*
X115222Y99026D01*
X115422Y98905D01*
X115645Y98812D01*
X115154Y97922D01*
X114981Y97969D01*
X114769Y98008D01*
X114516Y98040D01*
X113892Y98081D01*
X112657Y98085D01*
X111635Y98050D01*
X114453Y101032D01*
X114468Y100681D01*
D02*
G37*
G36*
X271941Y90079D02*
X271914Y89988D01*
X271915Y89883D01*
X271944Y89763D01*
X272002Y89629D01*
X272088Y89480D01*
X272202Y89317D01*
X272345Y89140D01*
X272715Y88742D01*
X272008Y88035D01*
X271802Y88234D01*
X271433Y88548D01*
X271270Y88662D01*
X271121Y88748D01*
X270987Y88806D01*
X270867Y88835D01*
X270762Y88836D01*
X270671Y88809D01*
X270594Y88754D01*
X271996Y90156D01*
X271941Y90079D01*
D02*
G37*
G36*
X163811Y135052D02*
X162385Y133626D01*
X161656Y131866D01*
Y129681D01*
X161583Y129409D01*
X161495Y129192D01*
X161411Y129054D01*
X161344Y128982D01*
X161294Y128948D01*
X161238Y128928D01*
X161055Y128909D01*
X160986Y128872D01*
X159396D01*
Y127877D01*
X159361Y127816D01*
X159353Y127759D01*
X159337Y127747D01*
X159231Y127693D01*
X159049Y127630D01*
X158966Y127611D01*
X157622D01*
X155862Y126882D01*
X153740Y124760D01*
X153010Y123000D01*
Y105500D01*
X153740Y103740D01*
X155500Y103010D01*
X157260Y103740D01*
X157696Y104790D01*
X159196Y104492D01*
Y103489D01*
X159235Y103530D01*
X159920Y104326D01*
X160162Y104667D01*
X160338Y104969D01*
X160447Y105233D01*
X160490Y105458D01*
X160467Y105644D01*
X160376Y105793D01*
X160220Y105902D01*
X163646Y104272D01*
Y107012D01*
X164146D01*
Y107512D01*
X168084D01*
Y109012D01*
X168104Y108822D01*
X168164Y108652D01*
X168264Y108502D01*
X168404Y108372D01*
X168584Y108262D01*
X168804Y108172D01*
X169064Y108102D01*
X169096Y108097D01*
Y109822D01*
X169096Y110962D01*
X170446Y111322D01*
X172000D01*
X173030Y111749D01*
X179765Y112903D01*
X180525Y111512D01*
X180313Y111000D01*
X182000D01*
Y110500D01*
X182500D01*
Y108813D01*
X183339Y109161D01*
X184750Y108646D01*
Y107700D01*
X194250D01*
Y113841D01*
X194287Y113909D01*
X194292Y113958D01*
X194319Y113974D01*
X194426Y114017D01*
X194554Y114052D01*
X208500D01*
X209052Y114280D01*
X210552Y113337D01*
Y110807D01*
X197693Y97948D01*
X170500D01*
X169122Y97378D01*
X152920Y81176D01*
X151500Y81658D01*
X151319Y83031D01*
X148853Y84923D01*
X147044Y84685D01*
X146903Y84711D01*
X146646Y84656D01*
X146427Y84625D01*
X146217Y84611D01*
X146015Y84614D01*
X145820Y84633D01*
X145630Y84668D01*
X145483Y84708D01*
X133694Y91940D01*
X134898Y97559D01*
X135712Y100815D01*
X142108Y105239D01*
X142208Y105394D01*
X142378Y105464D01*
X142601Y106002D01*
X142917Y106492D01*
X142878Y106672D01*
X142948Y106842D01*
Y118693D01*
X160807Y136552D01*
X163190D01*
X163811Y135052D01*
D02*
G37*
G36*
X144686Y84096D02*
X144932Y83983D01*
X145183Y83892D01*
X145439Y83823D01*
X145700Y83775D01*
X145967Y83749D01*
X146238Y83745D01*
X146515Y83763D01*
X146797Y83803D01*
X147085Y83864D01*
X144923Y80341D01*
X144848Y80625D01*
X144755Y80894D01*
X144646Y81149D01*
X144519Y81390D01*
X144376Y81615D01*
X144215Y81827D01*
X144037Y82024D01*
X143842Y82206D01*
X143629Y82374D01*
X143400Y82527D01*
X144446Y84232D01*
X144686Y84096D01*
D02*
G37*
G36*
X271010Y80509D02*
X271008Y80463D01*
X271000Y79000D01*
X268000D01*
X267988Y80524D01*
X271012D01*
X271010Y80509D01*
D02*
G37*
G36*
X142057Y76601D02*
X142170Y76340D01*
X142298Y76094D01*
X142443Y75864D01*
X142604Y75650D01*
X142781Y75452D01*
X142973Y75269D01*
X143182Y75102D01*
X143406Y74951D01*
X143647Y74816D01*
X142735Y73036D01*
X142485Y73152D01*
X142231Y73246D01*
X141974Y73318D01*
X141714Y73368D01*
X141449Y73395D01*
X141182Y73400D01*
X140910Y73383D01*
X140636Y73344D01*
X140358Y73283D01*
X140076Y73199D01*
X141960Y76879D01*
X142057Y76601D01*
D02*
G37*
%LPC*%
G36*
X246704Y384723D02*
Y380993D01*
X250435D01*
X249342Y383631D01*
X246704Y384723D01*
D02*
G37*
G36*
X245704Y384723D02*
X243066Y383631D01*
X241974Y380993D01*
X245704D01*
Y384723D01*
D02*
G37*
G36*
X226204Y384714D02*
X223219Y383478D01*
X221983Y380493D01*
X223219Y377508D01*
X226204Y376271D01*
X229189Y377508D01*
X230426Y380493D01*
X229189Y383478D01*
X226204Y384714D01*
D02*
G37*
G36*
X245704Y379993D02*
X241974D01*
X243066Y377355D01*
X245704Y376262D01*
Y379993D01*
D02*
G37*
G36*
X250435D02*
X246704D01*
Y376262D01*
X249342Y377355D01*
X250435Y379993D01*
D02*
G37*
G36*
X224253Y331253D02*
X216747D01*
Y323747D01*
X224253D01*
Y331253D01*
D02*
G37*
G36*
X220500Y321562D02*
X217628Y320372D01*
X216438Y317500D01*
X217628Y314628D01*
X220500Y313438D01*
X223372Y314628D01*
X224562Y317500D01*
X223372Y320372D01*
X220500Y321562D01*
D02*
G37*
G36*
Y311562D02*
X217628Y310372D01*
X216438Y307500D01*
X217628Y304628D01*
X220500Y303438D01*
X223372Y304628D01*
X224562Y307500D01*
X223372Y310372D01*
X220500Y311562D01*
D02*
G37*
G36*
X240000Y303687D02*
Y302500D01*
X241187D01*
X240839Y303339D01*
X240000Y303687D01*
D02*
G37*
G36*
X239000D02*
X238161Y303339D01*
X237813Y302500D01*
X239000D01*
Y303687D01*
D02*
G37*
G36*
X241187Y301500D02*
X240000D01*
Y300313D01*
X240839Y300661D01*
X241187Y301500D01*
D02*
G37*
G36*
X239000D02*
X237813D01*
X238161Y300661D01*
X239000Y300313D01*
Y301500D01*
D02*
G37*
G36*
X221000Y301571D02*
Y298000D01*
X224571D01*
X223525Y300525D01*
X221000Y301571D01*
D02*
G37*
G36*
X220000D02*
X217475Y300525D01*
X216429Y298000D01*
X220000D01*
Y301571D01*
D02*
G37*
G36*
X224571Y297000D02*
X221000D01*
Y293429D01*
X223525Y294475D01*
X224571Y297000D01*
D02*
G37*
G36*
X220000D02*
X216429D01*
X217475Y294475D01*
X220000Y293429D01*
Y297000D01*
D02*
G37*
G36*
X220500Y291562D02*
X217628Y290372D01*
X216438Y287500D01*
X217628Y284628D01*
X220500Y283438D01*
X223372Y284628D01*
X224562Y287500D01*
X223372Y290372D01*
X220500Y291562D01*
D02*
G37*
G36*
X239900Y278687D02*
Y277500D01*
X241087D01*
X240739Y278339D01*
X239900Y278687D01*
D02*
G37*
G36*
X238900D02*
X238061Y278339D01*
X237713Y277500D01*
X238900D01*
Y278687D01*
D02*
G37*
G36*
X241087Y276500D02*
X239900D01*
Y275313D01*
X240739Y275661D01*
X241087Y276500D01*
D02*
G37*
G36*
X238900D02*
X237713D01*
X238061Y275661D01*
X238900Y275313D01*
Y276500D01*
D02*
G37*
G36*
X220500Y281562D02*
X217628Y280372D01*
X216438Y277500D01*
X217628Y274628D01*
X220500Y273438D01*
X223372Y274628D01*
X224562Y277500D01*
X223372Y280372D01*
X220500Y281562D01*
D02*
G37*
G36*
X248472Y250576D02*
X248490Y250489D01*
X248564Y250234D01*
X248660Y249986D01*
X248778Y249746D01*
X248917Y249512D01*
X249077Y249286D01*
X249258Y249066D01*
X249461Y248853D01*
X247894D01*
Y247245D01*
X251465D01*
X250419Y249770D01*
X248472Y250576D01*
D02*
G37*
G36*
X246316D02*
X244368Y249770D01*
X243322Y247245D01*
X246894D01*
Y248853D01*
X245327D01*
X245530Y249066D01*
X245711Y249286D01*
X245871Y249512D01*
X246010Y249746D01*
X246127Y249986D01*
X246223Y250234D01*
X246298Y250489D01*
X246316Y250576D01*
D02*
G37*
G36*
X246894Y246245D02*
X243322D01*
X244368Y243719D01*
X246894Y242673D01*
Y246245D01*
D02*
G37*
G36*
X251465D02*
X247894D01*
Y242673D01*
X250419Y243719D01*
X251465Y246245D01*
D02*
G37*
G36*
X212000Y211571D02*
Y208000D01*
X215571D01*
X214525Y210525D01*
X212000Y211571D01*
D02*
G37*
G36*
X211000D02*
X208475Y210525D01*
X207429Y208000D01*
X211000D01*
Y211571D01*
D02*
G37*
G36*
X215571Y207000D02*
X214476D01*
X214487Y206893D01*
X214534Y206620D01*
X214601Y206357D01*
X214688Y206103D01*
X214795Y205860D01*
X214922Y205627D01*
X214972Y205553D01*
X215571Y207000D01*
D02*
G37*
G36*
X213982D02*
X212000D01*
Y205018D01*
X213982Y207000D01*
D02*
G37*
G36*
X251500Y211562D02*
X248628Y210372D01*
X247438Y207500D01*
X248628Y204628D01*
X251500Y203438D01*
X254372Y204628D01*
X255562Y207500D01*
X254372Y210372D01*
X251500Y211562D01*
D02*
G37*
G36*
X241500D02*
X238628Y210372D01*
X237438Y207500D01*
X238628Y204628D01*
X241500Y203438D01*
X244372Y204628D01*
X245562Y207500D01*
X244372Y210372D01*
X241500Y211562D01*
D02*
G37*
G36*
X231500D02*
X228628Y210372D01*
X227438Y207500D01*
X228628Y204628D01*
X231500Y203438D01*
X234372Y204628D01*
X235562Y207500D01*
X234372Y210372D01*
X231500Y211562D01*
D02*
G37*
G36*
X221500D02*
X218628Y210372D01*
X217438Y207500D01*
X218628Y204628D01*
X221500Y203438D01*
X224372Y204628D01*
X225562Y207500D01*
X224372Y210372D01*
X221500Y211562D01*
D02*
G37*
G36*
X212000Y204523D02*
Y203429D01*
X213447Y204028D01*
X213372Y204078D01*
X213140Y204205D01*
X212897Y204312D01*
X212644Y204399D01*
X212380Y204466D01*
X212107Y204513D01*
X212000Y204523D01*
D02*
G37*
G36*
X211000Y207000D02*
X207429D01*
X208475Y204475D01*
X211000Y203429D01*
Y207000D01*
D02*
G37*
G36*
X225500Y201687D02*
Y200500D01*
X226687D01*
X226339Y201339D01*
X225500Y201687D01*
D02*
G37*
G36*
X224500D02*
X223661Y201339D01*
X223313Y200500D01*
X224500D01*
Y201687D01*
D02*
G37*
G36*
X226687Y199500D02*
X225500D01*
Y198313D01*
X226339Y198661D01*
X226687Y199500D01*
D02*
G37*
G36*
X224500D02*
X223313D01*
X223661Y198661D01*
X224500Y198313D01*
Y199500D01*
D02*
G37*
G36*
X264000Y199187D02*
Y198000D01*
X265187D01*
X264839Y198839D01*
X264000Y199187D01*
D02*
G37*
G36*
X263000D02*
X262161Y198839D01*
X261813Y198000D01*
X263000D01*
Y199187D01*
D02*
G37*
G36*
X265187Y197000D02*
X264000D01*
Y195813D01*
X264839Y196161D01*
X265187Y197000D01*
D02*
G37*
G36*
X263000D02*
X261813D01*
X262161Y196161D01*
X263000Y195813D01*
Y197000D01*
D02*
G37*
G36*
X231000Y198678D02*
X229814Y198186D01*
X229322Y197000D01*
X229731Y196013D01*
X229814Y195814D01*
X231000Y195322D01*
X231200Y195405D01*
X231653Y195593D01*
X255917D01*
X261043Y190467D01*
X261231Y190013D01*
X261314Y189814D01*
X262500Y189322D01*
X263686Y189814D01*
X263769Y190013D01*
X264095Y190800D01*
X264178Y191000D01*
X263686Y192186D01*
X263487Y192269D01*
X263033Y192457D01*
X257495Y197995D01*
X256500Y198407D01*
X231653D01*
X231000Y198678D01*
D02*
G37*
G36*
X271000Y175187D02*
Y174059D01*
X271006Y174058D01*
X271021Y174056D01*
X271078Y174053D01*
X271460Y174050D01*
X271464Y174000D01*
X272187D01*
X271839Y174839D01*
X271000Y175187D01*
D02*
G37*
G36*
Y174051D02*
Y174000D01*
X271003D01*
X271000Y174051D01*
D02*
G37*
G36*
X270000Y175187D02*
X269161Y174839D01*
X268813Y174000D01*
X270000D01*
Y175187D01*
D02*
G37*
%LPD*%
G36*
X231545Y197520D02*
X231562Y197516D01*
X231589Y197512D01*
X231666Y197506D01*
X231924Y197500D01*
X232009Y197500D01*
Y196500D01*
X231536Y196475D01*
Y197525D01*
X231545Y197520D01*
D02*
G37*
G36*
X262492Y191750D02*
X261750Y191007D01*
X261747Y191017D01*
X261737Y191033D01*
X261722Y191054D01*
X261671Y191113D01*
X261493Y191299D01*
X261433Y191360D01*
X262140Y192067D01*
X262492Y191750D01*
D02*
G37*
%LPC*%
G36*
X222500Y179687D02*
Y178500D01*
X223687D01*
X223339Y179339D01*
X222500Y179687D01*
D02*
G37*
G36*
X221500D02*
X220661Y179339D01*
X220313Y178500D01*
X221500D01*
Y179687D01*
D02*
G37*
G36*
X223687Y177500D02*
X222500D01*
Y177464D01*
X222525D01*
X222520Y177455D01*
X222516Y177438D01*
X222512Y177411D01*
X222506Y177334D01*
X222500Y177076D01*
X222500Y176991D01*
Y176313D01*
X223339Y176661D01*
X223687Y177500D01*
D02*
G37*
G36*
X221500D02*
X220313D01*
X220661Y176661D01*
X221500Y176313D01*
Y176991D01*
X221475Y177464D01*
X221500D01*
Y177500D01*
D02*
G37*
G36*
X176500Y157187D02*
Y156000D01*
X176536D01*
Y156025D01*
X176545Y156020D01*
X176562Y156016D01*
X176588Y156012D01*
X176666Y156006D01*
X176924Y156000D01*
X177009Y156000D01*
X177687D01*
X177339Y156839D01*
X176500Y157187D01*
D02*
G37*
G36*
X175500Y157187D02*
X174661Y156839D01*
X174313Y156000D01*
X175500D01*
Y157187D01*
D02*
G37*
G36*
X308354Y154546D02*
X305389Y153612D01*
X303954Y150854D01*
X304888Y147889D01*
X307646Y146453D01*
X310611Y147388D01*
X312047Y150146D01*
X311112Y153111D01*
X308354Y154546D01*
D02*
G37*
G36*
X314801Y147102D02*
X312194Y146280D01*
X314490Y143544D01*
X317225Y145840D01*
X314801Y147102D01*
D02*
G37*
G36*
X311428Y145637D02*
X310166Y143212D01*
X310988Y140606D01*
X313723Y142901D01*
X311428Y145637D01*
D02*
G37*
G36*
X317868Y145073D02*
X315132Y142778D01*
X317428Y140042D01*
X318690Y142467D01*
X317868Y145073D01*
D02*
G37*
G36*
X314366Y142135D02*
X311630Y139839D01*
X314055Y138577D01*
X316662Y139399D01*
X314366Y142135D01*
D02*
G37*
G36*
X226187Y150000D02*
X225509D01*
X225036Y149975D01*
Y150000D01*
X225000D01*
Y148813D01*
X225839Y149161D01*
X226187Y150000D01*
D02*
G37*
G36*
X317187Y127500D02*
X316000D01*
Y126313D01*
X316839Y126661D01*
X317187Y127500D01*
D02*
G37*
G36*
X315000D02*
X313813D01*
X314161Y126661D01*
X315000Y126313D01*
Y127500D01*
D02*
G37*
G36*
X295000Y126687D02*
Y125500D01*
X296187D01*
X295839Y126339D01*
X295000Y126687D01*
D02*
G37*
G36*
X294000D02*
X293161Y126339D01*
X292813Y125500D01*
X294000D01*
Y126687D01*
D02*
G37*
G36*
X296187Y124500D02*
X295000D01*
Y123313D01*
X295839Y123661D01*
X296187Y124500D01*
D02*
G37*
G36*
X294000D02*
X292813D01*
X293161Y123661D01*
X294000Y123313D01*
Y124500D01*
D02*
G37*
G36*
X256000Y130562D02*
X253128Y129372D01*
X251938Y126500D01*
X253128Y123628D01*
X256000Y122438D01*
X258872Y123628D01*
X260062Y126500D01*
X258872Y129372D01*
X256000Y130562D01*
D02*
G37*
G36*
X229953Y120453D02*
X226500D01*
Y117000D01*
X229953D01*
Y120453D01*
D02*
G37*
G36*
X225500D02*
X222047D01*
Y117000D01*
X225500D01*
Y120453D01*
D02*
G37*
G36*
X229953Y116000D02*
X226500D01*
Y112547D01*
X229953D01*
Y116000D01*
D02*
G37*
G36*
X225500D02*
X222047D01*
Y112547D01*
X225500D01*
Y116000D01*
D02*
G37*
G36*
X354628Y109423D02*
X352162Y107531D01*
X351756Y104449D01*
X353648Y101982D01*
X356731Y101576D01*
X359197Y103469D01*
X359603Y106551D01*
X357711Y109018D01*
X354628Y109423D01*
D02*
G37*
G36*
X333000Y100178D02*
X332822Y100104D01*
X332632Y100137D01*
X332248Y99866D01*
X331814Y99686D01*
X331740Y99509D01*
X331583Y99398D01*
X322083Y84398D01*
X322002Y83934D01*
X321905Y83700D01*
X321822Y83500D01*
X321896Y83322D01*
X321863Y83132D01*
X322134Y82748D01*
X322314Y82314D01*
X322492Y82240D01*
X322602Y82083D01*
X323066Y82002D01*
X323500Y81822D01*
X323678Y81896D01*
X323868Y81863D01*
X324252Y82134D01*
X324686Y82314D01*
X324760Y82491D01*
X324917Y82602D01*
X334417Y97602D01*
X334498Y98066D01*
X334595Y98300D01*
X334678Y98500D01*
X334604Y98678D01*
X334637Y98867D01*
X334366Y99252D01*
X334186Y99686D01*
X334009Y99760D01*
X333898Y99917D01*
X333434Y99998D01*
X333000Y100178D01*
D02*
G37*
G36*
X363288Y104423D02*
X360822Y102531D01*
X360416Y99449D01*
X362309Y96982D01*
X365391Y96576D01*
X367858Y98469D01*
X368263Y101551D01*
X366371Y104018D01*
X363288Y104423D01*
D02*
G37*
G36*
X371893Y99633D02*
X369724Y97969D01*
X372817Y96183D01*
X374603Y99276D01*
X371893Y99633D01*
D02*
G37*
G36*
X208000Y95187D02*
Y94000D01*
X209187D01*
X208839Y94839D01*
X208000Y95187D01*
D02*
G37*
G36*
X207000D02*
X206161Y94839D01*
X205813Y94000D01*
X207000D01*
Y95187D01*
D02*
G37*
G36*
X369224Y97103D02*
X368867Y94393D01*
X369645Y93380D01*
X369750Y93609D01*
X369844Y93870D01*
X369920Y94151D01*
X369979Y94452D01*
X370019Y94772D01*
X370042Y95111D01*
X370047Y95470D01*
X371542Y93975D01*
X372317Y95317D01*
X369224Y97103D01*
D02*
G37*
G36*
X375469Y98776D02*
X373683Y95683D01*
X376776Y93897D01*
X377133Y96607D01*
X375469Y98776D01*
D02*
G37*
G36*
X232000Y99267D02*
Y92500D01*
X238767D01*
X236785Y97285D01*
X232000Y99267D01*
D02*
G37*
G36*
X231000D02*
X226215Y97285D01*
X225439Y95412D01*
X225468Y95425D01*
X226860Y96144D01*
X228471Y97070D01*
X227271Y92500D01*
X231000D01*
Y99267D01*
D02*
G37*
G36*
X209187Y93000D02*
X208000D01*
Y91813D01*
X208839Y92161D01*
X209187Y93000D01*
D02*
G37*
G36*
X207000D02*
X205813D01*
X206161Y92161D01*
X207000Y91813D01*
Y93000D01*
D02*
G37*
G36*
X273020Y94730D02*
X270020D01*
Y91730D01*
X273020D01*
Y94730D01*
D02*
G37*
G36*
X373183Y94817D02*
X372274Y93243D01*
X372971Y92547D01*
X372611Y92542D01*
X372272Y92519D01*
X371952Y92479D01*
X371818Y92453D01*
X371397Y91724D01*
X374107Y91367D01*
X376276Y93031D01*
X373183Y94817D01*
D02*
G37*
G36*
X348000Y91187D02*
Y90000D01*
X349187D01*
X348839Y90839D01*
X348000Y91187D01*
D02*
G37*
G36*
X347000D02*
X346161Y90839D01*
X345813Y90000D01*
X347000D01*
Y91187D01*
D02*
G37*
G36*
X236964Y91500D02*
X232797D01*
X232997Y91257D01*
X233618Y90592D01*
X233880Y90327D01*
X233173Y89620D01*
X232908Y89882D01*
X232000Y90677D01*
Y86536D01*
X236964Y91500D01*
D02*
G37*
G36*
X231000D02*
X227008D01*
X226371Y89073D01*
X225976Y89724D01*
X225573Y90307D01*
X225163Y90821D01*
X224744Y91266D01*
X224480Y91500D01*
X224233D01*
X226215Y86715D01*
X231000Y84733D01*
Y91500D01*
D02*
G37*
G36*
X238767D02*
X237406D01*
X237407Y90963D01*
X237555Y88572D01*
X238767Y91500D01*
D02*
G37*
G36*
X349187Y89000D02*
X348000D01*
Y87813D01*
X348839Y88161D01*
X349187Y89000D01*
D02*
G37*
G36*
X347000D02*
X345813D01*
X346161Y88161D01*
X347000Y87813D01*
Y89000D01*
D02*
G37*
G36*
X380609Y94424D02*
X378142Y92531D01*
X377737Y89449D01*
X379629Y86982D01*
X382712Y86576D01*
X385178Y88469D01*
X385584Y91551D01*
X383691Y94018D01*
X380609Y94424D01*
D02*
G37*
G36*
X251500Y99258D02*
X246368Y97132D01*
X244242Y92000D01*
X246368Y86868D01*
X251500Y84742D01*
X256632Y86868D01*
X258758Y92000D01*
X256632Y97132D01*
X251500Y99258D01*
D02*
G37*
G36*
X232000Y86088D02*
Y84733D01*
X234931Y85947D01*
X233437Y86067D01*
X232000Y86088D01*
D02*
G37*
G36*
X389269Y89424D02*
X386803Y87531D01*
X386397Y84449D01*
X388289Y81982D01*
X391372Y81577D01*
X393838Y83469D01*
X394244Y86551D01*
X392352Y89018D01*
X389269Y89424D01*
D02*
G37*
G36*
X309500Y127178D02*
X308314Y126686D01*
X307822Y125500D01*
X308314Y124314D01*
X311322Y121305D01*
Y83500D01*
X311388Y83340D01*
X311355Y83171D01*
X311627Y82765D01*
X311814Y82314D01*
X311973Y82248D01*
X312069Y82104D01*
X319569Y77104D01*
X320049Y77009D01*
X320301Y76905D01*
X320500Y76822D01*
X320660Y76888D01*
X320829Y76855D01*
X321235Y77127D01*
X321686Y77314D01*
X321752Y77473D01*
X321896Y77569D01*
X321938Y77781D01*
X321991Y78048D01*
X322178Y78500D01*
X322112Y78660D01*
X322145Y78829D01*
X321873Y79235D01*
X321686Y79686D01*
X321527Y79752D01*
X321431Y79896D01*
X314678Y84398D01*
Y122000D01*
X314186Y123186D01*
X310686Y126686D01*
X309500Y127178D01*
D02*
G37*
G36*
X186253Y83253D02*
X178747D01*
Y75747D01*
X186253D01*
Y83253D01*
D02*
G37*
G36*
X212500Y83562D02*
X209628Y82372D01*
X208438Y79500D01*
X209628Y76628D01*
X212500Y75438D01*
X215372Y76628D01*
X216562Y79500D01*
X215372Y82372D01*
X212500Y83562D01*
D02*
G37*
G36*
X192500D02*
X189628Y82372D01*
X188438Y79500D01*
X189628Y76628D01*
X192500Y75438D01*
X195372Y76628D01*
X196562Y79500D01*
X195372Y82372D01*
X192500Y83562D01*
D02*
G37*
G36*
X397607Y85626D02*
X393854Y79126D01*
X400354Y75374D01*
X404107Y81874D01*
X397607Y85626D01*
D02*
G37*
G36*
X335466Y77626D02*
X331713Y71126D01*
X338213Y67374D01*
X341966Y73874D01*
X335466Y77626D01*
D02*
G37*
G36*
X344449Y71424D02*
X341982Y69531D01*
X341577Y66449D01*
X343469Y63982D01*
X346551Y63577D01*
X349018Y65469D01*
X349424Y68551D01*
X347531Y71018D01*
X344449Y71424D01*
D02*
G37*
G36*
X353109Y66423D02*
X350642Y64531D01*
X350237Y61449D01*
X352129Y58982D01*
X355212Y58577D01*
X357678Y60469D01*
X358084Y63551D01*
X356191Y66018D01*
X353109Y66423D01*
D02*
G37*
G36*
X361713Y61633D02*
X359545Y59969D01*
X362637Y58183D01*
X364423Y61276D01*
X361713Y61633D01*
D02*
G37*
G36*
X365289Y60776D02*
X363504Y57683D01*
X366596Y55897D01*
X366953Y58607D01*
X365289Y60776D01*
D02*
G37*
G36*
X359045Y59103D02*
X358688Y56393D01*
X360352Y54224D01*
X362138Y57317D01*
X359045Y59103D01*
D02*
G37*
G36*
X363003Y56817D02*
X361218Y53724D01*
X363928Y53367D01*
X366096Y55031D01*
X363003Y56817D01*
D02*
G37*
G36*
X437407Y52238D02*
X434844Y50271D01*
X434422Y47068D01*
X436389Y44504D01*
X439593Y44083D01*
X442156Y46050D01*
X442578Y49253D01*
X440611Y51816D01*
X437407Y52238D01*
D02*
G37*
G36*
X427351Y35126D02*
X425086Y33388D01*
X428317Y31523D01*
X430182Y34754D01*
X427351Y35126D01*
D02*
G37*
G36*
X431048Y34254D02*
X429183Y31023D01*
X432414Y29157D01*
X432787Y31988D01*
X431048Y34254D01*
D02*
G37*
G36*
X424586Y32522D02*
X424213Y29691D01*
X425952Y27426D01*
X427817Y30657D01*
X424586Y32522D01*
D02*
G37*
G36*
X428683Y30157D02*
X426818Y26926D01*
X429649Y26553D01*
X431914Y28291D01*
X428683Y30157D01*
D02*
G37*
G36*
X129187Y98000D02*
X128000D01*
Y96813D01*
X128839Y97161D01*
X129187Y98000D01*
D02*
G37*
G36*
X103947Y100133D02*
X101237Y99776D01*
X103023Y96683D01*
X106116Y98469D01*
X103947Y100133D01*
D02*
G37*
G36*
X100371Y99276D02*
X98707Y97107D01*
X99064Y94397D01*
X102157Y96183D01*
X100371Y99276D01*
D02*
G37*
G36*
X106616Y97603D02*
X103523Y95817D01*
X105308Y92724D01*
X106972Y94893D01*
X106616Y97603D01*
D02*
G37*
G36*
X102657Y95317D02*
X99564Y93531D01*
X101732Y91867D01*
X104442Y92224D01*
X102657Y95317D01*
D02*
G37*
G36*
X125500Y89187D02*
Y88000D01*
X126687D01*
X126339Y88839D01*
X125500Y89187D01*
D02*
G37*
G36*
X124500D02*
X123661Y88839D01*
X123313Y88000D01*
X124500D01*
Y89187D01*
D02*
G37*
G36*
X126687Y87000D02*
X125500D01*
Y85813D01*
X126339Y86161D01*
X126687Y87000D01*
D02*
G37*
G36*
X124500D02*
X123313D01*
X123661Y86161D01*
X124500Y85813D01*
Y87000D01*
D02*
G37*
G36*
X131532Y74923D02*
X128450Y74518D01*
X126557Y72051D01*
X126963Y68969D01*
X129429Y67076D01*
X132512Y67482D01*
X134404Y69949D01*
X133999Y73031D01*
X131532Y74923D01*
D02*
G37*
G36*
X112247Y64867D02*
X111558Y64776D01*
X111920Y64148D01*
X112045Y64372D01*
X112161Y64625D01*
X112247Y64867D01*
D02*
G37*
G36*
X122872Y69924D02*
X119790Y69518D01*
X117897Y67051D01*
X118303Y63969D01*
X120769Y62076D01*
X123852Y62482D01*
X125744Y64949D01*
X125338Y68031D01*
X122872Y69924D01*
D02*
G37*
G36*
X114268Y65133D02*
X113934Y65089D01*
X113987Y64894D01*
X114082Y64645D01*
X114203Y64395D01*
X114351Y64144D01*
X114525Y63892D01*
X114725Y63639D01*
X114952Y63385D01*
X115205Y63131D01*
X112524Y63102D01*
X113343Y61683D01*
X116436Y63469D01*
X114268Y65133D01*
D02*
G37*
G36*
X110692Y64276D02*
X109028Y62107D01*
X109384Y59397D01*
X112477Y61183D01*
X111376Y63090D01*
X111071Y63086D01*
X111262Y63288D01*
X110692Y64276D01*
D02*
G37*
G36*
X116936Y62603D02*
X113843Y60817D01*
X115629Y57724D01*
X117293Y59893D01*
X116936Y62603D01*
D02*
G37*
G36*
X112977Y60317D02*
X109884Y58531D01*
X112053Y56867D01*
X114763Y57224D01*
X112977Y60317D01*
D02*
G37*
G36*
X105551Y59923D02*
X102469Y59518D01*
X100576Y57051D01*
X100982Y53969D01*
X103449Y52077D01*
X106531Y52482D01*
X108423Y54949D01*
X108018Y58031D01*
X105551Y59923D01*
D02*
G37*
G36*
X35503Y52485D02*
X32672Y52112D01*
X34537Y48881D01*
X37768Y50746D01*
X35503Y52485D01*
D02*
G37*
G36*
X96891Y54923D02*
X93809Y54518D01*
X91916Y52051D01*
X92322Y48969D01*
X94788Y47076D01*
X97871Y47482D01*
X99763Y49949D01*
X99357Y53031D01*
X96891Y54923D01*
D02*
G37*
G36*
X31806Y51612D02*
X30067Y49347D01*
X30440Y46516D01*
X33671Y48381D01*
X31806Y51612D01*
D02*
G37*
G36*
X38268Y49880D02*
X35037Y48015D01*
X36902Y44784D01*
X38641Y47049D01*
X38268Y49880D01*
D02*
G37*
G36*
X34171Y47515D02*
X30940Y45650D01*
X33206Y43911D01*
X36036Y44284D01*
X34171Y47515D01*
D02*
G37*
G36*
X88553Y51126D02*
X82053Y47374D01*
X85806Y40874D01*
X92306Y44626D01*
X88553Y51126D01*
D02*
G37*
G36*
X45447Y34955D02*
X42243Y34533D01*
X40277Y31970D01*
X40698Y28767D01*
X43262Y26800D01*
X46465Y27222D01*
X48432Y29785D01*
X48010Y32988D01*
X45447Y34955D01*
D02*
G37*
G36*
X181500Y110000D02*
X180313D01*
X180661Y109161D01*
X181500Y108813D01*
Y110000D01*
D02*
G37*
G36*
X168084Y106512D02*
X164646D01*
Y103062D01*
X169096D01*
Y105927D01*
X169064Y105922D01*
X168804Y105852D01*
X168584Y105762D01*
X168404Y105652D01*
X168264Y105522D01*
X168164Y105372D01*
X168104Y105202D01*
X168084Y105012D01*
Y106512D01*
D02*
G37*
G36*
X163619Y104174D02*
X163382Y104147D01*
X163128Y104075D01*
X162854Y103955D01*
X162562Y103789D01*
X162251Y103577D01*
X161922Y103318D01*
X161631Y103062D01*
X163646D01*
Y104171D01*
X163619Y104174D01*
D02*
G37*
G36*
X155500Y90187D02*
Y89000D01*
X156687D01*
X156339Y89839D01*
X155500Y90187D01*
D02*
G37*
G36*
X154500D02*
X153661Y89839D01*
X153313Y89000D01*
X154500D01*
Y90187D01*
D02*
G37*
G36*
X156687Y88000D02*
X155500D01*
Y86813D01*
X156339Y87161D01*
X156687Y88000D01*
D02*
G37*
G36*
X154500D02*
X153313D01*
X153661Y87161D01*
X154500Y86813D01*
Y88000D01*
D02*
G37*
%LPD*%
D10*
X230500Y132000D02*
X231000Y132500D01*
X230500Y124500D02*
Y132000D01*
X176000Y155500D02*
X202000D01*
X207500Y161000D01*
X261500Y177000D02*
X265236Y180736D01*
X224500Y150500D02*
X250000D01*
X250036Y150464D01*
X245000Y157000D02*
X258000Y170000D01*
X269520Y91230D02*
X275000Y85750D01*
Y76237D02*
Y85750D01*
X274532Y75769D02*
X275000Y76237D01*
X267000Y75769D02*
X274532D01*
X266280Y76488D02*
X267000Y75769D01*
X247012Y76488D02*
X266280D01*
X231500Y92000D02*
X247012Y76488D01*
X222000Y160500D02*
Y178000D01*
X265236Y180736D02*
Y181264D01*
X265764D01*
X267500Y183000D01*
X278899Y173500D02*
X281500D01*
X278849Y173550D02*
X278899Y173500D01*
X270550Y173550D02*
X278849D01*
X270500Y173500D02*
X270550Y173550D01*
X211000Y160500D02*
Y181500D01*
X208000Y157500D02*
X211000Y160500D01*
X257000Y177000D02*
X261500D01*
X253000Y173000D02*
X257000Y177000D01*
X267500Y183000D02*
X273500D01*
X281500D01*
X120160Y111160D02*
X160500Y151500D01*
X210800Y143700D02*
Y144300D01*
X224500Y158000D01*
Y155000D02*
X227000D01*
X213500Y144000D02*
X224500Y155000D01*
Y158000D02*
Y158500D01*
X172000Y113000D02*
X189500Y116000D01*
X276500Y170000D02*
X278000Y171500D01*
X258000Y170000D02*
X276500D01*
X274500Y156000D02*
X274827D01*
X275480Y163500D02*
X279000D01*
X274980Y163000D02*
X275480Y163500D01*
X274500Y163480D02*
X274980Y163000D01*
X241500Y140000D02*
X244500Y137000D01*
X225000Y140000D02*
X241500D01*
X235500Y135000D02*
X241000Y129500D01*
X233500Y135000D02*
X235500D01*
X235000Y137500D02*
X236500D01*
X246000Y128000D01*
X162500Y147500D02*
X210000D01*
X137500Y122500D02*
X162500Y147500D01*
X137500Y122500D02*
X138500Y108000D01*
X118000Y97500D02*
X138500Y108000D01*
X113500Y99000D02*
X118000Y97500D01*
X111500Y101000D02*
X113500Y99000D01*
X160500Y151500D02*
X209500D01*
X120160Y106000D02*
Y111160D01*
X256500Y197000D02*
X262500Y191000D01*
X231000Y197000D02*
X256500D01*
X200500Y177000D02*
X201500D01*
X210500Y186000D01*
X230500Y124500D02*
X233500Y121500D01*
X246000Y126500D02*
Y128000D01*
X251000Y121500D02*
X256000Y116500D01*
X244500Y121500D02*
X251000D01*
X241000Y125000D02*
X244500Y121500D01*
X241000Y125000D02*
Y129500D01*
X241000Y121500D02*
X246000Y116500D01*
X233500Y121500D02*
X241000D01*
D16*
X261000Y200000D02*
X263500Y197500D01*
X225000Y200000D02*
X261000D01*
X247394Y246744D02*
Y269006D01*
X239400Y277000D02*
X247394Y269006D01*
X239400Y301900D02*
X239500Y302000D01*
X239400Y277000D02*
Y301900D01*
X219000Y200000D02*
X225000D01*
X211500Y207500D02*
X219000Y200000D01*
X234500Y153500D02*
X253500D01*
X272500Y134500D01*
X224500Y163500D02*
X234500Y153500D01*
X241500Y158500D02*
Y166000D01*
X155000Y88500D02*
Y97866D01*
X164146Y107012D01*
X178512D01*
X182000Y110500D01*
X230000Y93500D02*
X231500Y92000D01*
X207500Y93500D02*
X230000D01*
X141000Y119500D02*
X160000Y138500D01*
X322359Y131500D02*
X338359Y115500D01*
X292500Y131500D02*
X322359D01*
X284000Y123000D02*
X292500Y131500D01*
X288901Y174099D02*
Y186200D01*
Y174099D02*
X289000Y174000D01*
Y150500D02*
Y174000D01*
X287000Y117500D02*
X287500Y117000D01*
X284000Y117500D02*
X287000D01*
X284000D02*
Y123000D01*
X275502Y213002D02*
X288901Y186200D01*
X259500Y236500D02*
X275502Y213002D01*
X241500Y236500D02*
X259500D01*
X220500Y257500D02*
X241500Y236500D01*
X131500Y91000D02*
X147801Y81000D01*
X134000Y102000D02*
X141000Y106842D01*
X133000Y98000D02*
X134000Y102000D01*
X131500Y91000D02*
X133000Y98000D01*
X141000Y106842D02*
Y119500D01*
X160000Y138500D02*
X170500D01*
X174000Y135000D01*
X209540D01*
X218540Y144000D01*
X257500D01*
X284000Y117500D01*
X196500Y116000D02*
X208500D01*
X189500D02*
X196500D01*
X222000Y126500D02*
X226000D01*
X217000Y121500D02*
X222000Y126500D01*
X217000Y108500D02*
Y121500D01*
X208500Y100000D02*
X217000Y108500D01*
X150000Y75500D02*
X170500Y96000D01*
X145000Y73000D02*
X150000Y75500D01*
X170500Y96000D02*
X198500D01*
X139141Y76000D02*
X145000Y73000D01*
X282500Y116000D02*
X284000Y117500D01*
X278500Y116000D02*
X282500D01*
X272500Y134500D02*
X329000D01*
X347019Y116481D01*
Y110500D02*
Y116481D01*
X216500Y138000D02*
X223000D01*
X212500Y134000D02*
X216500Y138000D01*
X212500Y110000D02*
Y134000D01*
X198500Y96000D02*
X212500Y110000D01*
X202500Y205000D02*
X241500Y166000D01*
X202500Y205000D02*
Y222347D01*
X209790Y229637D01*
Y256790D01*
X220500Y267500D01*
D18*
X125158Y87463D02*
X127500Y97500D01*
X124000Y82500D02*
X125158Y87463D01*
X127500Y97500D02*
Y98500D01*
X113000Y76000D02*
X124000Y82500D01*
X113000Y76000D02*
X113160Y61000D01*
X347500Y89500D02*
Y99000D01*
X318500Y128000D02*
X347500Y99000D01*
X315500Y128000D02*
X318500D01*
X367000Y89500D02*
X373000Y95500D01*
X347500Y89500D02*
X367000D01*
X297500Y128000D02*
X315500D01*
X294500Y125000D02*
X297500Y128000D01*
X285000Y173500D02*
Y184000D01*
X278500Y167000D02*
X285000Y173500D01*
X323500Y83500D02*
X333000Y98500D01*
X313000Y83500D02*
X320500Y78500D01*
X313000Y83500D02*
Y122000D01*
X309500Y125500D02*
X313000Y122000D01*
X295144Y148356D02*
X301500Y142000D01*
X295144Y148356D02*
Y165821D01*
X270000Y167000D02*
X278500D01*
X266500Y202500D02*
X285000Y184000D01*
X266500Y202500D02*
Y214000D01*
X253736Y226764D02*
X266500Y214000D01*
X167212Y113000D02*
X172000D01*
X164146Y116067D02*
X167212Y113000D01*
X270000Y156000D02*
X274500D01*
X268500Y157500D02*
X270000Y156000D01*
X268500Y157500D02*
Y165500D01*
X270000Y167000D01*
X247394Y226764D02*
X253736D01*
X206000Y166000D02*
X208000Y164000D01*
X173000Y166000D02*
X206000D01*
X223000Y138000D02*
X225000Y140000D01*
X139141Y76000D02*
X139641Y75500D01*
X306630Y108730D02*
X307000Y109100D01*
X298010Y108730D02*
X306630D01*
X287510D02*
X298010D01*
X287140Y109100D02*
X287510Y108730D01*
X278500Y109100D02*
X287140D01*
D29*
X278500D02*
D03*
Y116000D02*
D03*
X307000Y109100D02*
D03*
Y116000D02*
D03*
D75*
X264000Y85000D02*
Y102500D01*
X268000Y106500D01*
Y127000D01*
X257000Y138000D02*
X268000Y127000D01*
X269000Y146000D02*
X279500D01*
X284343Y150842D01*
Y159740D01*
X157622Y125122D02*
X164146D01*
X155500Y123000D02*
X157622Y125122D01*
X155500Y105500D02*
Y123000D01*
X170000Y87500D02*
X218000D01*
X269500Y79000D02*
Y83000D01*
X164146Y125122D02*
Y131866D01*
X166270Y133990D01*
X294000Y117000D02*
X298000D01*
X306000D02*
X307000Y116000D01*
X298000Y117000D02*
X306000D01*
D76*
X247394Y226764D02*
D03*
X182500Y79500D02*
D03*
X271500Y207500D02*
D03*
X226000Y116500D02*
D03*
D77*
X247394Y246744D02*
D03*
X301572Y158160D02*
D03*
X308000Y150500D02*
D03*
X314428Y142840D02*
D03*
X212500Y79500D02*
D03*
X202500D02*
D03*
X192500D02*
D03*
X345500Y67500D02*
D03*
X354160Y62500D02*
D03*
X362821Y57500D02*
D03*
X120160Y106000D02*
D03*
X111500Y101000D02*
D03*
X102840Y96000D02*
D03*
X251500Y207500D02*
D03*
X261500D02*
D03*
X241500D02*
D03*
X231500D02*
D03*
X221500D02*
D03*
X211500D02*
D03*
X226000Y126500D02*
D03*
X236000Y116500D02*
D03*
X236000Y126500D02*
D03*
X246000Y116500D02*
D03*
Y126500D02*
D03*
X256000Y116500D02*
D03*
Y126500D02*
D03*
X220500Y317500D02*
D03*
Y307500D02*
D03*
Y297500D02*
D03*
Y287500D02*
D03*
Y277500D02*
D03*
Y267500D02*
D03*
Y257500D02*
D03*
X390320Y85500D02*
D03*
X381660Y90500D02*
D03*
X373000Y95500D02*
D03*
X364340Y100500D02*
D03*
X355679Y105500D02*
D03*
X347019Y110500D02*
D03*
X338359Y115500D02*
D03*
X95840Y51000D02*
D03*
X104500Y56000D02*
D03*
X113160Y61000D02*
D03*
X121820Y66000D02*
D03*
X130481Y71000D02*
D03*
X139141Y76000D02*
D03*
X147801Y81000D02*
D03*
D78*
X195000Y177000D02*
D03*
X200500D02*
D03*
D79*
X295144Y165821D02*
D03*
D80*
X336840Y72500D02*
D03*
X398981Y80500D02*
D03*
D81*
X128821Y111000D02*
D03*
X87179Y46000D02*
D03*
D82*
X281000Y98343D02*
D03*
D83*
X281000Y88500D02*
D03*
X281000Y78658D02*
D03*
X302654Y98343D02*
D03*
Y88500D02*
D03*
Y78658D02*
D03*
D84*
X251500Y92000D02*
D03*
X231500Y92000D02*
D03*
D85*
X196500Y160200D02*
D03*
Y141000D02*
D03*
D86*
X220500Y327500D02*
D03*
D87*
X428500Y30840D02*
D03*
X438500Y48160D02*
D03*
X34354Y48198D02*
D03*
X44354Y30878D02*
D03*
X246204Y380493D02*
D03*
X226204D02*
D03*
D88*
X231000Y132500D02*
D03*
X263500Y197500D02*
D03*
X239500Y302000D02*
D03*
X239400Y277000D02*
D03*
X176000Y155500D02*
D03*
X207500Y161000D02*
D03*
X225000Y200000D02*
D03*
X224500Y150500D02*
D03*
X250036Y150464D02*
D03*
X245000Y157000D02*
D03*
X241500Y158500D02*
D03*
X125000Y87500D02*
D03*
X127500Y98500D02*
D03*
X155000Y88500D02*
D03*
X182000Y110500D02*
D03*
X207500Y93500D02*
D03*
X347500Y89500D02*
D03*
X315500Y128000D02*
D03*
X294500Y125000D02*
D03*
X264000Y85000D02*
D03*
X257000Y138000D02*
D03*
X269000Y146000D02*
D03*
X222000Y178000D02*
D03*
Y160500D02*
D03*
X333000Y98500D02*
D03*
X323500Y83500D02*
D03*
X320500Y78500D02*
D03*
X309500Y125500D02*
D03*
X301500Y142000D02*
D03*
X265236Y181264D02*
D03*
X281500Y173500D02*
D03*
X270500D02*
D03*
X289000Y150500D02*
D03*
X211000Y181500D02*
D03*
X208000Y157500D02*
D03*
X253000Y173000D02*
D03*
X281500Y183000D02*
D03*
X273500D02*
D03*
X145000Y124000D02*
D03*
X131500Y91000D02*
D03*
X210800Y143700D02*
D03*
X213500Y144000D02*
D03*
X196500Y116000D02*
D03*
X208500Y100000D02*
D03*
Y116000D02*
D03*
X155500Y105500D02*
D03*
X170000Y87500D02*
D03*
X218000D02*
D03*
X269500Y79000D02*
D03*
X172000Y113000D02*
D03*
X166270Y133990D02*
D03*
X284000Y117500D02*
D03*
X294000Y117000D02*
D03*
X279000Y163500D02*
D03*
X208000Y164000D02*
D03*
X173000Y166000D02*
D03*
X227000Y155000D02*
D03*
X224500Y158500D02*
D03*
Y163500D02*
D03*
X278000Y171500D02*
D03*
X244500Y137000D02*
D03*
X235000Y137500D02*
D03*
X233500Y135000D02*
D03*
X210000Y147500D02*
D03*
X209500Y151500D02*
D03*
X262500Y191000D02*
D03*
X231000Y197000D02*
D03*
X210500Y186000D02*
D03*
D89*
X284343Y159740D02*
D03*
X274500Y163480D02*
D03*
X274500Y156000D02*
D03*
D90*
X269500Y83000D02*
D03*
X269520Y91230D02*
D03*
X287500Y117000D02*
D03*
X287510Y108730D02*
D03*
X298000Y117000D02*
D03*
X298010Y108730D02*
D03*
D91*
X164146Y116067D02*
D03*
Y107012D02*
D03*
Y125122D02*
D03*
D92*
X189500Y116000D02*
D03*
M02*
