G04*
G04 #@! TF.GenerationSoftware,Altium Limited,Altium Designer,18.0.12 (696)*
G04*
G04 Layer_Color=32896*
%FSLAX25Y25*%
%MOIN*%
G70*
G01*
G75*
%ADD10C,0.01000*%
%ADD11C,0.00787*%
%ADD17C,0.00800*%
%ADD97C,0.00984*%
D10*
X275600Y106900D02*
G03*
X281456Y106952I2897J3545D01*
G01*
X281400Y118100D02*
G03*
X275544Y118048I-2897J-3545D01*
G01*
X283000Y106200D02*
G03*
X291804Y106308I4346J4602D01*
G01*
X291867Y119466D02*
G03*
X283050Y119370I-4359J-4590D01*
G01*
X304100Y106900D02*
G03*
X309956Y106952I2897J3545D01*
G01*
X309900Y118100D02*
G03*
X304044Y118048I-2897J-3545D01*
G01*
X293500Y106200D02*
G03*
X302304Y106308I4346J4602D01*
G01*
X302367Y119466D02*
G03*
X293550Y119370I-4359J-4590D01*
G01*
X265020Y88730D02*
Y95210D01*
X274020Y88630D02*
Y95210D01*
X265020D02*
X274020D01*
Y79030D02*
Y85530D01*
X265000Y79030D02*
Y85530D01*
Y79030D02*
X274020D01*
X281500Y114300D02*
Y118000D01*
X275500Y114300D02*
Y118000D01*
Y107000D02*
Y110800D01*
X281500Y107100D02*
Y110800D01*
X292000Y114500D02*
Y119320D01*
X283000Y114500D02*
Y119230D01*
X292000Y106500D02*
Y111200D01*
X283000Y106290D02*
Y111200D01*
X310000Y114300D02*
Y118000D01*
X304000Y114300D02*
Y118000D01*
Y107000D02*
Y110800D01*
X310000Y107100D02*
Y110800D01*
X302500Y114500D02*
Y119320D01*
X293500Y114500D02*
Y119230D01*
X302500Y106500D02*
Y111200D01*
X293500Y106290D02*
Y111200D01*
X169346Y102067D02*
Y130067D01*
X184346Y102067D02*
Y130067D01*
X169346Y102067D02*
X184346D01*
X169346Y130067D02*
X184346D01*
D11*
X277945Y164858D02*
X284343D01*
X277945Y154622D02*
X284343D01*
Y156394D01*
Y163087D02*
Y164858D01*
X215500Y252500D02*
X225500D01*
Y332500D01*
X215500D02*
X225500D01*
X215500Y252500D02*
Y332500D01*
X331529Y113670D02*
X336529Y122330D01*
X331529Y113670D02*
X400811Y73670D01*
X405811Y82330D01*
X336529Y122330D02*
X405811Y82330D01*
X149631Y87830D02*
X154631Y79170D01*
X80349Y47830D02*
X149631Y87830D01*
X80349Y47830D02*
X85349Y39170D01*
X154631Y79170D01*
D17*
X395661Y71922D02*
X396702Y73725D01*
X397271Y73878D01*
X397992Y73461D01*
X398145Y72892D01*
X397104Y71089D01*
X399268Y69839D02*
X398755Y70617D01*
X398450Y71754D01*
X398866Y72476D01*
X399435Y72628D01*
X400157Y72212D01*
X400309Y71643D01*
X400101Y71282D01*
X399532Y71130D01*
X398450Y71754D01*
X84000Y54822D02*
X85042Y53019D01*
X84889Y52450D01*
X84168Y52033D01*
X83599Y52186D01*
X82557Y53989D01*
X80393Y52740D02*
X81836Y53573D01*
X82461Y52491D01*
X81531Y52435D01*
X81170Y52227D01*
X81018Y51658D01*
X81435Y50936D01*
X82003Y50784D01*
X82725Y51200D01*
X82877Y51769D01*
X229999Y328000D02*
X227917D01*
X227500Y328416D01*
Y329250D01*
X227917Y329666D01*
X229999D01*
X227500Y331749D02*
X229999D01*
X228750Y330499D01*
Y332165D01*
X193645Y126812D02*
X191562D01*
X191146Y127228D01*
Y128061D01*
X191562Y128478D01*
X193645D01*
X191146Y129311D02*
Y130144D01*
Y129727D01*
X193645D01*
X193228Y129311D01*
X270000Y97740D02*
Y100239D01*
X268750D01*
X268334Y99823D01*
Y98990D01*
X268750Y98573D01*
X270000D01*
X269167D02*
X268334Y97740D01*
X267501D02*
X266668D01*
X267084D01*
Y100239D01*
X267501Y99823D01*
X284234Y169017D02*
Y170683D01*
X284650Y171099D01*
X285484D01*
X285900Y170683D01*
Y169017D01*
X285484Y168600D01*
X284650D01*
X285067Y169433D02*
X284234Y168600D01*
X284650D02*
X284234Y169017D01*
X281735Y168600D02*
X283401D01*
X281735Y170266D01*
Y170683D01*
X282151Y171099D01*
X282984D01*
X283401Y170683D01*
X278834Y122583D02*
X279250Y122999D01*
X280083D01*
X280500Y122583D01*
Y120916D01*
X280083Y120500D01*
X279250D01*
X278834Y120916D01*
X278001D02*
X277584Y120500D01*
X276751D01*
X276335Y120916D01*
Y122583D01*
X276751Y122999D01*
X277584D01*
X278001Y122583D01*
Y122166D01*
X277584Y121750D01*
X276335D01*
X287834Y124583D02*
X288250Y124999D01*
X289084D01*
X289500Y124583D01*
Y122916D01*
X289084Y122500D01*
X288250D01*
X287834Y122916D01*
X287001Y124583D02*
X286584Y124999D01*
X285751D01*
X285335Y124583D01*
Y124166D01*
X285751Y123750D01*
X285335Y123333D01*
Y122916D01*
X285751Y122500D01*
X286584D01*
X287001Y122916D01*
Y123333D01*
X286584Y123750D01*
X287001Y124166D01*
Y124583D01*
X286584Y123750D02*
X285751D01*
X307334Y123083D02*
X307750Y123499D01*
X308583D01*
X309000Y123083D01*
Y121416D01*
X308583Y121000D01*
X307750D01*
X307334Y121416D01*
X306501Y123499D02*
X304835D01*
Y123083D01*
X306501Y121416D01*
Y121000D01*
X298334Y124583D02*
X298750Y124999D01*
X299584D01*
X300000Y124583D01*
Y122916D01*
X299584Y122500D01*
X298750D01*
X298334Y122916D01*
X295835Y124999D02*
X296668Y124583D01*
X297501Y123750D01*
Y122916D01*
X297084Y122500D01*
X296251D01*
X295835Y122916D01*
Y123333D01*
X296251Y123750D01*
X297501D01*
D97*
X274992Y152063D02*
G03*
X274992Y152063I-492J0D01*
G01*
M02*
